<svg width="66" height="66" viewBox="0 0 66 66" fill="none" xmlns="http://www.w3.org/2000/svg">
<circle cx="32.4043" cy="32.3611" r="9.6074" fill="#7DBC44"/>
<path d="M62.0534 18.766C61.7652 18.1655 61.0446 17.9133 60.4562 18.2015C59.8557 18.4898 59.6035 19.2103 59.8917 19.7987C65.368 31.2438 63.0141 44.9824 54.0312 53.965C48.3509 59.6453 40.8207 62.7676 32.7989 62.7676C24.7771 62.7676 17.2472 59.6452 11.5788 53.965C5.89849 48.2966 2.77616 40.7544 2.77616 32.7449C2.77616 24.7354 5.89856 17.1809 11.5788 11.5126C20.5621 2.52926 34.2884 0.175832 45.745 5.66404C46.874 6.19245 47.9548 6.82892 48.9996 7.50143L46.6698 9.83119C46.4416 10.0594 46.3216 10.3596 46.3216 10.6839V15.4035C45.2408 14.5628 44.0879 13.8063 42.8749 13.1938C34.3366 8.79836 24.0321 10.4076 17.2354 17.1928C8.64872 25.7795 8.64872 39.7464 17.2354 48.3331C21.5227 52.6204 27.1672 54.7701 32.7994 54.7701C38.4317 54.7701 44.0762 52.6204 48.3634 48.3331C55.1607 41.5358 56.7702 31.2319 52.3625 22.6936C52.0622 22.1052 51.3417 21.877 50.7412 22.1772C50.1527 22.4775 49.9246 23.2101 50.2248 23.7985C54.1398 31.4123 52.7107 40.5876 46.6581 46.6403C39.0082 54.2902 26.5663 54.2902 18.9165 46.6403C11.2667 38.9904 11.2666 26.5485 18.9165 18.8987C24.9692 12.8461 34.1438 11.417 41.7583 15.332C43.1994 16.0646 44.5444 16.9893 45.7694 18.0821L40.0771 23.7745C38.8041 22.7416 37.339 21.9851 35.7777 21.5767C31.7907 20.496 27.4915 21.6368 24.5732 24.567C20.0457 29.0945 20.0457 36.4564 24.5732 40.9834C26.8309 43.2411 29.8092 44.382 32.7756 44.382C35.742 44.382 38.7202 43.2531 40.978 40.9834C43.9083 38.0651 45.0492 33.7658 43.9683 29.7789C43.8002 29.1424 43.1397 28.7581 42.4911 28.9382C41.8547 29.1063 41.4704 29.7668 41.6505 30.4153C42.5031 33.5738 41.6024 36.9844 39.2846 39.3018C35.6939 42.8926 29.8571 42.8926 26.2662 39.3018C22.6754 35.711 22.6755 29.8742 26.2662 26.2834C28.584 23.9656 31.9826 23.0529 35.165 23.9176C36.3299 24.2178 37.4227 24.7583 38.3835 25.4908L31.9345 31.9397C31.4662 32.4081 31.4662 33.1647 31.9345 33.633C32.1747 33.8732 32.4749 33.9813 32.7872 33.9813C33.0995 33.9813 33.3997 33.8612 33.6399 33.633L48.0033 19.2696H54.8606C55.1849 19.2696 55.4851 19.1375 55.7133 18.9213L63.0749 11.5597C63.4232 11.2114 63.5193 10.695 63.3391 10.2507C63.159 9.80636 62.7147 9.50611 62.2343 9.50611H56.0736V3.34539C56.0736 2.86502 55.7854 2.4207 55.329 2.24054C54.8847 2.0604 54.3683 2.15647 54.02 2.50474L50.7174 5.8073C49.4565 4.96662 48.1354 4.18604 46.7664 3.53758C34.3967 -2.38296 19.5652 0.162997 9.87403 9.85448C3.74927 15.9792 0.375 24.1211 0.375 32.7923C0.375 41.4636 3.74958 49.593 9.87403 55.7179C15.9985 61.8428 24.1406 65.2169 32.7996 65.2169C41.4585 65.2169 49.6002 61.8423 55.7374 55.7179C65.4409 46.0144 67.9749 31.1829 62.0543 18.8255L62.0534 18.766ZM54.8839 11.8606H59.3393L54.3795 16.8204H48.7232V11.1641L53.683 6.20427V10.6597C53.683 11.3202 54.2234 11.8606 54.8839 11.8606Z" fill="#422006"/>
</svg>
