<svg width="93" height="93" viewBox="0 0 93 93" fill="none" xmlns="http://www.w3.org/2000/svg">
<path d="M12.2608 40.9844C20.52 30.3404 31.5583 21.5299 44.6746 21.5299C58.2582 21.5299 69.2965 30.9513 77.0628 40.9844L78.6726 43.072C79.0364 43.505 79.0107 44.1158 78.647 44.5488L77.0628 46.5862C68.8292 57.2553 57.7909 66.0658 44.6746 66.0658C31.091 66.0658 20.0262 56.6444 12.2608 46.5862L10.6509 44.5237C10.3128 44.0655 10.3394 43.4538 10.6766 43.0469L12.2608 40.9844ZM17.3772 18.9329C16.8834 18.4748 16.8834 17.7103 17.3516 17.2271C17.8189 16.7429 18.5986 16.7177 19.0916 17.1759L25.7922 23.3894C26.2861 23.8475 26.2861 24.612 25.8179 25.0953C25.3506 25.5794 24.5708 25.6046 24.0779 25.1465L17.3772 18.9329ZM70.0249 17.0483C70.4922 16.5641 71.272 16.539 71.7649 16.9971C72.2588 17.4813 72.2844 18.2448 71.8171 18.729L65.4793 25.2731C65.012 25.7573 64.2323 25.7825 63.7393 25.3243C63.2464 24.8662 63.2198 24.1017 63.6871 23.5924L70.0249 17.0483ZM19.3252 70.5474C18.8314 71.0316 18.0525 71.0316 17.5587 70.5726C17.0648 70.1144 17.0391 69.35 17.533 68.8667L23.8442 62.2974C24.3381 61.8132 25.1169 61.8132 25.6108 62.2723C26.1047 62.7313 26.1303 63.4949 25.6365 63.9781L19.3252 70.5474ZM46.0261 80.2742C46.0518 80.9614 45.5066 81.4968 44.8313 81.5219C44.1304 81.5471 43.5843 81.0126 43.5586 80.3254L43.2993 71.311C43.2993 70.6489 43.8445 70.0884 44.5198 70.0632C45.195 70.0632 45.7668 70.5977 45.7925 71.2598L46.0261 80.2742ZM71.9463 68.6376C72.4402 69.1218 72.4659 69.8854 71.9986 70.3695C71.5313 70.8537 70.7259 70.8789 70.232 70.4207L63.557 64.2072C63.0631 63.7491 63.0375 62.9595 63.5048 62.4753C63.9721 61.9911 64.7775 61.966 65.2713 62.4501L71.9463 68.6376ZM43.2984 7.29546C43.2984 6.63341 43.8436 6.07287 44.5188 6.07287C45.1941 6.04772 45.7659 6.58221 45.7915 7.24426L46.0252 16.2838C46.0508 16.9459 45.5057 17.5064 44.8304 17.5064C44.1294 17.5316 43.5833 16.9971 43.5577 16.335L43.2984 7.29546ZM48.3113 31.5118C49.2202 31.766 50.1291 32.1227 50.9602 32.5817L53.6091 31.5118C54.0764 31.3079 54.5959 31.4103 54.9597 31.766L56.9333 33.701C57.3493 34.0827 57.4006 34.6684 57.167 35.1266L56.1023 37.622C56.5696 38.4368 56.9333 39.3279 57.2192 40.2451L59.8425 41.2889C60.3363 41.4668 60.6213 41.9258 60.6213 42.4091V45.1588C60.6213 45.6933 60.2832 46.1514 59.7902 46.3302L57.1926 47.3488C56.9333 48.2651 56.5696 49.1311 56.1014 49.9719L57.2183 52.5437C57.3997 53.0279 57.2962 53.5372 56.9324 53.8678L54.9588 55.8288C54.5694 56.2106 53.972 56.2869 53.5047 56.0327L50.9593 54.9889C50.1282 55.473 49.2193 55.8288 48.3104 56.0839L47.2191 58.6809C47.0377 59.139 46.5694 59.4444 46.0765 59.4444H43.2718C42.7266 59.4444 42.2584 59.0878 42.077 58.6297L41.038 56.083C40.1024 55.8288 39.2201 55.4721 38.3625 54.988L35.7392 56.083C35.2453 56.2869 34.7267 56.1594 34.3886 55.8288L32.3884 53.8678C31.999 53.486 31.9211 52.9003 32.1804 52.4422L33.2451 49.9719C32.7513 49.132 32.3884 48.266 32.1282 47.3488L29.4793 46.305C29.012 46.1011 28.7004 45.643 28.7004 45.1588V42.4091C28.7004 41.8746 29.0642 41.4416 29.5315 41.2629L32.1291 40.2442C32.3884 39.3279 32.7787 38.462 33.246 37.6211L32.1291 35.0242C31.9211 34.566 32.0512 34.0567 32.3884 33.7001L34.3886 31.7651C34.778 31.3573 35.3754 31.307 35.8427 31.5361L38.3625 32.5799C39.2192 32.1218 40.1024 31.7651 41.038 31.51L42.1027 28.913C42.3106 28.4288 42.7779 28.1495 43.2718 28.1495H46.0765C46.6217 28.1495 47.0899 28.4801 47.2457 28.9642L48.3113 31.5118ZM48.7007 34.2112C48.2068 34.0073 47.6616 33.8294 47.1165 33.7019C46.727 33.6255 46.3889 33.3704 46.2332 32.9886L45.2464 30.5946H44.1038L43.0913 32.9886C42.9612 33.3192 42.6497 33.5995 42.2346 33.7019C41.1177 33.9561 40.053 34.3891 39.1175 34.9748C38.7803 35.1787 38.3643 35.2038 37.9749 35.0511L35.5596 34.0576L34.7286 34.8472L35.741 37.2151C35.8968 37.5717 35.8968 37.9787 35.6631 38.3353C35.0914 39.2516 34.6241 40.3466 34.3905 41.3913C34.2869 41.7731 34.0267 42.1046 33.6373 42.2573L31.1954 43.2247V44.3449L33.6373 45.3384C34.001 45.466 34.2869 45.7714 34.3905 46.1783C34.6241 47.2734 35.0914 48.3172 35.6631 49.2344C35.8711 49.5649 35.9224 49.9728 35.7667 50.3545L34.7276 52.7225L35.5587 53.5372L37.9483 52.5437C38.3121 52.391 38.7537 52.391 39.1175 52.62C40.0264 53.1806 41.1433 53.6387 42.208 53.8678C42.5974 53.9693 42.9355 54.2244 43.0913 54.6062L44.1038 57.0002H45.2464L46.2332 54.6062C46.3889 54.2496 46.7005 53.9693 47.0899 53.8929C48.2068 53.6387 49.2715 53.1797 50.2327 52.62C50.5442 52.4161 50.9602 52.3658 51.3496 52.5185L53.7914 53.5372L54.5968 52.7225L53.5844 50.3797C53.4286 50.0231 53.4543 49.5901 53.6623 49.2335C54.234 48.3423 54.7013 47.2473 54.9606 46.2035C55.0385 45.8217 55.2987 45.4902 55.6881 45.3375L58.1556 44.344V43.2238L55.6881 42.2564C55.3509 42.1037 55.0651 41.7982 54.9606 41.4165C54.7013 40.3214 54.2597 39.2776 53.6623 38.3353C53.4543 38.0299 53.4286 37.622 53.5844 37.2403L54.5968 34.8463L53.7914 34.0567L51.3762 35.0502C51.0124 35.2029 50.5973 35.1778 50.2336 34.9739C49.7654 34.6945 49.2468 34.4403 48.7007 34.2112ZM44.6755 36.0186C49.0388 36.0186 52.5976 39.5067 52.5976 43.7853C52.5976 48.089 49.0397 51.552 44.6755 51.552C40.2857 51.552 36.7535 48.089 36.7535 43.7853C36.7535 39.5076 40.2857 36.0186 44.6755 36.0186ZM25.7409 30.8498C21.8193 33.7782 17.949 37.6481 14.2354 42.4612L13.1963 43.7853L14.2354 45.1345C21.9751 55.1416 32.3646 63.6215 44.6755 63.6215C57.4025 63.6215 67.8433 54.5307 75.1157 45.1345L76.1291 43.7853L75.1157 42.4612C67.3494 32.4541 56.9608 23.949 44.6755 23.949C37.6624 23.949 31.2733 26.7499 25.7409 30.8498Z" fill="#3B0764"/>
<circle cx="44.5833" cy="43.7727" r="8.18094" fill="#2D312B"/>
<circle cx="44.5985" cy="43.7716" r="5.45396" fill="#7DBC44"/>
</svg>
