<svg width="58" height="50" viewBox="0 0 58 50" fill="none" xmlns="http://www.w3.org/2000/svg">
<circle cx="11" cy="41" r="2" fill="#7DBC44"/>
<circle cx="19.5" cy="41.5" r="2.5" fill="#7DBC44"/>
<circle cx="28.5" cy="41.5" r="2.5" fill="#7DBC44"/>
<circle cx="37.5" cy="41.5" r="2.5" fill="#7DBC44"/>
<circle cx="47" cy="41" r="2" fill="#7DBC44"/>
<path d="M43.9988 32.5H13.4988C1.8988 27.3 6.9988 20.3333 10.9988 17.5C10.9988 9.5 17.9988 9.16662 21.4988 9.99993C27.8988 -0.400069 33.8321 5.99998 35.9988 10.5C43.9988 7.7 46.6655 13.6667 46.9988 17C56.1988 25 48.8321 30.6667 43.9988 32.5Z" fill="#7DBC44"/>
<mask id="path-7-inside-1_1556_1926" fill="white">
<path d="M42.6522 29.1478C42.6522 28.6984 43.0199 28.3307 43.4693 28.3307C45.7244 28.3307 47.5547 26.5004 47.5547 24.2452C47.5547 23.7958 47.9224 23.4282 48.3718 23.4282C48.8212 23.4282 49.1889 23.7958 49.1889 24.2452C49.1889 27.3992 46.6233 29.9651 43.469 29.9651C43.0196 29.9651 42.6522 29.5972 42.6522 29.1478ZM50.0057 40.7177C50.0057 42.5235 48.5431 43.9861 46.7374 43.9861C44.9316 43.9861 43.469 42.5235 43.469 40.7177C43.469 39.8925 43.7877 39.1489 44.2861 38.5769L42.7908 36.379C42.7009 36.2401 42.6519 36.0848 42.6519 35.9214V33.2332H35.2984V36.4852L36.6466 38.4708C36.9898 38.3482 37.3575 38.2665 37.7497 38.2665C39.5554 38.2665 41.018 39.7291 41.018 41.5349C41.018 43.3406 39.5554 44.8032 37.7497 44.8032C35.9439 44.8032 34.4813 43.3406 34.4813 41.5349C34.4813 40.7096 34.8 39.966 35.2984 39.3941L33.8031 37.1961C33.7132 37.0572 33.6642 36.902 33.6642 36.7385V33.2332H29.5788V38.3809C30.9842 38.7486 32.03 40.0151 32.03 41.5349C32.03 43.3406 30.5674 44.8032 28.7617 44.8032C26.9559 44.8032 25.4933 43.3406 25.4933 41.5349C25.4933 40.0151 26.5392 38.7486 27.9446 38.3809V33.2332H23.8592V36.7385C23.8592 36.902 23.8101 37.0654 23.7203 37.1961L22.225 39.3941C22.7316 39.966 23.0421 40.7096 23.0421 41.5349C23.0421 43.3406 21.5795 44.8032 19.7737 44.8032C17.968 44.8032 16.5054 43.3406 16.5054 41.5349C16.5054 39.7291 17.968 38.2665 19.7737 38.2665C20.1578 38.2665 20.5254 38.3482 20.8768 38.4708L22.225 36.4852V33.2332H14.8715V35.9214C14.8715 36.0848 14.8224 36.2482 14.7326 36.379L13.2373 38.5769C13.7439 39.1489 14.0544 39.8924 14.0544 40.7177C14.0544 42.5235 12.5918 43.9861 10.786 43.9861C8.98027 43.9861 7.51767 42.5235 7.51767 40.7177C7.51767 38.912 8.98027 37.4494 10.786 37.4494C11.17 37.4494 11.5377 37.5311 11.8891 37.6536L13.2373 35.6681V33.1923C8.66159 32.7756 5.06641 28.9272 5.06641 24.2454C5.06641 20.9852 7.0111 18.0518 9.96893 16.7612C10.0425 12.3162 13.6785 8.72102 18.1398 8.72102C19.1366 8.72102 20.1335 8.90896 21.065 9.26027C22.2089 6.05729 25.2975 3.8186 28.7621 3.8186C32.2266 3.8186 35.315 6.0574 36.4592 9.26027C37.3906 8.90076 38.3875 8.72102 39.3844 8.72102C43.8456 8.72102 47.4815 12.3162 47.5552 16.7612C50.5131 18.0522 52.4578 20.9855 52.4578 24.2454C52.4578 28.9273 48.8626 32.7755 44.2869 33.1923V35.6681L45.6351 37.6536C45.9783 37.5311 46.346 37.4494 46.7382 37.4494C48.5439 37.4494 50.0065 38.912 50.0065 40.7177H50.0057ZM12.4197 40.7177C12.4197 39.8189 11.6844 39.0836 10.7855 39.0836C9.88671 39.0836 9.15136 39.8189 9.15136 40.7177C9.15136 41.6166 9.88671 42.3519 10.7855 42.3519C11.6844 42.3519 12.4197 41.6166 12.4197 40.7177ZM21.4079 41.5348C21.4079 40.636 20.6726 39.9006 19.7738 39.9006C18.8749 39.9006 18.1396 40.636 18.1396 41.5348C18.1396 42.4336 18.8749 43.169 19.7738 43.169C20.6726 43.169 21.4079 42.4336 21.4079 41.5348ZM28.7615 39.9006C27.8626 39.9006 27.1273 40.636 27.1273 41.5348C27.1273 42.4336 27.8626 43.169 28.7615 43.169C29.6603 43.169 30.3956 42.4336 30.3956 41.5348C30.3956 40.636 29.6603 39.9006 28.7615 39.9006ZM37.7497 39.9006C36.8508 39.9006 36.1155 40.636 36.1155 41.5348C36.1155 42.4336 36.8508 43.169 37.7497 43.169C38.6485 43.169 39.3838 42.4336 39.3838 41.5348C39.3838 40.636 38.6485 39.9006 37.7497 39.9006ZM14.0544 31.599H43.4695C47.5223 31.599 50.8231 28.298 50.8231 24.2455C50.8231 21.4756 49.0663 18.9999 46.4435 18.0764C46.1003 17.9539 45.8715 17.6189 45.896 17.2512V17.1123C45.9124 17.0388 45.9205 16.9652 45.9205 16.8917C45.9205 13.2883 42.9872 10.355 39.3838 10.355C38.3134 10.355 37.2594 10.6164 36.3197 11.1149C36.091 11.2374 35.8213 11.2374 35.5925 11.1394C35.3638 11.0331 35.1922 10.8207 35.135 10.5756C34.4813 7.60955 31.8013 5.45244 28.7614 5.45244C25.7216 5.45244 23.0416 7.60955 22.3879 10.5756C22.3307 10.8289 22.1673 11.0332 21.9303 11.1394C21.7015 11.2456 21.4319 11.2374 21.2031 11.1149C20.2635 10.6164 19.2094 10.355 18.139 10.355C14.5357 10.355 11.6023 13.2883 11.6023 16.8917C11.6023 16.9652 11.6023 17.0387 11.6187 17.1123V17.2512C11.6514 17.6189 11.4308 17.9539 11.0876 18.0764C8.46476 18.9916 6.70801 21.4755 6.70801 24.2455C6.70801 28.2983 10.009 31.599 14.0615 31.599H14.0544ZM48.3721 40.718C48.3721 39.8192 47.6367 39.0838 46.7379 39.0838C45.8391 39.0838 45.1037 39.8192 45.1037 40.718C45.1037 41.6168 45.8391 42.3522 46.7379 42.3522C47.6367 42.3522 48.3721 41.6168 48.3721 40.718Z"/>
</mask>
<path d="M42.6522 29.1478C42.6522 28.6984 43.0199 28.3307 43.4693 28.3307C45.7244 28.3307 47.5547 26.5004 47.5547 24.2452C47.5547 23.7958 47.9224 23.4282 48.3718 23.4282C48.8212 23.4282 49.1889 23.7958 49.1889 24.2452C49.1889 27.3992 46.6233 29.9651 43.469 29.9651C43.0196 29.9651 42.6522 29.5972 42.6522 29.1478ZM50.0057 40.7177C50.0057 42.5235 48.5431 43.9861 46.7374 43.9861C44.9316 43.9861 43.469 42.5235 43.469 40.7177C43.469 39.8925 43.7877 39.1489 44.2861 38.5769L42.7908 36.379C42.7009 36.2401 42.6519 36.0848 42.6519 35.9214V33.2332H35.2984V36.4852L36.6466 38.4708C36.9898 38.3482 37.3575 38.2665 37.7497 38.2665C39.5554 38.2665 41.018 39.7291 41.018 41.5349C41.018 43.3406 39.5554 44.8032 37.7497 44.8032C35.9439 44.8032 34.4813 43.3406 34.4813 41.5349C34.4813 40.7096 34.8 39.966 35.2984 39.3941L33.8031 37.1961C33.7132 37.0572 33.6642 36.902 33.6642 36.7385V33.2332H29.5788V38.3809C30.9842 38.7486 32.03 40.0151 32.03 41.5349C32.03 43.3406 30.5674 44.8032 28.7617 44.8032C26.9559 44.8032 25.4933 43.3406 25.4933 41.5349C25.4933 40.0151 26.5392 38.7486 27.9446 38.3809V33.2332H23.8592V36.7385C23.8592 36.902 23.8101 37.0654 23.7203 37.1961L22.225 39.3941C22.7316 39.966 23.0421 40.7096 23.0421 41.5349C23.0421 43.3406 21.5795 44.8032 19.7737 44.8032C17.968 44.8032 16.5054 43.3406 16.5054 41.5349C16.5054 39.7291 17.968 38.2665 19.7737 38.2665C20.1578 38.2665 20.5254 38.3482 20.8768 38.4708L22.225 36.4852V33.2332H14.8715V35.9214C14.8715 36.0848 14.8224 36.2482 14.7326 36.379L13.2373 38.5769C13.7439 39.1489 14.0544 39.8924 14.0544 40.7177C14.0544 42.5235 12.5918 43.9861 10.786 43.9861C8.98027 43.9861 7.51767 42.5235 7.51767 40.7177C7.51767 38.912 8.98027 37.4494 10.786 37.4494C11.17 37.4494 11.5377 37.5311 11.8891 37.6536L13.2373 35.6681V33.1923C8.66159 32.7756 5.06641 28.9272 5.06641 24.2454C5.06641 20.9852 7.0111 18.0518 9.96893 16.7612C10.0425 12.3162 13.6785 8.72102 18.1398 8.72102C19.1366 8.72102 20.1335 8.90896 21.065 9.26027C22.2089 6.05729 25.2975 3.8186 28.7621 3.8186C32.2266 3.8186 35.315 6.0574 36.4592 9.26027C37.3906 8.90076 38.3875 8.72102 39.3844 8.72102C43.8456 8.72102 47.4815 12.3162 47.5552 16.7612C50.5131 18.0522 52.4578 20.9855 52.4578 24.2454C52.4578 28.9273 48.8626 32.7755 44.2869 33.1923V35.6681L45.6351 37.6536C45.9783 37.5311 46.346 37.4494 46.7382 37.4494C48.5439 37.4494 50.0065 38.912 50.0065 40.7177H50.0057ZM12.4197 40.7177C12.4197 39.8189 11.6844 39.0836 10.7855 39.0836C9.88671 39.0836 9.15136 39.8189 9.15136 40.7177C9.15136 41.6166 9.88671 42.3519 10.7855 42.3519C11.6844 42.3519 12.4197 41.6166 12.4197 40.7177ZM21.4079 41.5348C21.4079 40.636 20.6726 39.9006 19.7738 39.9006C18.8749 39.9006 18.1396 40.636 18.1396 41.5348C18.1396 42.4336 18.8749 43.169 19.7738 43.169C20.6726 43.169 21.4079 42.4336 21.4079 41.5348ZM28.7615 39.9006C27.8626 39.9006 27.1273 40.636 27.1273 41.5348C27.1273 42.4336 27.8626 43.169 28.7615 43.169C29.6603 43.169 30.3956 42.4336 30.3956 41.5348C30.3956 40.636 29.6603 39.9006 28.7615 39.9006ZM37.7497 39.9006C36.8508 39.9006 36.1155 40.636 36.1155 41.5348C36.1155 42.4336 36.8508 43.169 37.7497 43.169C38.6485 43.169 39.3838 42.4336 39.3838 41.5348C39.3838 40.636 38.6485 39.9006 37.7497 39.9006ZM14.0544 31.599H43.4695C47.5223 31.599 50.8231 28.298 50.8231 24.2455C50.8231 21.4756 49.0663 18.9999 46.4435 18.0764C46.1003 17.9539 45.8715 17.6189 45.896 17.2512V17.1123C45.9124 17.0388 45.9205 16.9652 45.9205 16.8917C45.9205 13.2883 42.9872 10.355 39.3838 10.355C38.3134 10.355 37.2594 10.6164 36.3197 11.1149C36.091 11.2374 35.8213 11.2374 35.5925 11.1394C35.3638 11.0331 35.1922 10.8207 35.135 10.5756C34.4813 7.60955 31.8013 5.45244 28.7614 5.45244C25.7216 5.45244 23.0416 7.60955 22.3879 10.5756C22.3307 10.8289 22.1673 11.0332 21.9303 11.1394C21.7015 11.2456 21.4319 11.2374 21.2031 11.1149C20.2635 10.6164 19.2094 10.355 18.139 10.355C14.5357 10.355 11.6023 13.2883 11.6023 16.8917C11.6023 16.9652 11.6023 17.0387 11.6187 17.1123V17.2512C11.6514 17.6189 11.4308 17.9539 11.0876 18.0764C8.46476 18.9916 6.70801 21.4755 6.70801 24.2455C6.70801 28.2983 10.009 31.599 14.0615 31.599H14.0544ZM48.3721 40.718C48.3721 39.8192 47.6367 39.0838 46.7379 39.0838C45.8391 39.0838 45.1037 39.8192 45.1037 40.718C45.1037 41.6168 45.8391 42.3522 46.7379 42.3522C47.6367 42.3522 48.3721 41.6168 48.3721 40.718Z" fill="black" fill-opacity="0.8" stroke="black" stroke-opacity="0.8" stroke-width="2" mask="url(#path-7-inside-1_1556_1926)"/>
</svg>
