<svg width="54" height="59" viewBox="0 0 54 59" fill="none" xmlns="http://www.w3.org/2000/svg">
<path d="M14.7522 27.5657L22.0814 40.2603H7.4229L14.7522 27.5657Z" fill="#7DBC44"/>
<circle cx="20.3112" cy="22.2458" r="10.6393" fill="#7DBC44"/>
<path d="M9.75984 33.2557L9.68428 33.182C8.58107 32.0788 7.68374 30.8396 6.99799 29.521C6.28767 28.1571 5.80406 26.7044 5.5434 25.2233C5.47539 24.8285 5.73797 24.4526 6.13281 24.3846C6.52764 24.3166 6.90359 24.5791 6.97158 24.974C7.20583 26.3114 7.64409 27.6225 8.28448 28.8523C8.86065 29.9593 9.60308 31.0058 10.5117 31.9523L11.5658 30.1256C9.67678 27.9437 8.74922 25.216 8.78322 22.4976C8.81911 19.6149 9.93556 16.7437 12.1307 14.5481C14.3655 12.3133 17.2937 11.1969 20.2234 11.1969C23.1496 11.1969 26.0794 12.3152 28.3141 14.5481C30.5489 16.781 31.6672 19.7111 31.6672 22.6427C31.671 25.5708 30.5527 28.5026 28.3179 30.7373C27.0295 32.0257 25.5031 32.9457 23.8785 33.4916C22.6449 33.9053 21.3566 34.1037 20.0682 34.0867L21.2093 36.0645C22.7205 35.955 24.2205 35.5885 25.6335 34.9689C27.1183 34.3171 28.5143 33.3801 29.7366 32.1579C32.3624 29.5321 33.6772 26.0882 33.6772 22.6444C33.681 19.2044 32.3643 15.7588 29.7366 13.1309C27.1089 10.5051 23.6649 9.19027 20.2231 9.19027C16.7813 9.19027 13.3356 10.5051 10.7096 13.1309C9.75367 14.0868 8.97159 15.1503 8.36519 16.2743C7.73423 17.4456 7.29028 18.6867 7.03339 19.9543C6.95593 20.3453 6.57434 20.5985 6.1833 20.521C5.79227 20.4436 5.53914 20.062 5.61656 19.6709C5.90182 18.2598 6.39488 16.8808 7.08818 15.5886C7.76257 14.3343 8.62779 13.1574 9.68002 12.1052C12.5892 9.19598 16.4051 7.7395 20.2193 7.7395C24.0333 7.7395 27.8472 9.19598 30.7585 12.1052C33.6677 15.0143 35.1204 18.8302 35.1223 22.6463C35.1242 25.5612 34.2741 28.4781 32.5758 30.9886L34.4422 32.855C34.9429 32.4809 35.5398 32.292 36.1367 32.292C36.8584 32.2958 37.5819 32.5697 38.1297 33.1156L47.0499 42.0338C47.5996 42.5835 47.8735 43.3071 47.8735 44.0287C47.8735 44.7503 47.5996 45.4758 47.048 46.0255L43.6004 49.4731C43.0507 50.0228 42.3271 50.2986 41.6036 50.2986C40.882 50.2986 40.1566 50.0228 39.6087 49.4749L30.6906 40.5568C30.1408 40.007 29.8669 39.2835 29.8669 38.5619C29.8669 37.9649 30.0539 37.3679 30.4299 36.8674L28.5616 34.9991C27.8097 35.5072 27.022 35.9398 26.2078 36.2969C24.8589 36.8882 23.4402 37.2697 21.9989 37.4416L22.8433 38.9057C22.9944 39.1834 23.0681 39.4781 23.0681 39.7709C23.0681 40.0845 22.9831 40.3962 22.8169 40.6852L22.7866 40.7324C22.6242 40.9988 22.405 41.2104 22.1519 41.3558L22.099 41.3842C21.8364 41.5259 21.5417 41.6014 21.2338 41.6014H8.10483C7.77802 41.6014 7.46633 41.5164 7.19053 41.3577C6.9185 41.2009 6.6899 40.9742 6.52368 40.6852C6.35555 40.3962 6.27054 40.0845 6.27054 39.7709C6.27054 39.4611 6.35366 39.1494 6.52179 38.8585L9.75402 33.2593L9.75984 33.2557ZM13.9499 38.277C13.9499 37.8765 14.2748 37.5516 14.6753 37.5516C15.0758 37.5516 15.4007 37.8765 15.4007 38.277C15.4007 38.6794 15.0758 39.0043 14.6753 39.0043C14.2748 39.0043 13.9499 38.6794 13.9499 38.277ZM13.9517 32.0844C13.9517 31.6839 14.2767 31.359 14.6772 31.359C15.0776 31.359 15.4026 31.6839 15.4026 32.0844V35.3828C15.4026 35.7832 15.0776 36.1082 14.6772 36.1082C14.2767 36.1082 13.9517 35.7832 13.9517 35.3828V32.0844ZM16.2583 27.4807L19.2053 32.5871C20.6202 32.7307 22.0597 32.5739 23.4198 32.1167C24.831 31.6426 26.1628 30.8378 27.2925 29.71C29.2439 27.7586 30.2206 25.2008 30.2206 22.6431C30.2243 20.0871 29.2458 17.5294 27.2925 15.5761C25.343 13.6247 22.7832 12.6499 20.2255 12.6499C17.6677 12.6499 15.108 13.6266 13.1586 15.5761C11.2374 17.4974 10.2607 20.0041 10.2286 22.5169C10.2003 24.7309 10.9049 26.9543 12.3387 28.7907L13.0925 27.4835C13.2568 27.1982 13.4854 26.9715 13.7593 26.8128C14.0332 26.6523 14.3468 26.5673 14.6755 26.5673C15.0023 26.5673 15.314 26.6523 15.5898 26.811C15.8618 26.9659 16.0904 27.1944 16.2567 27.4816L16.2583 27.4807ZM21.5722 39.5767C19.3846 35.7872 17.197 31.9957 15.0077 28.2061C14.9737 28.1419 14.9246 28.0928 14.8698 28.0626C14.8207 28.0342 14.7546 28.0172 14.6771 28.0172C14.6015 28.0172 14.5373 28.0323 14.4863 28.0626C14.4315 28.0909 14.3843 28.1419 14.3465 28.2061C12.1571 31.9956 9.96949 35.7852 7.78204 39.5767C7.74615 39.6371 7.72915 39.7014 7.72915 39.7675C7.72915 39.8317 7.74804 39.8959 7.78204 39.9564C7.81793 40.0225 7.86516 40.0697 7.91806 40.1C7.96906 40.1283 8.03518 40.1453 8.11263 40.1453H21.2416C21.3096 40.1453 21.3682 40.1321 21.4173 40.1113L21.4343 40.1019C21.4815 40.0735 21.5249 40.0339 21.5589 39.9828L21.5741 39.9564C21.6081 39.896 21.627 39.8298 21.627 39.7675C21.627 39.7089 21.6137 39.6523 21.5873 39.5975L21.5741 39.5767L21.5722 39.5767ZM31.4426 35.8174L33.4035 33.8565L31.7033 32.1564C31.4105 32.5096 31.0988 32.8516 30.7682 33.1822C30.4376 33.5127 30.0957 33.8244 29.7424 34.1173L31.4445 35.8193L31.4426 35.8174ZM35.1716 34.138L31.724 37.5856C31.4577 37.8519 31.3254 38.2033 31.3254 38.5566C31.3254 38.9079 31.4596 39.2612 31.724 39.5257L40.6422 48.4439C40.9086 48.7102 41.2599 48.8425 41.6113 48.8425C41.9627 48.8425 42.3159 48.7083 42.5823 48.442L46.0299 44.9944C46.2963 44.728 46.4304 44.3767 46.4304 44.0234C46.4304 43.672 46.2963 43.3188 46.0318 43.0543L37.1136 34.1361C36.8472 33.8679 36.494 33.7337 36.1426 33.7337C35.7912 33.7375 35.438 33.8698 35.1735 34.1361L35.1716 34.138ZM6.76941 22.5126C6.76563 22.9112 6.44071 23.2323 6.04023 23.2286C5.64163 23.2248 5.32048 22.8999 5.32425 22.4994L5.32614 22.3917C5.32992 21.9931 5.65484 21.672 6.05532 21.6757C6.45392 21.6795 6.77507 22.0044 6.7713 22.4049L6.76941 22.5126Z" fill="black" fill-opacity="0.8"/>
</svg>
