<svg width="56" height="52" viewBox="0 0 56 52" fill="none" xmlns="http://www.w3.org/2000/svg">
<circle cx="35.2241" cy="20.6039" r="7.84906" fill="#7DBC44"/>
<ellipse cx="14.6244" cy="13.2453" rx="4.90566" ry="5.39623" fill="#7DBC44"/>
<path d="M40.5526 15.6899C37.8308 12.9389 33.4249 12.9389 30.7032 15.6899C27.9815 18.4371 27.9815 22.8942 30.7032 25.6452C33.425 28.3962 37.8309 28.3962 40.5526 25.6452C43.2705 22.8961 43.2705 18.4374 40.5526 15.6899ZM30.5824 41.2977C30.5473 41.2918 30.518 41.2878 30.4868 41.2779L28.0752 40.6863L14.8583 43.9225V45.7447L28.0652 43.5025L28.1842 43.5123L41.2857 45.7448V43.9225L30.5824 41.2977ZM30.079 37.5724C28.6898 37.815 27.3514 37.8307 26.0773 37.6276V39.929C26.3524 39.8581 27.9211 39.4597 28.0694 39.4538L28.2235 39.4735L30.077 39.9271L30.079 37.5724ZM31.5813 35.1783H24.5751V36.0006C25.0297 36.1623 25.2248 36.1978 25.654 36.3142C27.172 36.6573 28.7914 36.6376 30.5143 36.2531L31.5835 35.975L31.5813 35.1783ZM43.4092 29.1947L44.1681 30.5279H49.0732V5.63803L7.08148 5.64001V30.5298H29.5778C23.3048 26.5916 22.2648 17.7626 27.5096 12.4656C31.9953 7.93179 39.263 7.93179 43.7489 12.4656C48.3555 17.1257 48.1992 24.7278 43.4092 29.1947ZM39.0738 30.4628C39.0991 30.4529 39.1245 30.4431 39.1479 30.4332C40.5722 29.9086 41.8443 29.0744 42.8941 28.0154C46.9095 23.9568 46.9095 17.3781 42.8941 13.3135C38.8786 9.25497 32.3659 9.25497 28.3485 13.3135C24.3331 17.3721 24.3331 23.9549 28.3485 28.0154C31.1523 30.8473 35.3276 31.8117 39.0738 30.4628ZM40.3127 33.9711L39.0445 31.7506C37.9655 32.0898 36.8164 32.2712 35.6281 32.2712C34.4302 32.2712 33.2712 32.0838 32.1864 31.7407H7.08123V33.9731L40.3127 33.9711ZM43.7487 32.5788C42.8804 32.3422 42.0005 32.8569 41.7702 33.7305C41.6707 34.1091 41.7059 34.5982 41.9107 34.9413C41.9263 34.9611 41.9361 34.9867 41.9497 35.0123L46.6246 43.1905C47.329 44.427 49.2079 44.2258 49.5864 42.7961C49.6918 42.3878 49.6508 41.9421 49.4264 41.5537L44.7321 33.3341C44.5135 32.9515 44.1545 32.6893 43.7487 32.5788ZM47.1611 35.178L50.4624 40.9541C51.237 42.3128 50.7766 44.0542 49.4284 44.8371C48.084 45.62 46.3612 45.1546 45.5866 43.7978L40.8922 35.5783C40.8181 35.4461 40.7576 35.316 40.703 35.1799L32.7757 35.1779V36.4203C32.7757 36.6728 32.6157 36.9094 32.3659 36.9903C31.9972 37.1106 31.6362 37.2171 31.2772 37.3137V40.2225L41.9867 42.8473C42.2715 42.8927 42.492 43.1451 42.492 43.4429V46.4563C42.492 46.829 42.1623 47.1268 41.7583 47.042L28.0829 44.715L14.4075 47.042C14.0036 47.1229 13.6739 46.829 13.6739 46.4563V43.4429C13.6739 43.1392 13.8944 42.8868 14.1792 42.8473L24.8887 40.2225V37.359C24.5297 37.2584 24.1687 37.1362 23.8195 37.0001C23.5697 36.9252 23.3844 36.6925 23.3844 36.4203V35.1779H6.4818C6.15206 35.1779 5.88281 34.9058 5.88281 34.5725V5.03853C5.88281 4.70524 6.15207 4.43311 6.4818 4.43311H49.6718C50.0015 4.43311 50.2708 4.70131 50.2708 5.03853V34.5725C50.2708 34.9058 50.0015 35.1779 49.6718 35.1779L47.1611 35.178ZM44.8939 31.7959C45.2432 32.0286 45.5437 32.3461 45.768 32.7346L46.4724 33.9672H49.0791V31.7348H44.8686L44.8939 31.7959ZM41.9263 31.6953C42.3399 31.4528 42.7945 31.3325 43.2394 31.3167L42.4746 29.9796C41.7643 30.5141 40.9956 30.9637 40.1761 31.3226L40.9409 32.6597C41.1712 32.2811 41.5165 31.9261 41.9263 31.6953ZM14.0001 13.146V8.20788C11.5475 8.50567 9.67441 10.6158 9.67441 13.146C9.67441 15.897 11.8772 18.1235 14.599 18.1235C17.1023 18.1235 19.19 16.2303 19.4846 13.7514H14.599C14.2693 13.7514 14.0001 13.4792 14.0001 13.146ZM18.9442 12.5405C18.6788 10.5764 17.1413 9.02232 15.198 8.75414V12.5405H18.9442ZM15.1941 7.5334C17.8008 7.81541 19.8749 9.90581 20.15 12.5425C20.4641 12.5583 20.7138 12.8206 20.7138 13.144C20.7138 16.5616 17.9725 19.3345 14.5951 19.3345C11.2178 19.3306 8.48044 16.5637 8.48044 13.146C8.48044 9.72841 11.2218 6.96155 14.5991 6.96155C14.9191 6.96155 15.1785 7.21393 15.1941 7.5334ZM9.07942 23.4661C8.74968 23.4661 8.48044 23.1979 8.48044 22.8646C8.48044 22.5313 8.74579 22.2592 9.07942 22.2592H17.5452C17.8749 22.2592 18.1442 22.5274 18.1442 22.8646C18.1442 23.1979 17.8788 23.4661 17.5452 23.4661H9.07942ZM9.07942 27.6016C8.74968 27.6016 8.48044 27.3334 8.48044 26.9961C8.48044 26.6629 8.74579 26.3947 9.07942 26.3947H21.6175C21.9472 26.3947 22.2165 26.6629 22.2165 26.9961C22.2165 27.3294 21.9511 27.6016 21.6175 27.6016H9.07942ZM30.1028 22.0779C29.773 22.0779 29.5038 21.8058 29.5038 21.4725C29.5038 21.1393 29.7691 20.8671 30.1028 20.8671H32.0051L32.9885 18.6603C33.2031 18.1851 33.8977 18.1713 34.0968 18.7116L35.0957 21.1708L36.3737 17.5757C36.5688 17.0314 37.3376 17.0551 37.5073 17.6053L38.7755 21.8315L39.0409 21.226C39.1404 21.0032 39.3609 20.8671 39.5852 20.8671H41.1481C41.4778 20.8671 41.747 21.1353 41.747 21.4725C41.747 21.8058 41.4778 22.078 41.1481 22.078H39.9696L39.2262 23.7799C38.996 24.3242 38.2565 24.2591 38.1023 23.7345L36.8888 19.7055L35.7044 23.0384C35.5191 23.5945 34.7913 23.5945 34.5806 23.0896L33.5075 20.4451L32.9475 21.6974C32.8617 21.9241 32.6431 22.0918 32.3875 22.0918L30.1028 22.0878L30.1028 22.0779ZM35.6281 12.4206C40.139 12.4206 43.7897 16.1104 43.7897 20.6699C43.7897 25.2234 40.1391 28.9192 35.6281 28.9192C31.117 28.9192 27.4665 25.2235 27.4665 20.6699C27.4665 16.1105 31.117 12.4206 35.6281 12.4206Z" fill="black" fill-opacity="0.8"/>
</svg>
