<svg width="67" height="69" viewBox="0 0 67 69" fill="none" xmlns="http://www.w3.org/2000/svg">
<rect x="25" y="29" width="16" height="14" fill="#7DBC44"/>
<path d="M42.637 24.1775H23.777C22.2095 24.1799 20.9375 25.4495 20.9375 27.017V45.877C20.9375 47.4445 22.2095 48.7142 23.777 48.7166H42.637C44.2045 48.7142 45.4742 47.4445 45.4766 45.877V27.017C45.4742 25.4495 44.2045 24.1799 42.637 24.1775ZM43.5828 45.8774C43.5828 46.3999 43.1595 46.8231 42.637 46.8231H23.777C23.2545 46.8231 22.8289 46.3999 22.8289 45.8774V27.0174C22.8289 26.4949 23.2545 26.0717 23.777 26.0717H42.637C43.1595 26.0717 43.5828 26.4949 43.5828 27.0174V45.8774Z" fill="#422006"/>
<path d="M40.7628 27.9461H25.6645C25.4139 27.9461 25.1727 28.0478 24.9954 28.2251C24.8181 28.4024 24.7188 28.6436 24.7188 28.8942V34.5544C24.7282 35.0698 25.1491 35.4836 25.6645 35.4836C26.1799 35.4836 26.6008 35.0698 26.6126 34.5544V29.8399H39.817V43.0444H26.6126V38.3394C26.6007 37.824 26.1799 37.4126 25.6645 37.4126C25.1491 37.4126 24.7282 37.824 24.7188 38.3394V43.9924C24.7188 44.2431 24.8181 44.4842 24.9954 44.6616C25.1727 44.8389 25.4139 44.9382 25.6645 44.9382H40.7628C41.0134 44.9382 41.2546 44.8389 41.4319 44.6616C41.6092 44.4842 41.7085 44.2431 41.7085 43.9924V28.8942C41.7085 28.6435 41.6092 28.4024 41.4319 28.225C41.2546 28.0477 41.0134 27.9461 40.7628 27.9461Z" fill="#422006"/>
<path d="M33.2101 31.7266C26.9728 31.9228 26.9704 40.9707 33.2101 41.1675C39.4473 40.9712 39.4497 31.9251 33.2101 31.7266ZM33.2101 33.6204C34.7587 33.6369 36.0071 34.8971 36.0071 36.4481C36.0071 37.9967 34.7587 39.2569 33.2101 39.2758C31.6615 39.2569 30.4131 37.9967 30.4131 36.4481C30.4131 34.8971 31.6615 33.637 33.2101 33.6204Z" fill="#422006"/>
<path d="M11.7193 29.1161C12.0787 28.745 12.0739 28.1563 11.7098 27.7898C11.3481 27.4257 10.757 27.4186 10.3858 27.7756C8.09478 30.0784 6.80859 33.1969 6.80859 36.4478C6.80859 39.6964 8.09478 42.8152 10.3834 45.12C10.757 45.4747 11.3456 45.4676 11.7098 45.1035C12.0739 44.737 12.0786 44.1483 11.7216 43.7771C9.78524 41.8289 8.69764 39.1951 8.69764 36.448C8.69764 33.7008 9.78529 31.0642 11.7193 29.1161Z" fill="#422006"/>
<path d="M12.4503 36.4484C12.4479 34.6965 13.1477 33.0178 14.3914 31.786C14.7484 31.4124 14.7413 30.8238 14.3772 30.4596C14.0131 30.0955 13.4244 30.0884 13.0532 30.4478C9.7479 33.765 9.7479 39.1297 13.0532 42.449C13.2305 42.6263 13.4693 42.7256 13.7223 42.7256C13.9729 42.7256 14.2141 42.6263 14.3914 42.449C14.5687 42.2716 14.668 42.0305 14.668 41.7799C14.668 41.5269 14.5687 41.2857 14.3914 41.1084C13.1478 39.8765 12.4479 38.198 12.4503 36.4484Z" fill="#422006"/>
<path d="M15.7109 33.1121C13.888 34.961 13.888 37.9329 15.7109 39.7821C16.0797 40.1415 16.6684 40.1391 17.0373 39.7774C17.4037 39.4156 17.4132 38.8269 17.0586 38.4534C15.9568 37.3422 15.9568 35.5524 17.0586 34.4411C17.4156 34.0676 17.4061 33.4765 17.0373 33.1148C16.6708 32.753 16.0798 32.7504 15.7109 33.1121Z" fill="#422006"/>
<path d="M56.1918 27.7763C55.8206 27.4193 55.2319 27.4264 54.8677 27.7905C54.5036 28.157 54.4989 28.7457 54.8583 29.1169C56.7923 31.0651 57.8799 33.7013 57.8799 36.4484C57.8799 39.1956 56.7923 41.8296 54.8559 43.7776C54.4871 44.1464 54.4847 44.747 54.8536 45.1181C55.2224 45.4869 55.823 45.4893 56.1941 45.1205C58.4827 42.8153 59.7689 39.6968 59.7689 36.4483C59.7689 33.1973 58.4828 30.0793 56.1918 27.7763Z" fill="#422006"/>
<path d="M53.52 30.4453C53.1488 30.0907 52.5602 30.0954 52.196 30.4595C51.8319 30.8236 51.8272 31.4123 52.1818 31.7859C54.7518 34.363 54.7518 38.5316 52.1818 41.1082C51.9194 41.3824 51.8414 41.7867 51.9856 42.1366C52.1322 42.4889 52.4727 42.7183 52.8509 42.7253C53.1039 42.7253 53.3427 42.626 53.5201 42.4487C56.8253 39.1292 56.8253 33.7646 53.52 30.4453Z" fill="#422006"/>
<path d="M50.8665 33.1121C50.4977 32.7527 49.909 32.755 49.5425 33.1168C49.1737 33.4785 49.1642 34.0672 49.5189 34.4408C50.6206 35.552 50.6206 37.3418 49.5189 38.453C49.3392 38.6303 49.2399 38.8739 49.2422 39.1245C49.2422 39.3775 49.3439 39.6186 49.5236 39.796C49.7033 39.9733 49.9444 40.0702 50.1974 40.0679C50.4504 40.0655 50.6892 39.9638 50.8665 39.7818C52.6894 37.9329 52.6894 34.9613 50.8665 33.1121Z" fill="#422006"/>
<path d="M25.2084 15.0275C25.459 15.0275 25.7001 14.9258 25.8799 14.7485C27.8281 12.8122 30.4619 11.7246 33.209 11.7246C35.9563 11.7246 38.5901 12.8122 40.5381 14.7485C40.9093 15.1055 41.498 15.1008 41.8645 14.7367C42.231 14.3726 42.2381 13.7839 41.881 13.4127C39.5758 11.1216 36.4573 9.83545 33.2088 9.83545C29.9579 9.83545 26.8415 11.1216 24.5366 13.4127C24.2742 13.6846 24.1962 14.0889 24.3427 14.4388C24.4893 14.7887 24.8277 15.0204 25.2084 15.0275Z" fill="#422006"/>
<path d="M38.542 17.6965C38.9203 17.6894 39.2608 17.4601 39.4074 17.1078C39.5516 16.7579 39.4759 16.3536 39.2111 16.0817C37.6223 14.4834 35.4637 13.585 33.2105 13.585C30.9573 13.585 28.7987 14.4834 27.2099 16.0793V16.0817C26.8528 16.4529 26.8576 17.0416 27.2217 17.4057C27.5881 17.7722 28.1768 17.7769 28.548 17.4199C31.1251 14.8499 35.2955 14.8499 37.8727 17.4199C38.0501 17.5972 38.2914 17.6965 38.542 17.6965Z" fill="#422006"/>
<path d="M29.8657 20.0754C30.043 20.2551 30.2842 20.3568 30.5348 20.3591C30.7854 20.3591 31.0266 20.2622 31.2063 20.0849C32.327 19.0139 34.0955 19.0139 35.2162 20.0849C35.3958 20.2622 35.637 20.3591 35.8876 20.3568C36.1383 20.3568 36.3794 20.2551 36.5568 20.0754C37.7602 18.4961 34.4052 17.2808 33.2113 17.3612C32.0196 17.2832 28.6623 18.4961 29.8657 20.0754Z" fill="#422006"/>
<path d="M40.5377 57.8832C38.5895 59.8196 35.9557 60.9071 33.2086 60.9071C30.4612 60.9071 27.8274 59.8196 25.8795 57.8832C25.5083 57.5262 24.9172 57.5309 24.5531 57.895C24.1866 58.2591 24.1795 58.8478 24.5365 59.219C26.8417 61.5101 29.9602 62.7963 33.2087 62.7963C36.4573 62.7963 39.5761 61.5101 41.881 59.219C42.238 58.8478 42.2309 58.2591 41.8644 57.895C41.5003 57.5309 40.9089 57.5262 40.5377 57.8832Z" fill="#422006"/>
<path d="M27.2063 55.2116C27.029 55.389 26.9297 55.6301 26.9297 55.8807C26.9297 56.1337 27.029 56.3725 27.2063 56.5499C28.7951 58.1481 30.9537 59.0466 33.2069 59.0466C35.4602 59.0466 37.6188 58.1481 39.2076 56.5522C39.5764 56.181 39.5764 55.5828 39.2052 55.214C38.8364 54.8452 38.2382 54.8452 37.8694 55.2117C35.2923 57.7817 31.1219 57.7817 28.5447 55.2117C28.3674 55.0344 28.1262 54.9351 27.8756 54.9351C27.625 54.9351 27.3837 55.0343 27.2063 55.2116Z" fill="#422006"/>
<path d="M36.557 52.5562C36.3797 52.3765 36.1385 52.2748 35.8879 52.2725C35.6373 52.2725 35.3961 52.3694 35.2164 52.5467C34.0957 53.6177 32.3272 53.6177 31.2065 52.5467C31.0269 52.3694 30.7857 52.2725 30.5351 52.2748C30.2821 52.2748 30.0433 52.3765 29.8659 52.5562C28.6625 54.1355 32.0175 55.3508 33.2114 55.2704C34.4031 55.3508 37.7605 54.1356 36.557 52.5562Z" fill="#422006"/>
</svg>
