<svg width="246" height="35" viewBox="0 0 246 35" fill="none" xmlns="http://www.w3.org/2000/svg">
<g clip-path="url(#clip0_408_162)">
<path d="M134.969 34.1881L138.36 29.9099C141.343 26.5413 144.327 22.8695 147.344 19.3661C147.458 19.2713 147.55 19.1527 147.612 19.0189C147.675 18.885 147.708 18.7391 147.708 18.5913C147.708 18.4436 147.675 18.2977 147.612 18.1638C147.55 18.0299 147.458 17.9114 147.344 17.8166L137.173 6.09376L134.562 2.96094H144.462C144.938 2.98867 145.386 3.19307 145.717 3.5336C147.988 6.06007 150.192 8.65391 152.497 11.2477L157.718 17.3113C158.973 18.7935 158.6 18.8608 157.718 19.8041C154.633 23.3748 151.582 26.9455 148.531 30.55C147.615 31.6279 146.7 32.7396 145.75 33.9186C145.464 34.2201 145.08 34.4111 144.666 34.4576C141.546 34.4576 138.394 34.4576 135.274 34.4576L134.969 34.1881Z" fill="#CF4149"/>
<path d="M161.008 16.3021L155.516 9.80067L161.144 3.06342C161.356 2.86436 161.632 2.74523 161.923 2.72656H172.094L172.264 3.02974L162.398 14.6515" fill="white"/>
<path d="M162.26 22.5032L172.431 34.3608H171.245C168.193 34.3608 165.176 34.3608 162.159 34.3608C161.683 34.333 161.235 34.1286 160.904 33.7881C159.277 31.969 157.514 30.0826 156.09 28.2299C155.969 28.1287 155.871 28.0024 155.805 27.8598C155.738 27.7172 155.703 27.5618 155.703 27.4045C155.703 27.2472 155.738 27.0919 155.805 26.9493C155.871 26.8067 155.969 26.6804 156.09 26.5792C157.684 24.7602 159.243 22.9074 160.837 21.0547" fill="white"/>
<path d="M239.391 30.1471C233.887 33.3242 227.635 34.9978 221.27 34.9978C214.904 34.9978 208.652 33.3242 203.148 30.1471C201.072 28.7487 199.371 26.8662 198.196 24.6641C197.021 22.462 196.406 20.0073 196.406 17.5147C196.406 15.0221 197.021 12.5675 198.196 10.3654C199.371 8.16327 201.072 6.28075 203.148 4.8824C208.609 1.68583 214.83 0 221.168 0C227.505 0 233.727 1.68583 239.187 4.8824C241.275 6.26417 242.991 8.13314 244.184 10.3259C245.377 12.5187 246.011 14.9685 246.032 17.4611C246.052 19.9538 245.457 22.4133 244.299 24.6248C243.141 26.8363 241.456 28.7323 239.391 30.1471ZM232.441 9.93534C228.973 8.07199 225.093 7.09626 221.151 7.09626C217.209 7.09626 213.329 8.07199 209.861 9.93534C208.554 10.7044 207.471 11.7984 206.719 13.1097C205.967 14.421 205.571 15.9043 205.571 17.4137C205.571 18.9231 205.967 20.4064 206.719 21.7177C207.471 23.029 208.554 24.123 209.861 24.892C213.344 26.7266 217.226 27.6858 221.168 27.6858C225.11 27.6858 228.992 26.7266 232.474 24.892C233.816 24.1508 234.934 23.0666 235.713 21.7517C236.491 20.4369 236.902 18.9391 236.902 17.4137C236.902 15.8882 236.491 14.3905 235.713 13.0756C234.934 11.7607 233.816 10.6766 232.474 9.93534H232.441Z" fill="white"/>
<path d="M32.8181 4.7831C31.6086 3.36079 30.0791 2.24147 28.3533 1.51577C26.6276 0.790077 24.7541 0.47841 22.8845 0.605997H0V34.2922H8.61133V7.88222H20.6808C24.9865 7.88222 26.5121 9.97077 26.5121 12.093C26.5121 14.2152 24.9865 16.4048 20.6808 16.4048H12.3746L8.61133 23.6811H22.8845C24.7523 23.7927 26.6208 23.4738 28.344 22.7492C30.0672 22.0246 31.5984 20.9139 32.8181 19.504C34.4999 17.3897 35.4404 14.7874 35.4964 12.093C35.4434 9.42882 34.5013 6.85761 32.8181 4.7831Z" fill="white"/>
<path d="M71.8435 22.4664C74.0527 21.7329 75.9835 20.3461 77.3772 18.4917C78.7708 16.6373 79.5608 14.404 79.6412 12.091C79.6262 10.5088 79.2863 8.94618 78.6422 7.49906C77.998 6.05195 77.0633 4.75077 75.8951 3.67528C74.727 2.59979 73.3502 1.77264 71.849 1.24452C70.3478 0.716408 68.7539 0.498457 67.1649 0.604015H43.0938V34.2903H51.7051V7.88024H64.9951C69.3008 7.88024 70.8264 9.96879 70.8264 12.091C70.8264 14.2133 69.3008 16.4029 64.9951 16.4029H55.2988L51.5356 23.6791H62.6897L70.2501 34.3913H80.1158L71.8435 22.4664Z" fill="white"/>
<path d="M106.455 0L83.7734 34.3936H93.2663L96.5549 29.1386L101.132 21.8624L106.455 13.5082L111.676 21.8624H101.132L104.827 29.1386H116.252L119.541 34.3936H129.136L106.455 0Z" fill="white"/>
<path d="M179.547 8.52564V34.3967H188.09V0.609375L179.547 8.52564Z" fill="white"/>
</g>
<defs>
<clipPath id="clip0_408_162">
<rect width="246" height="35" fill="white"/>
</clipPath>
</defs>
</svg>
