<svg width="66" height="61" viewBox="0 0 66 61" fill="none" xmlns="http://www.w3.org/2000/svg">
<path d="M23.5 35.5L27 43H39L42.5 35.5C47.3 31.9 46.5 24.3333 45.5 21C42.6667 16.6667 34.7 9.59999 25.5 16C16.3 22.4 20.3333 31.6667 23.5 35.5Z" fill="#7DBC44"/>
<path d="M39.5395 46.3559C39.5395 47.11 38.9208 47.7231 38.1543 47.7231L27.8463 47.7208C27.0823 47.7208 26.4612 47.1101 26.4612 46.3536C26.4612 45.5994 27.0799 44.9863 27.8463 44.9863H38.1567C38.9184 44.9887 39.5395 45.5994 39.5395 46.3559ZM37.4793 48.5883H28.5213C27.7573 48.5883 27.1362 49.199 27.1362 49.9555C27.1362 50.7097 27.7549 51.3228 28.5213 51.3228H37.4817C38.2458 51.3228 38.8669 50.7121 38.8669 49.9555C38.8645 49.1991 38.2434 48.5883 37.4793 48.5883ZM36.5817 52.188H29.4189C28.6548 52.188 28.0337 52.7987 28.0337 53.5552C28.0337 54.3093 28.6524 54.9224 29.4189 54.9224H30.7173C30.8884 56.0144 31.8423 56.8541 33.0001 56.8541C34.158 56.8541 35.1118 56.0143 35.283 54.9201H36.5814C37.3455 54.9201 37.9666 54.3094 37.9666 53.5529C37.9666 52.7987 37.3481 52.188 36.5817 52.188ZM34.2075 4.4901C34.0645 3.847 33.4176 3.43984 32.7661 3.58091C32.1145 3.72198 31.702 4.36052 31.8474 5.00363L33.0286 10.2805L34.2099 5.00363C34.2427 4.84169 34.245 4.66361 34.2075 4.4901ZM10.6647 26.0717C10.0131 26.2128 9.60062 26.8513 9.74594 27.4944C9.88891 28.1375 10.5358 28.5447 11.1873 28.4036L16.5334 27.2376L11.1873 26.0716C11.0209 26.0369 10.8404 26.0323 10.6647 26.0717ZM54.8139 28.4013C54.9779 28.436 55.1607 28.4406 55.3342 28.4013C55.9857 28.2602 56.3982 27.6217 56.2529 26.9786C56.1099 26.3354 55.463 25.9283 54.8115 26.0717L49.4654 27.2377L54.8139 28.4013ZM14.2485 15.2057C13.611 15.0068 12.9336 15.3561 12.7321 15.983C12.5305 16.6123 12.8844 17.2809 13.5196 17.4798L18.7391 19.1084L14.6985 15.4602C14.5742 15.3491 14.4196 15.2589 14.2485 15.2057ZM51.3033 39.0129C51.4275 39.1239 51.5822 39.2165 51.7556 39.2697C52.3931 39.4686 53.0704 39.1193 53.272 38.4924C53.4735 37.8631 53.1196 37.1946 52.4845 36.9956L47.265 35.367L51.3033 39.0129ZM22.8549 7.56237C22.4049 7.07656 21.6385 7.04185 21.1462 7.48834C20.654 7.93252 20.6189 8.68898 21.0712 9.17485L24.7674 13.1632L23.1174 8.01123C23.0635 7.84929 22.9767 7.69192 22.8549 7.56237ZM13.0677 37.2504C12.5755 37.6946 12.5403 38.4511 12.9927 38.9369C13.4427 39.4227 14.209 39.4574 14.7013 39.011L18.7419 35.3627L13.5224 36.9913C13.3583 37.0445 13.2012 37.1324 13.0677 37.2504ZM52.4823 17.4799C52.644 17.429 52.801 17.3434 52.9346 17.2231C53.4268 16.7789 53.4619 16.0225 53.0096 15.5366C52.5596 15.0508 51.7932 15.0161 51.301 15.4626L47.2603 19.1109L52.4823 17.4799ZM44.9307 9.17265C45.0432 9.05004 45.1369 8.89736 45.1908 8.72616C45.3924 8.09692 45.0385 7.42834 44.4033 7.22941C43.7658 7.03046 43.0885 7.37979 42.8869 8.00672L41.2369 13.1587L44.9307 9.17265ZM33.0009 14.4287C26.1219 14.4287 20.5275 19.9508 20.5275 26.7407C20.5275 29.5977 21.6501 32.3738 23.9611 35.2285C24.4837 35.874 25.0791 37.1024 25.9978 39.0503C26.5462 40.2139 27.1696 41.5349 27.5283 42.0762C27.5681 42.1387 27.6384 42.1757 27.7134 42.1757H38.3634C38.4408 42.1757 38.5111 42.1387 38.5509 42.0739C38.9001 41.5326 39.5024 40.2255 40.0322 39.0734C40.9322 37.1186 41.5158 35.8832 42.0361 35.2331C44.3494 32.3437 45.4744 29.5653 45.4744 26.7382C45.4744 19.9506 39.8797 14.4287 33.0009 14.4287ZM33.001 12.6797C40.8688 12.6797 47.2462 18.9745 47.2462 26.7405C47.2462 30.4419 45.5821 33.6275 43.4258 36.3181C42.6313 37.3082 40.9391 41.6273 40.0438 43.0133C39.6782 43.58 39.0454 43.9225 38.3633 43.9225H27.7134C27.0407 43.9225 26.4149 43.5893 26.0446 43.0341C25.1306 41.6553 23.3845 37.3177 22.5759 36.3205C20.4056 33.6393 18.7556 30.4445 18.7556 26.743C18.7556 18.9746 25.1332 12.6797 33.001 12.6797ZM43.1212 24.7671C43.1212 19.8905 39.1017 15.9204 34.1584 15.9204C33.6685 15.9204 33.2724 16.3113 33.2724 16.7949C33.2724 17.2784 33.6685 17.6694 34.1584 17.6694C38.124 17.6694 41.3488 20.8526 41.3488 24.7667C41.3488 25.2502 41.7449 25.6412 42.2347 25.6412C42.7246 25.6412 43.1207 25.2502 43.1207 24.7667L43.1212 24.7671Z" fill="black" fill-opacity="0.8"/>
</svg>
