<svg width="40" height="47" viewBox="0 0 40 47" fill="none" xmlns="http://www.w3.org/2000/svg">
<circle cx="21.0322" cy="23.5" r="8.11818" fill="#7DBC44"/>
<circle cx="34" cy="8" r="5" fill="#7DBC44"/>
<circle cx="32" cy="43" r="4" fill="#7DBC44"/>
<circle cx="8" cy="39" r="4" fill="#7DBC44"/>
<circle cx="9" cy="4" r="4" fill="#7DBC44"/>
<circle cx="4" cy="20" r="3" fill="#7DBC44"/>
<circle cx="36" cy="27" r="2" fill="#7DBC44"/>
<path d="M33.9032 13.5038C34.0556 13.5038 34.2099 13.4975 34.3649 13.4848C37.4414 13.2333 39.7316 10.5354 39.48 7.45896C39.2412 4.53716 36.7967 2.32485 33.9163 2.32485V3.81537C36.0306 3.81537 37.8222 5.46911 37.9947 7.58044C38.1788 9.833 36.496 11.8154 34.2434 11.9995C34.1305 12.0088 34.0161 12.0133 33.9032 12.0133C31.7885 12.0133 29.9969 10.3595 29.8244 8.2482C29.6403 5.99564 31.3231 4.01324 33.5757 3.82916C33.6886 3.81984 33.803 3.81537 33.9159 3.81537L33.9163 2.32485H33.9159C33.7635 2.32485 33.6092 2.33118 33.4542 2.34385C30.3778 2.59538 28.0876 5.29323 28.3391 8.36967C28.4434 9.64743 28.97 10.7895 29.77 11.6701L25.9669 16.1826C25.0674 15.5346 24.0345 15.0435 22.8946 14.7629C22.1821 14.5874 21.4693 14.5036 20.7672 14.5036C19.365 14.5036 18.0109 14.8453 16.795 15.456L12.2165 7.85954C12.9006 7.27227 13.4167 6.47596 13.647 5.5332C14.2331 3.13495 12.7642 0.715452 10.3656 0.12893C10.009 0.0417347 9.65201 0 9.30062 0C7.28841 0 5.46065 1.3683 4.96132 3.40995C4.37517 5.80821 5.84409 8.2277 8.24272 8.81422C8.59932 8.90142 8.9563 8.94315 9.3077 8.94315C9.87521 8.94315 10.4271 8.83062 10.9394 8.62865L15.5236 16.2333C14.0621 17.3035 12.9118 18.8183 12.3066 20.6479L7.44603 19.4514C7.36032 17.8539 6.24541 16.433 4.61105 16.0332C4.31369 15.9605 4.01633 15.9259 3.72307 15.9259C2.04623 15.9259 0.523656 17.0661 0.107427 18.7676C-0.381093 20.7667 0.842629 22.7823 2.8418 23.2708C3.13916 23.3435 3.43652 23.3781 3.72978 23.3781C5.27284 23.3781 6.68288 22.4112 7.22282 20.9314L11.9564 22.0967C11.4965 25.0088 12.4907 27.8672 14.4485 29.85L9.90838 35.2371C9.23988 34.8425 8.46555 34.6145 7.64464 34.6145C7.52242 34.6145 7.39908 34.6193 7.27536 34.6298C4.81413 34.831 2.98191 36.9893 3.18313 39.4505C3.37429 41.788 5.33023 43.5576 7.63458 43.5576C7.7568 43.5576 7.88015 43.5528 8.00386 43.5424C10.4651 43.3411 12.2973 41.1828 12.0961 38.7216C12.0171 37.7535 11.6318 36.8857 11.0479 36.1978L15.5817 30.8177C16.4812 31.4657 17.5142 31.9569 18.654 32.2375C19.3665 32.413 20.0794 32.4968 20.7814 32.4968C22.1836 32.4968 23.5377 32.1551 24.7533 31.5444L29.3322 39.1405C28.648 39.7277 28.1319 40.524 27.9016 41.4668C27.3155 43.8651 28.7844 46.2845 31.183 46.8711C31.5396 46.9583 31.8966 47 32.248 47C34.2602 47 36.088 45.6317 36.5873 43.59C37.1734 41.1918 35.7045 38.7723 33.3059 38.1858C32.9493 38.0986 32.5923 38.0568 32.2409 38.0568C31.673 38.0568 31.1215 38.1694 30.6088 38.3713L26.0254 30.7678C27.4869 29.6976 28.6372 28.1825 29.2427 26.3529L32.9061 27.2546C32.8897 28.62 33.803 29.866 35.1765 30.2044C35.4142 30.2629 35.6524 30.2908 35.8867 30.2908C37.2282 30.2908 38.4464 29.3723 38.7791 28.001C39.17 26.3901 38.1907 24.7658 36.5918 24.372C36.354 24.3135 36.1159 24.2855 35.8815 24.2855C34.8076 24.2855 33.8142 24.8754 33.2891 25.8137L29.5934 24.9037C30.0532 21.9916 29.0586 19.1331 27.1012 17.1504L30.911 12.6296C31.7811 13.1844 32.8103 13.5038 33.9032 13.5038ZM9.30807 7.453C9.07033 7.453 8.8311 7.42393 8.59709 7.36655C7.00074 6.9764 6.0196 5.3603 6.40974 3.76432C6.73691 2.42583 7.92598 1.4909 9.30099 1.4909C9.53873 1.4909 9.77759 1.51996 10.012 1.57698C11.6083 1.96712 12.5895 3.58322 12.1993 5.1792C11.8721 6.51807 10.6831 7.453 9.30807 7.453ZM5.89737 20.1825C5.65181 21.1863 4.76048 21.8876 3.72978 21.8876C3.55129 21.8876 3.37168 21.8656 3.1958 21.8228C2.61561 21.6812 2.1256 21.322 1.81594 20.8118C1.50629 20.3017 1.41387 19.7014 1.55547 19.1212C1.80104 18.1173 2.69237 17.416 3.72344 17.416C3.90156 17.416 4.08117 17.438 4.25705 17.4809C5.45431 17.7738 6.19026 18.9856 5.89737 20.1825ZM7.88275 42.057C7.8004 42.0638 7.71693 42.0671 7.63495 42.0671C6.09748 42.0671 4.79438 40.8643 4.66918 39.329C4.53541 37.6909 5.75913 36.2492 7.39721 36.1151C7.47957 36.1084 7.56304 36.105 7.64539 36.105C9.18286 36.105 10.4856 37.3079 10.6108 38.8431C10.7446 40.4816 9.52084 41.9233 7.88275 42.057ZM32.2413 39.5477C32.479 39.5477 32.7179 39.5768 32.9523 39.6342C34.5486 40.0243 35.5298 41.6404 35.1396 43.2364C34.8125 44.5749 33.6234 45.5098 32.2484 45.5098C32.0106 45.5098 31.7714 45.4808 31.5374 45.4238C30.7642 45.2348 30.111 44.756 29.6977 44.0756C29.2845 43.3952 29.1611 42.5947 29.35 41.8215C29.6768 40.4827 30.8659 39.5477 32.2413 39.5477ZM34.4372 26.9267C34.6015 26.2493 35.1955 25.7757 35.8815 25.7757C35.9993 25.7757 36.1185 25.7902 36.2352 25.8189C37.0363 26.016 37.5274 26.8369 37.3303 27.6489C37.166 28.3267 36.572 28.7999 35.8864 28.7999C35.7682 28.7999 35.6494 28.7854 35.5324 28.7567C34.7312 28.56 34.2401 27.7387 34.4372 26.9267ZM28.0007 25.2845C27.1832 28.6539 24.2144 31.007 20.7818 31.007C20.1889 31.007 19.5931 30.9344 19.0106 30.7909C15.0227 29.809 12.5727 25.738 13.5486 21.7162C14.3662 18.3469 17.3349 15.9941 20.768 15.9937C21.3605 15.9937 21.9563 16.0664 22.5387 16.2098C26.5262 17.1917 28.9767 21.2627 28.0007 25.2845Z" fill="black" fill-opacity="0.8"/>
</svg>
