<svg width="683" height="459" viewBox="0 0 683 459" fill="none" xmlns="http://www.w3.org/2000/svg">
<rect x="332.674" y="108.71" width="350.289" height="350.289" rx="175.145" fill="#7DBC44"/>
<path d="M93.1588 387.032C93.1588 387.032 25.4907 338.845 6.01054 256.823C-13.4703 174.802 16.2625 75.3504 72.6528 25.1119C129.043 -25.1254 230.544 8.70807 275.656 50.744C320.767 92.78 320.767 92.78 320.767 92.78C320.767 92.78 363.829 116.361 420.22 114.31C476.609 112.26 526.846 189.155 540.175 249.647C553.503 310.137 521.72 390.107 521.72 390.107L93.1588 387.032Z" fill="#D1EBFA"/>
<path d="M54.7111 394.308C40.8208 384.246 12.1342 358.699 2.93517 314.237C-0.882525 295.786 1.61837 277.825 7.03656 260.941C20.5881 312.956 53.2646 350.877 74.2451 370.885H54.7111V394.308ZM529.346 370.885H528.325C533.315 354.802 539.73 330.374 542.301 304.402C543.818 317.939 542.551 331.979 538.124 348.072C535.661 357.03 532.61 364.571 529.346 370.885ZM510.317 178.232C487.919 142.583 456.37 114.271 422.432 114.271C421.697 114.271 420.956 114.284 420.22 114.31C417.869 114.396 415.546 114.437 413.244 114.437C360.319 114.437 320.768 92.7802 320.768 92.7802C320.768 92.7802 320.768 92.7802 275.657 50.7442C273.211 48.4659 270.597 46.2075 267.837 43.9899C293.119 30.9124 323.076 2.93509 366.71 2.93509C372.665 2.93509 378.873 3.45542 385.361 4.60756C448.926 15.885 510.443 49.7184 513.519 123.539C514.564 148.621 512.532 165.417 510.317 178.232Z" fill="#D1EAF9"/>
<path d="M528.325 370.885H439.911C448.498 348.062 458.054 315.943 455.232 291.681C450.344 249.647 426.873 209.661 378.954 178.902C360.795 167.246 332.244 158.682 301.176 156.837C303.072 145.26 303.156 133.053 302.571 126.614C301.546 115.336 296.163 106.108 296.163 106.108C296.163 106.108 286.043 100.368 273.107 100.368C269.192 100.368 265.018 100.895 260.791 102.264C242.592 108.158 236.185 136.353 238.235 151.22C238.82 155.457 239.878 159.098 241.279 162.297C209.955 170.445 181.121 187.733 162.833 217.862C135.981 262.101 137.686 308.588 144.893 341.458V370.885H74.2456C53.2652 350.877 20.5887 312.956 7.03711 260.941C19.0803 223.416 45.5372 191.207 49.0725 170.7C54.1991 140.967 42.9211 104.057 90.0839 75.3505C137.245 46.6422 221.318 56.8951 253.101 49.7183C257.873 48.6405 262.761 46.6162 267.838 43.9898C270.598 46.2074 273.212 48.4658 275.657 50.7441C320.768 92.78 320.768 92.7801 320.768 92.7801C320.768 92.7801 360.319 114.437 413.245 114.437C415.546 114.437 417.869 114.396 420.221 114.31C420.957 114.284 421.697 114.271 422.432 114.271C456.371 114.271 487.92 142.582 510.317 178.232C506.015 203.131 501.027 212.995 516.595 239.394C530.923 263.689 539.952 283.442 542.301 304.402C539.73 330.374 533.316 354.802 528.325 370.885Z" fill="#B0D6F2"/>
<path d="M439.909 370.885H353.825C355.257 365.731 358.701 346.791 358.701 346.791C358.701 346.791 329.481 321.757 327.944 317.655C326.918 314.921 327.431 264.257 323.073 240.931C318.716 217.606 313.077 212.907 301.287 207.098C289.102 201.093 271.04 195.477 271.04 195.477C271.04 195.477 274.629 203.765 277.961 223.245C281.294 242.726 284.369 275.534 285.139 298.09C285.836 318.541 286.322 362.801 286.407 370.885H250.162C250.777 365.098 253.197 341.57 252.073 339.101C251.579 338.011 239.616 337.382 225.118 337.018V244.52C225.118 244.52 210.374 243.491 194.33 243.491C179.355 243.491 163.248 244.388 156.937 247.851C143.866 255.028 144.89 279.892 144.89 279.892V341.458C137.684 308.588 135.979 262.101 162.83 217.862C181.118 187.733 209.953 170.445 241.277 162.297C241.417 162.615 241.559 162.93 241.705 163.239C240.677 171.413 238.654 186.705 237.72 188.386C236.439 190.693 236.439 190.693 236.439 190.693L230.03 195.051C230.03 195.051 242.333 212.481 257.456 215.299C259.51 215.683 261.261 215.848 262.754 215.848C272.254 215.848 271.297 209.148 271.297 209.148L268.99 204.278L271.002 186.85C272.579 187.094 274.182 187.226 275.78 187.226C282.423 187.226 288.991 184.957 293.34 179.159C297.299 173.88 299.749 165.536 301.173 156.837C332.242 158.682 360.792 167.246 378.952 178.902C426.871 209.661 450.341 249.647 455.23 291.681C458.052 315.943 448.495 348.062 439.909 370.885Z" fill="#E2E2E2"/>
<path d="M498.268 241.017H442.987C439.568 241.017 436.793 238.243 436.793 234.823V207.226C436.793 203.805 439.568 201.031 442.987 201.031H498.268C501.689 201.031 504.462 203.805 504.462 207.226V234.823C504.462 238.243 501.689 241.017 498.268 241.017Z" fill="#599FDC"/>
<path d="M470.629 256.652L479.389 235.89H461.869L470.629 256.652Z" fill="#599FDC"/>
<path d="M470.418 214.158H486.242V216.474L494 212L486.242 207.528V209.843H470.418V214.158Z" fill="white"/>
<path d="M494 223.258H478.176V220.942L470.418 225.414L478.176 229.887V227.571H494V223.258Z" fill="white"/>
<path d="M460.705 227.327L459.951 227.602C459.951 227.602 457.604 224.921 456.385 222.001C455.166 219.083 455.124 215.517 455.124 215.517L455.675 215.287L452.328 207.279C451.732 207.745 451.163 208.344 450.703 209.121C448.81 212.321 448.997 217.232 450.903 222.03C452.807 226.827 454.844 231.106 458.56 233.797C460.753 235.385 462.632 235.662 464.092 235.432L460.705 227.327Z" fill="white"/>
<path d="M463.109 226.384L462.068 226.762L465.493 234.961C465.88 234.835 466.227 234.679 466.528 234.514C467.413 234.03 467.802 232.965 467.429 232.029L465.64 227.521C465.242 226.521 464.121 226.015 463.109 226.384Z" fill="white"/>
<path d="M454.944 205.875C454.523 206.026 454.064 206.232 453.604 206.503L457.02 214.682L458.17 214.201C459.168 213.785 459.652 212.648 459.258 211.641L457.461 207.03C457.072 206.029 455.955 205.51 454.944 205.875Z" fill="white"/>
<path d="M144.892 372.166V279.893C144.892 279.893 143.867 255.028 156.939 247.852C170.011 240.675 225.12 244.52 225.12 244.52V372.166H144.892Z" fill="black"/>
<path d="M242.334 158.14C242.334 158.14 239.003 186.079 237.721 188.386C236.44 190.693 236.44 190.693 236.44 190.693L230.031 195.051C230.031 195.051 242.334 212.481 257.457 215.299C272.58 218.119 271.298 209.148 271.298 209.148L268.991 204.278L272.068 177.62C272.068 177.62 244.641 165.062 242.334 158.14Z" fill="#FFCDAD"/>
<path d="M222.086 197.358L232.082 192.999C232.082 192.999 238.491 203.509 253.357 209.661C268.224 215.812 268.48 212.224 269.248 209.661C270.018 207.098 268.992 204.278 268.992 204.278L270.092 195.304L276.037 197.285L296.674 364.219L243.617 366.783L222.086 197.358Z" fill="white"/>
<path d="M270.422 195.586C270.422 195.586 274.632 203.765 277.963 223.245C281.297 242.727 284.371 275.534 285.141 298.09C285.909 320.646 286.423 372.166 286.423 372.166C286.423 372.166 352.551 372.166 353.322 372.166C354.09 372.166 358.703 346.791 358.703 346.791C358.703 346.791 329.484 321.758 327.946 317.656C326.92 314.921 327.433 264.257 323.075 240.931C318.718 217.606 313.08 212.907 301.289 207.098C289.104 201.093 270.422 195.586 270.422 195.586Z" fill="#106FB1"/>
<path d="M305.9 342.796C305.559 342.796 305.281 342.518 305.281 342.176C305.281 340.344 304.955 314.307 304.642 289.127C304.326 263.943 304 237.902 304 236.061C304 235.718 304.278 235.442 304.619 235.442C304.961 235.442 305.239 235.718 305.239 236.061C305.239 237.894 305.565 263.931 305.879 289.111C306.194 314.295 306.52 340.336 306.52 342.176C306.52 342.518 306.244 342.796 305.9 342.796Z" fill="#788CBD"/>
<path d="M172.615 336.537L172.104 372.166H250.023C250.023 372.166 253.356 341.92 252.074 339.102C250.793 336.281 172.615 336.537 172.615 336.537Z" fill="#106FB1"/>
<path d="M270.239 193.473C266.856 192.231 262.512 190.177 259.337 187.618C253.775 183.133 250.212 177.791 247.902 172.551C250.473 175.473 253.317 178.002 256.175 180.44C259.795 183.527 265.227 185.952 271.003 186.85L270.239 193.473Z" fill="#945168"/>
<path d="M296.162 106.108C296.162 106.108 301.545 115.336 302.57 126.614C303.596 137.892 302.57 166.856 293.341 179.159C284.114 191.462 264.891 187.873 256.176 180.44C248.179 173.619 240.285 166.086 238.234 151.22C236.184 136.354 242.591 108.158 260.79 102.264C278.988 96.368 296.162 106.108 296.162 106.108Z" fill="#FFCDAD"/>
<path d="M319.286 356.052C319.286 356.052 318.381 356.052 317.006 356.015C316.684 356.002 316.325 356.015 315.952 356.002C314.627 355.965 313.017 355.929 311.394 355.88C311.035 355.866 310.663 355.854 310.304 355.841C308.693 355.804 307.318 356.002 306.03 355.929H305.993C305.72 355.915 305.324 355.953 305.001 355.965C304.84 355.979 304.692 355.99 304.593 355.979C303.849 355.841 303.701 355.669 302.895 355.31C301.855 354.838 287.768 351.692 276.308 351.765C264.862 351.815 254.592 352.595 252.919 351.195C251.235 349.771 250.219 335.389 259.993 334.446L272.01 339.005C272.01 339.005 299.451 335.748 309.511 343.168C319.595 350.588 319.286 356.052 319.286 356.052Z" fill="#FFCDAD"/>
<path d="M305.991 355.929C305.718 355.916 305.322 355.953 305 355.965C304.752 355.57 304.23 354.85 303.947 354.553C300.849 351.394 293.367 349.35 290.654 348.693C290.406 348.631 290.243 348.383 290.307 348.137C290.356 347.888 290.616 347.739 290.877 347.789C294.829 348.742 303.216 351.184 305.594 355.185C305.669 355.296 305.867 355.68 305.991 355.929Z" fill="#293D8A"/>
<path d="M311.396 355.878C311.036 355.87 310.665 355.86 310.305 355.839C306.923 349.671 301.391 347.901 294.553 345.702L294.148 345.567C293.914 345.488 293.772 345.224 293.853 344.979C293.933 344.744 294.184 344.602 294.442 344.683L294.835 344.816C302.065 347.137 307.882 349.001 311.396 355.878Z" fill="#293D8A"/>
<path d="M317.006 356.014C316.684 356.006 316.325 356.009 315.952 356.001C313.901 351.688 307.114 344.472 298.133 342.79C297.874 342.746 297.706 342.507 297.749 342.248C297.805 342 298.044 341.834 298.292 341.878C307.542 343.615 315.005 351.17 317.006 356.014Z" fill="#293D8A"/>
<path d="M244.385 138.533C244.385 138.533 250.025 135.841 253.998 128.28C257.971 120.719 257.458 113.926 257.458 113.926C257.458 113.926 264.635 112.773 275.4 115.977C286.165 119.18 298.981 123.539 309.747 117.387C320.512 111.234 320.512 101.367 315.257 97.2661C309.372 92.6724 297.7 95.471 297.7 95.471C297.7 95.471 302.185 91.1139 299.75 88.5507C297.315 85.9875 288.473 89.32 288.473 89.32C288.473 89.32 277.707 80.7334 257.33 81.758C236.952 82.7838 227.212 97.0097 226.059 112.901C224.905 128.793 230.674 144.684 230.674 144.684L244.385 138.533Z" fill="#262626"/>
<path d="M286.12 164.675C285.884 164.675 285.638 164.669 285.376 164.658C283.867 164.6 281.971 164.351 280.676 163.541C280.293 163.3 280.438 162.675 280.908 162.675C280.909 162.675 280.909 162.675 280.91 162.675C281.716 162.678 282.502 162.921 283.306 162.982C284.053 163.036 284.809 163.068 285.557 163.103C285.992 163.123 286.508 163.163 287.033 163.163C287.819 163.163 288.623 163.073 289.196 162.694C291.698 161.038 286.833 158.994 285.804 158.236C283.651 156.649 284.083 153.908 284.309 151.558C284.6 148.537 284.571 145.231 285.726 142.384C285.809 142.181 286.022 142.073 286.219 142.073C286.442 142.073 286.646 142.211 286.62 142.506C286.294 146.133 285.456 149.713 285.228 153.358C285.131 154.875 285.02 156.51 286.376 157.481C287.355 158.182 288.544 158.517 289.514 159.235C290.355 159.86 291.194 160.862 291.044 161.98C290.913 162.973 290.103 163.559 289.266 163.974C288.144 164.532 287.25 164.675 286.12 164.675Z" fill="#945168"/>
<path d="M296.203 150.908C295.821 153.068 294.25 154.596 292.692 154.321C291.136 154.046 290.185 152.07 290.567 149.911C290.949 147.75 292.52 146.221 294.078 146.496C295.634 146.771 296.586 148.747 296.203 150.908Z" fill="#262626"/>
<path d="M276.59 149.196C276.243 151.527 274.601 153.213 272.921 152.964C271.242 152.714 270.161 150.622 270.508 148.291C270.855 145.96 272.498 144.272 274.178 144.523C275.856 144.773 276.937 146.865 276.59 149.196Z" fill="#262626"/>
<path d="M291.637 142.002C292.835 142.203 294.044 141.997 295.252 142.082C295.544 142.102 295.83 142.145 296.121 142.174C296.326 142.192 295.736 142.112 296.023 142.159L296.208 142.19C296.359 142.217 296.51 142.248 296.659 142.284C296.916 142.347 297.165 142.444 297.423 142.501C297.657 142.552 297.917 142.606 298.153 142.595C298.285 142.578 298.415 142.56 298.548 142.542L298.299 142.588L298.789 142.534C299.477 142.373 299.901 141.578 299.709 140.914C299.653 140.723 299.569 140.55 299.447 140.392L299.29 140.193L299.435 140.359L299.276 140.148C299.208 140.034 299.118 139.943 299.002 139.874L298.713 139.654C298.395 139.433 297.978 139.305 297.601 139.208C296.886 139.023 296.136 138.929 295.4 138.925C294.666 138.922 293.943 138.999 293.218 139.099C292.579 139.187 291.868 139.405 291.349 139.79C290.949 140.089 290.702 140.472 290.771 140.996C290.83 141.429 291.172 141.922 291.637 142.002Z" fill="#262626"/>
<path d="M277.965 138.572C277.803 138.476 277.637 138.392 277.465 138.313C277.32 138.248 276.924 138.04 277.223 138.203L276.894 138.027C276.397 137.777 275.882 137.61 275.345 137.474C274.176 137.175 272.944 137.099 271.745 137.226C270.465 137.361 269.297 137.671 268.188 138.338C268.032 138.434 267.871 138.525 267.741 138.655C267.653 138.767 267.566 138.88 267.482 138.994L267.555 138.882C267.213 139.121 267.014 139.513 267.018 139.927C267.02 140.324 267.227 140.656 267.573 140.848C267.99 141.081 268.387 140.97 268.818 140.859C268.601 140.859 268.384 140.859 268.169 140.859C268.524 140.914 268.774 140.929 269.134 140.849C269.147 140.847 269.479 140.764 269.26 140.81C269.054 140.854 269.609 140.768 269.67 140.759C269.741 140.749 270.126 140.711 269.718 140.75L269.944 140.724C270.136 140.701 270.33 140.676 270.524 140.661C271.37 140.593 272.213 140.555 273.061 140.527C273.848 140.501 274.649 140.495 275.434 140.529C275.773 140.543 276.107 140.555 276.445 140.565C276.634 140.569 276.554 140.599 276.424 140.558L276.635 140.613C276.775 140.651 276.912 140.697 277.047 140.749C277.595 140.957 278.25 140.562 278.452 140.059C278.673 139.511 278.486 138.882 277.965 138.572Z" fill="#262626"/>
<path d="M284.052 174.203C285.229 171.838 287.368 170.105 289.842 168.99C287.695 168.772 277.555 167.833 274.997 169.286C272.13 170.913 275.527 177.448 281.454 177.776C282.077 177.811 282.643 177.76 283.182 177.676C283.23 176.483 283.506 175.302 284.052 174.203Z" fill="#262626"/>
<path d="M237.209 160.448C237.209 160.448 238.235 164.421 244.129 169.035C250.025 173.648 258.57 177.023 258.57 177.023L259.252 174.032C259.252 174.032 250.409 170.187 246.308 165.959C242.208 161.729 241.695 159.422 241.695 159.422L237.209 160.448Z" fill="#D6DCEB"/>
<path d="M260.277 171.82C265.022 171.599 267.669 175.351 268 177.778C268.331 180.206 266.052 182.927 260.718 180.536C254.094 177.567 255.534 172.04 260.277 171.82Z" fill="#8C8585"/>
<path d="M240.926 131.1C240.926 131.1 242.975 116.369 252.845 106.364C271.685 87.2697 287.704 88.4219 287.704 88.4219C287.704 88.4219 287.575 85.7311 281.552 83.6807C275.897 81.7555 273.351 82.7838 273.351 82.7838C273.351 82.7838 257.843 84.0648 244.771 98.5471C231.699 113.029 230.289 131.484 230.289 131.484L240.926 131.1Z" fill="#D6DCEB"/>
<path d="M239.515 129.304C227.173 127.213 220.291 136.866 219.778 146.606C219.265 156.346 226.343 163.751 235.798 163.01C257.073 161.345 254.637 131.869 239.515 129.304Z" fill="white"/>
<path d="M233.37 153.545C230.112 153.545 227.358 151.908 225.784 149.025C224.098 145.936 224.24 142.134 226.145 139.338C226.29 139.129 226.577 139.073 226.79 139.217C227.002 139.362 227.058 139.65 226.913 139.862C225.202 142.372 225.08 145.794 226.6 148.579C228.043 151.223 230.59 152.72 233.607 152.613C236.426 152.537 238.816 151.247 240.336 148.98C242.071 146.392 242.47 142.819 241.352 139.878C240.243 136.959 237.203 134.97 234.439 135.332C234.189 135.364 233.951 135.187 233.918 134.931C233.883 134.677 234.061 134.445 234.317 134.41C237.55 133.979 240.946 136.189 242.22 139.547C243.442 142.762 243.005 146.667 241.108 149.497C239.416 152.022 236.761 153.457 233.631 153.542L233.37 153.545Z" fill="#7588BB"/>
<path d="M227.216 195.586C227.216 195.586 186.972 202.996 173.899 217.862C160.827 232.729 154.676 306.036 154.419 319.62C154.163 333.206 163.646 338.845 169.286 342.689C174.925 346.535 199.786 353.455 219.779 354.481C239.772 355.505 258.74 354.481 258.74 354.481C258.74 354.481 258.676 350.122 261.751 343.714C264.604 337.771 268.224 336.537 268.224 336.537L251.051 330.386C251.051 330.386 248.044 276.503 243.361 250.416C237.978 220.425 227.216 195.586 227.216 195.586Z" fill="#106FB1"/>
<path d="M286.613 322.82L286.362 322.766C286.049 322.628 285.907 322.262 286.046 321.95C289.553 314.038 293.186 298.508 295.232 287.612L295.4 286.731C296.019 283.526 296.79 279.541 295.252 276.79C294.468 275.386 292.698 272.341 290.994 269.413C289.226 266.374 287.556 263.503 287.093 262.647C286.191 260.973 289.033 256.503 293.147 250.372C294.257 248.714 295.219 247.283 295.779 246.315C297.245 243.777 296.268 241.453 295.138 238.762L294.754 237.836C293.73 235.32 292.564 232.8 291.439 230.363C290.979 229.368 290.518 228.371 290.065 227.369C289.463 226.044 288.86 224.696 288.248 223.334C284.625 215.259 280.88 206.91 276.083 198.844C275.908 198.55 276.005 198.17 276.299 197.995C276.594 197.822 276.973 197.917 277.149 198.212C281.98 206.338 285.74 214.72 289.377 222.826C289.988 224.188 290.591 225.534 291.192 226.858C291.646 227.857 292.104 228.852 292.563 229.844C293.695 232.293 294.866 234.827 295.901 237.369L296.28 238.283C297.434 241.027 298.626 243.865 296.85 246.934C296.269 247.94 295.299 249.387 294.176 251.061C292.031 254.258 287.566 260.913 288.183 262.057C288.637 262.897 290.302 265.76 292.064 268.79C293.772 271.725 295.547 274.778 296.334 276.185C298.093 279.332 297.274 283.565 296.617 286.967L296.449 287.84C295.703 291.808 291.756 312.124 287.18 322.45C287.077 322.683 286.85 322.82 286.613 322.82Z" fill="#788CBD"/>
<path d="M250.285 324.273C250.124 324.273 249.963 324.213 249.842 324.094C246.909 321.2 232.762 297.227 231.709 292.719C231.133 290.251 232.58 283.991 233.98 277.937C235.064 273.246 236.186 268.396 235.866 267.083C235.39 265.121 231.773 262.228 228.274 259.432C224.048 256.054 219.678 252.559 218.832 249.412C217.87 245.835 218.693 223.443 219.237 208.627C219.432 203.299 219.587 199.091 219.586 197.59C219.586 197.253 219.865 196.98 220.21 196.98C220.554 196.98 220.834 197.252 220.834 197.589C220.835 199.113 220.68 203.331 220.483 208.671C219.975 222.52 219.124 245.697 220.039 249.102C220.783 251.864 225.182 255.382 229.064 258.486C232.892 261.547 236.507 264.437 237.081 266.801C237.466 268.389 236.414 272.939 235.196 278.205C233.891 283.851 232.413 290.248 232.926 292.446C233.959 296.867 247.847 320.391 250.728 323.232C250.97 323.472 250.969 323.858 250.725 324.095C250.602 324.213 250.444 324.273 250.285 324.273Z" fill="#788CBD"/>
<path d="M199.531 313.319L199.444 313.313C199.104 313.265 198.869 312.951 198.916 312.613C199.371 309.391 206.482 245.218 206.808 240.303C206.831 239.96 207.126 239.692 207.468 239.726C207.809 239.748 208.066 240.044 208.044 240.385C207.717 245.308 200.599 309.561 200.143 312.787C200.099 313.095 199.834 313.319 199.531 313.319Z" fill="#788CBD"/>
<path d="M250.537 330.748L250.304 330.703C248.728 330.065 241.767 327.716 232.954 324.745C215.166 318.746 190.804 310.531 186.172 308.124C185.868 307.966 185.75 307.592 185.908 307.289C186.065 306.984 186.437 306.862 186.743 307.025C191.291 309.387 216.602 317.923 233.35 323.57C242.183 326.551 249.159 328.902 250.77 329.555C251.087 329.684 251.239 330.044 251.11 330.361C251.013 330.602 250.781 330.748 250.537 330.748Z" fill="#788CBD"/>
<path d="M241.983 356.301C226.328 356.301 195.979 353.479 172.923 345.324C172.6 345.209 172.431 344.856 172.545 344.533C172.658 344.212 173.016 344.042 173.336 344.156C202.462 354.459 243.205 356.218 250.786 354.516C251.119 354.444 251.45 354.652 251.526 354.985C251.601 355.318 251.391 355.65 251.057 355.726C249.416 356.093 246.243 356.301 241.983 356.301Z" fill="#788CBD"/>
<path d="M62.801 202.412C67.6611 206.686 73.8163 209.427 78.0812 214.37C79.7589 216.315 81.2663 218.385 82.8247 220.424C83.9586 221.908 86.9852 224.37 87.4758 226.236C87.6926 227.057 87.6467 225.945 87.4287 225.121L87.3928 225.018C86.9666 221.241 86.6618 217.448 86.5293 213.649C86.3967 209.859 86.6333 206.055 86.3955 202.271C86.061 196.933 84.3947 191.764 80.0314 188.421C77.8987 186.785 75.1582 185.79 73.1973 183.977C71.3366 182.255 72.0832 180.282 73.1774 178.362C74.2009 176.565 75.4423 174.799 75.841 172.73C76.2945 170.379 75.4108 167.953 74.2179 165.951C71.6802 161.69 66.0506 156.939 60.7201 157.575C56.2737 158.107 55.77 163.236 55.8333 166.809C55.8952 170.282 56.2389 173.745 56.2718 177.221C56.3066 180.792 55.6992 184.295 55.6484 187.849C55.5623 193.896 58.3561 198.504 62.801 202.412Z" fill="#7DBC44"/>
<path d="M107.957 257.891C109.31 254.664 110.862 251.647 112.771 248.713C115.39 244.686 118.295 240.763 120.053 236.253C121.85 231.65 121.586 226.726 121.763 221.877C121.892 218.316 122.951 214.763 122.665 211.191C122.528 209.478 121.541 206.706 119.325 206.99C117.6 207.211 116.576 209.349 115.913 210.713C114.756 213.094 113.954 215.634 113.095 218.131C112.76 219.109 112.439 220.103 112.015 221.046C111.769 221.595 110.985 222.933 110.245 222.751C108.985 222.44 110.129 217.297 110.316 216.387C111.256 211.813 112.672 207.562 112.869 202.856C113.154 196.032 112.624 187.909 105.95 184.178C104.204 183.203 101.994 182.622 100.337 184.081C98.7014 185.519 98.2393 188.014 97.9965 190.067C97.2519 196.369 98.7348 202.337 100.754 208.266C102.422 213.162 104.409 218.214 104.554 223.45C104.694 228.489 102.071 232.955 100.841 237.716C98.8798 245.303 99.2849 249.326 99.2762 251.782C99.2626 254.861 99.3753 257.906 99.5996 260.975C99.8077 263.796 100.052 266.618 100.396 269.425C100.467 269.994 100.531 270.587 100.607 271.181C99.5227 268.57 99.1436 265.581 98.2455 262.958C96.651 258.295 94.7977 253.729 93.2665 249.043C92.0016 245.172 90.8073 241.274 89.1361 237.553C87.5702 234.061 85.6784 230.37 82.7562 227.808C80.9898 226.259 78.8484 225.354 76.4859 225.372C74.975 225.383 73.6171 225.906 72.174 226.288C70.398 226.757 69.0009 226.595 67.5399 225.473C62.7567 221.796 61.302 215.204 57.7611 210.548C55.1198 207.076 48.8534 201.156 44.2453 204.943C41.801 206.952 41.1269 210.833 41.2551 213.809C41.4162 217.541 43.0475 220.956 44.9906 224.078C47.057 227.397 49.7244 230.369 51.6233 233.782C52.7461 235.797 52.9218 237.729 52.7431 240.003C52.5758 242.145 52.3885 244.22 53.1186 246.287C55.3114 252.492 62.1585 251.626 67.4838 251.789C71.2101 251.901 75.2078 252.456 78.7453 253.648C82.8341 255.025 85.4938 257.686 86.9557 261.729C88.0124 264.657 88.5786 267.979 90.5707 270.466C91.5073 271.635 92.7474 272.499 94.1114 273.102C96.1877 274.019 102.52 274.42 102.567 273.842C102.723 271.905 103.641 269.863 104.216 268.025C105.293 264.58 106.561 261.219 107.957 257.891Z" fill="#7DBC44"/>
<path d="M137.357 256.722C136.805 253.174 136.911 249.264 135.231 246.006C135.111 245.773 134.793 245.713 134.577 245.833C133.373 246.501 133.323 248.446 133.224 249.638C133.062 251.615 133.183 253.597 132.939 255.57C132.513 259.034 131.712 262.604 130.464 265.868C129.053 269.563 126.484 271.656 122.755 272.81C120.359 273.549 118.009 274.195 116.01 275.784C114.218 277.209 112.975 279.173 112.052 281.24C109.563 286.824 108.377 293.065 107.223 299.03C106.446 303.047 105.811 307.082 104.836 311.059C103.861 315.032 102.815 318.985 102.256 323.045C102.162 323.249 102.061 323.452 101.975 323.659C101.719 324.266 102.668 324.594 102.996 324.089C106.846 318.163 111.535 312.845 117.933 309.582C120.822 308.109 124.66 307.803 127.069 305.487C128.903 303.726 129.154 301.037 128.88 298.641C128.52 295.493 127.012 292.903 125.44 290.221C124.578 288.747 123.558 287.168 123.906 285.377C124.235 283.687 125.64 282.446 127.033 281.58C129.693 279.928 132.803 279.185 134.981 276.805C137.004 274.595 138.125 271.845 138.349 268.866C138.648 264.897 137.964 260.642 137.357 256.722Z" fill="#7DBC44"/>
<path d="M84.8709 277.179C81.4745 272.804 77.3742 269.03 72.7618 265.966C70.3005 264.332 64.4938 261.108 63.3222 265.929C62.635 268.755 65.4007 271.535 67.2208 273.307C69.9565 275.969 73.1204 278.266 75.4283 281.335C72.5706 282.245 69.5848 282.423 67.1018 284.398C64.1623 286.738 62.8437 291.255 65.7583 294.121C67.1787 295.517 69.0621 296.374 70.8309 297.232C73.1301 298.344 75.4718 299.354 77.8286 300.339C82.9176 302.463 88.0709 304.62 92.4107 308.103C96.8334 311.651 100.992 317.651 101.343 323.44C101.378 323.992 101.167 323.489 101.497 323.237C101.677 323.399 102.284 323.108 102.281 322.786C102.19 314.194 100.647 306.015 97.1357 298.146C93.8825 290.85 89.7769 283.5 84.8709 277.179Z" fill="#7DBC44"/>
<path d="M73.1397 197.205C75.0135 201.095 76.9729 204.895 79.0533 208.687C81.0555 212.338 83.056 215.962 84.5535 219.857C86.3982 224.653 88.3321 229.376 90.282 234.13C92.3088 239.07 94.1201 244.105 95.5732 249.244C98.4102 259.278 100.518 269.605 101.559 279.982C102.09 285.259 102.33 290.568 102.185 295.869C102.071 300.013 101.604 304.111 101.215 308.234C100.81 312.522 100.518 316.861 100.877 321.165C101.177 324.763 101.749 329.039 104.541 331.606C105.086 332.109 105.861 331.482 105.544 330.833C102.226 324.029 102.412 316.611 103.046 309.234C103.397 305.16 103.882 301.109 104.02 297.021C104.195 291.819 103.99 286.607 103.501 281.426C102.538 271.241 100.508 261.178 97.8738 251.302C96.5222 246.239 94.851 241.273 92.9258 236.397C90.9944 231.512 88.7657 226.761 86.895 221.851C83.5129 212.972 78.357 205.099 73.7911 196.825C73.554 196.395 72.9311 196.773 73.1397 197.205Z" fill="#573119"/>
<path d="M101.711 269.809C102.247 263.344 102.82 257.117 105 250.949C106.016 248.072 107.249 245.275 108.23 242.387C109.04 240 110.253 236.727 109.629 234.189C109.559 233.906 109.147 233.921 109.069 234.189C108.651 235.639 108.697 237.228 108.397 238.714C108.104 240.16 107.713 241.582 107.264 242.987C106.307 245.975 105.057 248.838 103.974 251.779C101.883 257.46 100.809 263.754 101.266 269.809C101.287 270.095 101.687 270.095 101.711 269.809Z" fill="#573119"/>
<path d="M64.2422 232.651C66.809 238.851 74.5244 239.209 80.1438 240.598C84.157 241.589 87.1191 244.266 89.2462 247.741C91.5753 251.543 93.1499 256.007 94.4445 260.25L94.5201 260.23C92.948 252.798 90.6957 243.85 83.0348 240.392C76.8956 237.621 68.8057 239.013 64.8791 232.382C64.6861 232.056 64.087 232.275 64.2422 232.651Z" fill="#573119"/>
<path d="M97.6543 268.828C97.9603 269.241 98.2403 269.672 98.5549 270.076C98.711 270.276 98.8696 270.465 99.0666 270.626C99.2685 270.79 99.5039 270.995 99.7802 270.99C99.8954 270.987 99.9759 270.86 99.914 270.757C99.7876 270.55 99.5584 270.425 99.38 270.268C99.1954 270.105 99.0084 269.946 98.83 269.778C98.4707 269.439 98.1424 269.07 97.7918 268.723L97.6543 268.828Z" fill="#573119"/>
<path d="M81.6059 288.497C86.0335 292.131 90.118 296.431 93.3626 301.142C94.9137 303.395 96.3458 305.778 97.6441 308.184C99.0626 310.813 99.993 313.591 101.104 316.347C101.189 316.556 101.571 316.561 101.542 316.289C100.927 310.458 97.234 305.459 94.2756 300.607C92.7394 298.087 90.8291 296.056 88.7751 293.955C86.6541 291.784 84.4923 289.731 82.0057 287.981C81.7031 287.768 81.317 288.26 81.6059 288.497Z" fill="#573119"/>
<path d="M116.858 281.633C114.726 282.841 114.656 286.209 114.614 288.36C114.534 292.492 115.557 296.372 113.743 300.309C112.106 303.866 109.489 306.835 107.433 310.138C105.506 313.229 103.607 317.181 103.649 320.903C103.652 321.117 103.981 321.24 104.081 321.02C104.857 319.331 105.136 317.412 105.692 315.641C106.316 313.65 107.189 311.843 108.318 310.092C110.298 307.025 112.728 304.232 114.334 300.933C116.027 297.456 115.779 294.012 115.666 290.244C115.596 287.842 115.355 283.982 117.292 282.196C117.596 281.916 117.207 281.436 116.858 281.633Z" fill="#573119"/>
<path d="M102.6 321.287C94.0107 321.168 77.6504 321.074 77.6504 321.074L81.699 351.131C82.6092 357.893 88.3813 362.939 95.2038 362.939H102.258H102.94H109.993C116.817 362.939 122.589 357.893 123.499 351.131L127.548 321.074C127.548 321.074 111.188 321.168 102.6 321.287Z" fill="white"/>
<path d="M517.748 266.05L468.747 363.108L325.895 364.135L369.981 264.683L517.748 266.05Z" fill="#F5F6F9"/>
<path d="M231.084 363.53L231.111 355.762H323.588L366.135 262.462H514.03L517.748 266.051H373.27L329.055 363.451C329.055 363.451 231.084 363.274 231.084 363.53Z" fill="#D1D8E8"/>
<path d="M443.567 319.609C441.953 324.451 433.194 328.19 424.003 327.959C414.812 327.73 408.67 323.619 410.283 318.777C411.897 313.936 420.656 310.198 429.847 310.428C439.038 310.658 445.181 314.769 443.567 319.609Z" fill="#D1D8E8"/>
<path d="M329.056 364.071L328.799 364.015C328.488 363.874 328.35 363.507 328.491 363.195L372.871 265.431H517.748C518.091 265.431 518.367 265.707 518.367 266.05C518.367 266.392 518.091 266.67 517.748 266.67H373.669L329.619 363.708C329.517 363.935 329.29 364.071 329.056 364.071Z" fill="white"/>
<path d="M54.7109 408.562H224.649V370.885H54.7109V408.562Z" fill="#323232"/>
<path d="M223.678 408.562H529.43V370.885H223.678V408.562Z" fill="#323232"/>
<path d="M54.7109 377.805H223.677V370.885H54.7109V377.805Z" fill="#4A4A4A"/>
<path d="M529.43 377.805H223.678V370.885H529.43V377.805Z" fill="#4A4A4A"/>
<path d="M232.081 372.678H46.5078V363.451H232.081V372.678Z" fill="#27282C"/>
<path d="M536.864 372.678H231.113V363.451H536.864V372.678Z" fill="#27282C"/>
<path d="M181.744 165.764H121.753C118.04 165.764 115.031 162.755 115.031 159.042V129.093C115.031 125.381 118.04 122.371 121.753 122.371H181.744C185.456 122.371 188.466 125.381 188.466 129.093V159.042C188.466 162.755 185.456 165.764 181.744 165.764Z" fill="white"/>
<path d="M205.563 144.068L183.031 134.561V153.575L205.563 144.068Z" fill="white"/>
<path d="M141.668 144.068C141.668 146.36 139.809 148.217 137.517 148.217C135.225 148.217 133.367 146.36 133.367 144.068C133.367 141.775 135.225 139.918 137.517 139.918C139.809 139.918 141.668 141.775 141.668 144.068Z" fill="#106FB1"/>
<path d="M155.898 144.068C155.898 146.36 154.04 148.217 151.748 148.217C149.456 148.217 147.598 146.36 147.598 144.068C147.598 141.775 149.456 139.918 151.748 139.918C154.04 139.918 155.898 141.775 155.898 144.068Z" fill="#106FB1"/>
<path d="M170.13 144.068C170.13 146.36 168.272 148.217 165.98 148.217C163.688 148.217 161.83 146.36 161.83 144.068C161.83 141.775 163.688 139.918 165.98 139.918C168.272 139.918 170.13 141.775 170.13 144.068Z" fill="#106FB1"/>
<path d="M487.16 30.2386H348.664C339.769 30.2386 332.559 37.4488 332.559 46.3438V112.047C332.559 120.941 339.769 128.152 348.664 128.152H361.077C361.427 134.108 360.573 142.968 355.599 154.296C371.6 146.915 380.815 135.832 385.628 128.152H487.16C496.054 128.152 503.266 120.941 503.266 112.047V46.3438C503.266 37.4488 496.054 30.2386 487.16 30.2386Z" fill="#599FDC"/>
<path d="M428.079 61.552H359.387C357.5 61.552 355.969 60.022 355.969 58.1352C355.969 56.2472 357.5 54.7172 359.387 54.7172H428.079C429.967 54.7172 431.497 56.2472 431.497 58.1352C431.497 60.022 429.967 61.552 428.079 61.552Z" fill="white"/>
<path d="M477.336 81.4595H358.062C356.907 81.4595 355.969 80.5229 355.969 79.367C355.969 78.2111 356.907 77.2733 358.062 77.2733H477.336C478.491 77.2733 479.429 78.2111 479.429 79.367C479.429 80.5229 478.491 81.4595 477.336 81.4595Z" fill="#C3E4F7"/>
<path d="M477.336 93.08H358.062C356.907 93.08 355.969 92.1421 355.969 90.9863C355.969 89.8304 356.907 88.8926 358.062 88.8926H477.336C478.491 88.8926 479.429 89.8304 479.429 90.9863C479.429 92.1421 478.491 93.08 477.336 93.08Z" fill="#C3E4F7"/>
<path d="M451.317 105.469H358.062C356.907 105.469 355.969 104.531 355.969 103.375C355.969 102.219 356.907 101.281 358.062 101.281H451.317C452.474 101.281 453.412 102.219 453.412 103.375C453.412 104.531 452.474 105.469 451.317 105.469Z" fill="#C3E4F7"/>
<path d="M476.398 61.552H443.629C441.742 61.552 440.211 60.022 440.211 58.1352C440.211 56.2472 441.742 54.7172 443.629 54.7172H476.398C478.286 54.7172 479.815 56.2472 479.815 58.1352C479.815 60.022 478.286 61.552 476.398 61.552Z" fill="white"/>
<path d="M393.807 212.652H356.599C355.23 212.652 354.121 211.542 354.121 210.174V184.755C354.121 183.387 355.23 182.277 356.599 182.277H393.807C395.176 182.277 396.285 183.387 396.285 184.755V210.174C396.285 211.542 395.176 212.652 393.807 212.652Z" fill="white"/>
<path d="M375.461 202.004C375.252 202.004 375.041 201.932 374.869 201.79L354.618 185.065C354.223 184.737 354.167 184.153 354.494 183.756C354.823 183.361 355.409 183.307 355.801 183.632L375.445 199.855L394.587 183.199C394.973 182.863 395.56 182.904 395.897 183.29C396.234 183.678 396.193 184.264 395.806 184.601L376.07 201.774C375.896 201.927 375.678 202.004 375.461 202.004Z" fill="#647AB4"/>
<path d="M355.21 211.958C354.98 211.958 354.75 211.872 354.57 211.701C354.198 211.347 354.183 210.76 354.538 210.388L368.7 195.5C369.051 195.127 369.642 195.112 370.012 195.466C370.385 195.82 370.4 196.408 370.046 196.781L355.883 211.669C355.701 211.861 355.456 211.958 355.21 211.958Z" fill="#647AB4"/>
<path d="M395.195 211.413C394.957 211.413 394.719 211.322 394.537 211.14L380.431 196.996C380.069 196.633 380.069 196.043 380.434 195.682C380.798 195.319 381.386 195.32 381.748 195.683L395.854 209.827C396.216 210.191 396.216 210.78 395.851 211.142C395.669 211.322 395.433 211.413 395.195 211.413Z" fill="#647AB4"/>
<path d="M410.649 181.337C410.649 188.203 405.084 193.769 398.218 193.769C391.352 193.769 385.787 188.203 385.787 181.337C385.787 174.472 391.352 168.906 398.218 168.906C405.084 168.906 410.649 174.472 410.649 181.337Z" fill="#F1494A"/>
<path d="M394.659 181.734C394.136 181.734 393.735 181.877 393.454 182.163C393.173 182.448 393.033 182.857 393.033 183.39C393.033 183.922 393.173 184.331 393.454 184.616C393.735 184.897 394.136 185.037 394.659 185.037C395.177 185.037 395.574 184.897 395.849 184.616C396.125 184.331 396.263 183.922 396.263 183.39C396.263 182.852 396.125 182.443 395.849 182.163C395.574 181.877 395.177 181.734 394.659 181.734ZM392.619 180.813C391.961 180.614 391.465 180.309 391.131 179.898C390.797 179.487 390.63 178.974 390.63 178.359C390.63 177.444 390.971 176.748 391.654 176.268C392.336 175.789 393.338 175.55 394.659 175.55C395.97 175.55 396.967 175.789 397.65 176.268C398.332 176.743 398.673 177.44 398.673 178.359C398.673 178.974 398.504 179.487 398.165 179.898C397.831 180.309 397.335 180.614 396.677 180.813C397.412 181.016 397.967 181.347 398.339 181.807C398.717 182.262 398.905 182.838 398.905 183.535C398.905 184.609 398.547 185.422 397.831 185.974C397.12 186.521 396.062 186.794 394.659 186.794C393.251 186.794 392.186 186.521 391.465 185.974C390.749 185.422 390.391 184.609 390.391 183.535C390.391 182.838 390.577 182.262 390.95 181.807C391.327 181.347 391.884 181.016 392.619 180.813ZM393.272 178.642C393.272 179.073 393.391 179.404 393.628 179.637C393.87 179.869 394.214 179.985 394.659 179.985C395.094 179.985 395.431 179.869 395.668 179.637C395.905 179.404 396.024 179.073 396.024 178.642C396.024 178.211 395.905 177.882 395.668 177.655C395.431 177.423 395.094 177.306 394.659 177.306C394.214 177.306 393.87 177.423 393.628 177.655C393.391 177.887 393.272 178.216 393.272 178.642Z" fill="white"/>
<path d="M399.799 175.746H406.746V177.8H402.028V179.477C402.241 179.419 402.454 179.375 402.667 179.346C402.884 179.312 403.109 179.295 403.342 179.295C404.663 179.295 405.691 179.627 406.427 180.29C407.162 180.948 407.53 181.868 407.53 183.048C407.53 184.22 407.129 185.137 406.325 185.8C405.527 186.463 404.416 186.794 402.993 186.794C402.379 186.794 401.769 186.734 401.164 186.613C400.564 186.496 399.966 186.317 399.371 186.075V183.876C399.961 184.215 400.52 184.469 401.048 184.638C401.58 184.807 402.081 184.892 402.551 184.892C403.228 184.892 403.76 184.728 404.148 184.399C404.539 184.065 404.735 183.615 404.735 183.048C404.735 182.477 404.539 182.027 404.148 181.698C403.76 181.369 403.228 181.205 402.551 181.205C402.149 181.205 401.721 181.258 401.266 181.364C400.811 181.466 400.322 181.626 399.799 181.843V175.746Z" fill="white"/>
<path d="M523.075 176.762H450.452C447.715 176.762 445.496 174.543 445.496 171.806V160.443C445.496 157.707 447.715 155.488 450.452 155.488H523.075C525.812 155.488 528.031 157.707 528.031 160.443V171.806C528.031 174.543 525.812 176.762 523.075 176.762Z" fill="#599FDC"/>
<path d="M455.694 171.703C455.369 171.703 455.107 171.588 454.909 171.355C454.711 171.124 454.624 170.832 454.649 170.484L454.961 167.729L454.928 167.59L454.753 167.625L452.486 169.263C452.207 169.472 451.916 169.549 451.614 169.49C451.313 169.433 451.068 169.252 450.883 168.949C450.673 168.578 450.632 168.252 450.76 167.973C450.886 167.694 451.103 167.497 451.404 167.381L453.95 166.23L454.055 166.126L453.95 166.021L451.404 164.87C451.08 164.731 450.87 164.511 450.779 164.208C450.684 163.906 450.72 163.604 450.883 163.301C451.068 162.999 451.313 162.819 451.614 162.76C451.916 162.703 452.207 162.767 452.486 162.953L454.753 164.627L454.928 164.66L454.961 164.522L454.649 161.766C454.624 161.418 454.717 161.127 454.928 160.896C455.137 160.663 455.416 160.547 455.764 160.547C456.09 160.547 456.356 160.663 456.565 160.896C456.775 161.127 456.856 161.418 456.809 161.766L456.496 164.522L456.531 164.66L456.707 164.627L458.972 162.988C459.25 162.777 459.547 162.703 459.862 162.76C460.174 162.819 460.412 162.999 460.576 163.301C460.785 163.673 460.826 163.999 460.696 164.278C460.569 164.556 460.354 164.755 460.051 164.87L457.507 166.021L457.403 166.126L457.507 166.23L460.051 167.381C460.379 167.52 460.593 167.741 460.696 168.043C460.801 168.346 460.761 168.648 460.576 168.949C460.412 169.252 460.174 169.433 459.862 169.49C459.547 169.549 459.25 169.483 458.972 169.299L456.707 167.625L456.531 167.59L456.496 167.729L456.809 170.484C456.856 170.832 456.768 171.124 456.549 171.355C456.326 171.588 456.043 171.703 455.694 171.703Z" fill="white"/>
<path d="M470.715 171.703C470.39 171.703 470.129 171.588 469.93 171.355C469.732 171.124 469.646 170.832 469.669 170.484L469.982 167.729L469.948 167.59L469.774 167.625L467.507 169.263C467.228 169.472 466.937 169.549 466.635 169.49C466.334 169.433 466.09 169.252 465.904 168.949C465.695 168.578 465.654 168.252 465.781 167.973C465.908 167.694 466.123 167.497 466.426 167.381L468.972 166.23L469.077 166.126L468.972 166.021L466.426 164.87C466.101 164.731 465.892 164.511 465.799 164.208C465.706 163.906 465.742 163.604 465.904 163.301C466.09 162.999 466.334 162.819 466.635 162.76C466.937 162.703 467.228 162.767 467.507 162.953L469.774 164.627L469.948 164.66L469.982 164.522L469.669 161.766C469.646 161.418 469.738 161.127 469.948 160.896C470.157 160.663 470.436 160.547 470.785 160.547C471.111 160.547 471.377 160.663 471.587 160.896C471.796 161.127 471.878 161.418 471.831 161.766L471.517 164.522L471.552 164.66L471.727 164.627L473.993 162.988C474.27 162.777 474.569 162.703 474.882 162.76C475.196 162.819 475.434 162.999 475.597 163.301C475.805 163.673 475.846 163.999 475.717 164.278C475.591 164.556 475.375 164.755 475.073 164.87L472.528 166.021L472.424 166.126L472.528 166.23L475.073 167.381C475.399 167.52 475.614 167.741 475.717 168.043C475.822 168.346 475.783 168.648 475.597 168.949C475.434 169.252 475.196 169.433 474.882 169.49C474.569 169.549 474.27 169.483 473.993 169.299L471.727 167.625L471.552 167.59L471.517 167.729L471.831 170.484C471.878 170.832 471.79 171.124 471.569 171.355C471.348 171.588 471.064 171.703 470.715 171.703Z" fill="white"/>
<path d="M485.735 171.703C485.41 171.703 485.148 171.588 484.951 171.355C484.751 171.124 484.665 170.832 484.689 170.484L485.003 167.729L484.968 167.59L484.795 167.625L482.526 169.263C482.248 169.472 481.956 169.549 481.655 169.49C481.353 169.433 481.109 169.252 480.924 168.949C480.714 168.578 480.673 168.252 480.802 167.973C480.928 167.694 481.144 167.497 481.446 167.381L483.992 166.23L484.096 166.126L483.992 166.021L481.446 164.87C481.121 164.731 480.911 164.511 480.819 164.208C480.726 163.906 480.762 163.604 480.924 163.301C481.109 162.999 481.353 162.819 481.655 162.76C481.956 162.703 482.248 162.767 482.526 162.953L484.795 164.627L484.968 164.66L485.003 164.522L484.689 161.766C484.665 161.418 484.759 161.127 484.968 160.896C485.178 160.663 485.456 160.547 485.806 160.547C486.131 160.547 486.397 160.663 486.606 160.896C486.817 161.127 486.898 161.418 486.85 161.766L486.538 164.522L486.573 164.66L486.747 164.627L489.013 162.988C489.291 162.777 489.588 162.703 489.903 162.76C490.216 162.819 490.454 162.999 490.617 163.301C490.826 163.673 490.866 163.999 490.738 164.278C490.611 164.556 490.394 164.755 490.093 164.87L487.549 166.021L487.443 166.126L487.549 166.23L490.093 167.381C490.419 167.52 490.633 167.741 490.738 168.043C490.842 168.346 490.802 168.648 490.617 168.949C490.454 169.252 490.216 169.433 489.903 169.49C489.588 169.549 489.291 169.483 489.013 169.299L486.747 167.625L486.573 167.59L486.538 167.729L486.85 170.484C486.898 170.832 486.809 171.124 486.59 171.355C486.368 171.588 486.083 171.703 485.735 171.703Z" fill="white"/>
<path d="M500.756 171.703C500.431 171.703 500.17 171.588 499.973 171.355C499.773 171.124 499.687 170.832 499.711 170.484L500.025 167.729L499.989 167.59L499.815 167.625L497.548 169.263C497.269 169.472 496.978 169.549 496.676 169.49C496.375 169.433 496.131 169.252 495.945 168.949C495.736 168.578 495.695 168.252 495.822 167.973C495.949 167.694 496.166 167.497 496.467 167.381L499.013 166.23L499.118 166.126L499.013 166.021L496.467 164.87C496.142 164.731 495.933 164.511 495.841 164.208C495.747 163.906 495.783 163.604 495.945 163.301C496.131 162.999 496.375 162.819 496.676 162.76C496.978 162.703 497.269 162.767 497.548 162.953L499.815 164.627L499.989 164.66L500.025 164.522L499.711 161.766C499.687 161.418 499.779 161.127 499.989 160.896C500.199 160.663 500.478 160.547 500.826 160.547C501.152 160.547 501.418 160.663 501.628 160.896C501.837 161.127 501.919 161.418 501.872 161.766L501.558 164.522L501.593 164.66L501.769 164.627L504.035 162.988C504.312 162.777 504.61 162.703 504.924 162.76C505.237 162.819 505.474 162.999 505.638 163.301C505.847 163.673 505.888 163.999 505.758 164.278C505.632 164.556 505.416 164.755 505.114 164.87L502.569 166.021L502.465 166.126L502.569 166.23L505.114 167.381C505.441 167.52 505.655 167.741 505.758 168.043C505.864 168.346 505.824 168.648 505.638 168.949C505.474 169.252 505.237 169.433 504.924 169.49C504.61 169.549 504.312 169.483 504.035 169.299L501.769 167.625L501.593 167.59L501.558 167.729L501.872 170.484C501.919 170.832 501.831 171.124 501.612 171.355C501.389 171.588 501.105 171.703 500.756 171.703Z" fill="white"/>
<path d="M515.777 171.703C515.453 171.703 515.191 171.588 514.994 171.355C514.795 171.124 514.708 170.832 514.732 170.484L515.046 167.729L515.01 167.59L514.837 167.625L512.57 169.263C512.291 169.472 512 169.549 511.698 169.49C511.397 169.433 511.152 169.252 510.967 168.949C510.757 168.578 510.716 168.252 510.844 167.973C510.97 167.694 511.186 167.497 511.488 167.381L514.034 166.23L514.139 166.126L514.034 166.021L511.488 164.87C511.164 164.731 510.954 164.511 510.861 164.208C510.768 163.906 510.804 163.604 510.967 163.301C511.152 162.999 511.397 162.819 511.698 162.76C512 162.703 512.291 162.767 512.57 162.953L514.837 164.627L515.01 164.66L515.046 164.522L514.732 161.766C514.708 161.418 514.801 161.127 515.01 160.896C515.22 160.663 515.498 160.547 515.848 160.547C516.174 160.547 516.44 160.663 516.649 160.896C516.859 161.127 516.94 161.418 516.893 161.766L516.58 164.522L516.615 164.66L516.789 164.627L519.055 162.988C519.333 162.777 519.631 162.703 519.945 162.76C520.258 162.819 520.496 162.999 520.659 163.301C520.868 163.673 520.909 163.999 520.78 164.278C520.653 164.556 520.438 164.755 520.135 164.87L517.591 166.021L517.486 166.126L517.591 166.23L520.135 167.381C520.461 167.52 520.677 167.741 520.78 168.043C520.885 168.346 520.845 168.648 520.659 168.949C520.496 169.252 520.258 169.433 519.945 169.49C519.631 169.549 519.333 169.483 519.055 169.299L516.789 167.625L516.615 167.59L516.58 167.729L516.893 170.484C516.94 170.832 516.852 171.124 516.632 171.355C516.41 171.588 516.127 171.703 515.777 171.703Z" fill="white"/>
</svg>
