<svg width="53" height="52" viewBox="0 0 53 52" fill="none" xmlns="http://www.w3.org/2000/svg">
<path d="M51.6151 33.6013C50.5821 32.5001 48.9936 32.1493 47.5805 32.695C45.953 33.3187 44.1015 34.4004 42.0939 35.9109C41.2266 36.5638 40.1254 37.0413 38.917 37.3922C39.1411 36.2325 38.8877 34.6928 37.7768 33.8449C37.348 33.5233 36.8413 33.3382 36.2468 33.2894C33.2356 33.0263 28.8891 31.7984 23.9968 29.8397C17.5847 27.2767 10.2269 33.309 9.91509 33.5721C9.85662 33.6208 9.81764 33.689 9.77866 33.7475L9.24267 32.8217C8.9698 32.3539 8.37536 32.198 7.90759 32.4611L0.491244 36.749C0.267101 36.8757 0.101436 37.0901 0.0332161 37.3435C-0.0350035 37.5968 0.00398016 37.86 0.130668 38.0841L7.88817 51.5129C8.07333 51.8247 8.39492 52.0001 8.73602 52.0001C8.90169 52.0001 9.06736 51.9611 9.22328 51.8734L16.6396 47.5953C16.8638 47.4686 17.0294 47.2542 17.0977 47.0008C17.1659 46.7474 17.1269 46.4843 17.0002 46.2602L16.396 45.2077C18.7836 44.2527 21.6779 44.7302 25.235 45.3246C27.7492 45.7437 30.4974 46.2115 33.5089 46.2115C34.5906 46.2115 35.7016 46.153 36.8515 46.0068C43.2344 45.2175 48.3019 41.6995 51.4403 38.873C52.2005 38.1714 52.639 37.1871 52.639 36.1541C52.639 35.2088 52.2785 34.3025 51.6255 33.6203L51.6151 33.6013ZM9.08664 49.6807L2.30397 37.9378L8.03415 34.6245L14.1541 45.2273C14.1541 45.2273 14.1541 45.2467 14.1639 45.2565L14.1834 45.276L14.8071 46.3577L9.07689 49.6614L9.08664 49.6807ZM50.1238 37.4214C47.7363 39.5654 42.8054 43.288 36.6071 44.0581C32.5531 44.5649 28.8303 43.9412 25.5559 43.3857C21.7163 42.7426 18.3641 42.1871 15.4109 43.4832L10.665 35.2579C10.8501 35.2384 11.0255 35.18 11.1717 35.0533C11.2399 34.9948 17.9444 29.5083 23.2751 31.6424C28.3329 33.6694 32.8837 34.9363 36.0802 35.2189C36.1679 35.2189 36.4115 35.2482 36.6064 35.3943C36.9767 35.6769 37.1521 36.4176 37.006 37.0705C37.006 37.09 37.006 37.0998 36.9962 37.1192C36.8988 37.4798 36.6161 37.7916 36.2361 37.9671C31.9092 38.6005 27.3777 38.1133 27.3191 38.1133C26.7929 38.0548 26.3056 38.4349 26.2471 38.9708C26.1886 39.5068 26.5687 39.9844 27.1047 40.0429C27.3483 40.0721 30.496 40.4034 34.1505 40.1403H34.17C37.3665 39.9064 40.9334 39.2242 43.2722 37.4701C45.5916 35.7257 47.2775 34.8974 48.291 34.5173C48.9634 34.2542 49.7138 34.4199 50.2108 34.9461C50.5227 35.2677 50.6883 35.6965 50.6883 36.1448C50.6883 36.6321 50.4837 37.0901 50.1329 37.4214L50.1238 37.4214Z" fill="#083344" fill-opacity="0.8"/>
<path d="M20.5765 12.6688L19.5532 18.6231C19.4948 18.9934 19.6409 19.354 19.943 19.5781C20.2451 19.7925 20.6447 19.8217 20.9663 19.6561L26.3164 16.8397L31.6665 19.6561C31.8127 19.734 31.9686 19.7633 32.1245 19.7633C32.3292 19.7633 32.5241 19.7048 32.6995 19.5781C33.0016 19.3637 33.1478 18.9934 33.0893 18.6231L32.0661 12.6688L36.3929 8.4491C36.6561 8.18598 36.7535 7.80595 36.6366 7.44533C36.5196 7.0945 36.2175 6.83138 35.8472 6.78265L29.8636 5.91535L27.1837 0.497006C26.8523 -0.165669 25.7609 -0.165669 25.4393 0.497006L22.7593 5.91535L16.7757 6.78265C16.4054 6.83138 16.1033 7.0945 15.9864 7.44533C15.8694 7.79616 15.9669 8.18597 16.23 8.4491L20.5569 12.6688H20.5765ZM23.5585 7.77663C23.8801 7.72791 24.1529 7.53301 24.2894 7.24065L26.3164 3.12813L28.3434 7.24065C28.4896 7.533 28.7624 7.72791 29.0743 7.77663L33.6058 8.43931L30.3217 11.6357C30.0878 11.8599 29.9903 12.1815 30.0391 12.503L30.809 17.0151L26.755 14.8809C26.6088 14.8029 26.4528 14.7737 26.2969 14.7737C26.141 14.7737 25.9851 14.8127 25.8389 14.8809L21.7849 17.0151L22.5548 12.503C22.6132 12.1912 22.506 11.8599 22.2722 11.6357L18.988 8.43931L23.5196 7.77663H23.5585Z" fill="#083344" fill-opacity="0.8"/>
<path d="M3.75642 20.7473L3.00606 25.1326C2.94759 25.5029 3.09376 25.8635 3.39587 26.0876C3.56153 26.2143 3.76619 26.2728 3.97084 26.2728C4.12676 26.2728 4.28268 26.2338 4.42887 26.1656L8.36593 24.0996L12.303 26.1656C12.6343 26.341 13.0339 26.3118 13.3262 26.0876C13.6283 25.8732 13.7745 25.5029 13.716 25.1326L12.9657 20.7473L16.1524 17.6386C16.4155 17.3754 16.5129 16.9954 16.396 16.6348C16.2791 16.284 15.977 16.0209 15.6067 15.9721L11.2018 15.329L9.23332 11.3432C8.90198 10.6805 7.81055 10.6805 7.48891 11.3432L5.52041 15.329L1.11557 15.9721C0.74525 16.0209 0.443164 16.284 0.326222 16.6348C0.209279 16.9856 0.306731 17.3754 0.569848 17.6386L3.75642 20.7473ZM6.29991 17.1903C6.6215 17.1416 6.89436 16.9467 7.03082 16.6543L8.35616 13.9744L9.68151 16.6543C9.8277 16.9467 10.1006 17.1416 10.4124 17.1903L13.3652 17.6191L11.231 19.7046C10.9971 19.9288 10.8997 20.2504 10.9484 20.5719L11.4552 23.515L8.81419 22.1214C8.53159 21.9753 8.1905 21.9753 7.9079 22.1214L5.26694 23.515L5.77369 20.5719C5.83216 20.2601 5.72496 19.9288 5.49108 19.7046L3.35686 17.6191L6.30968 17.1903H6.29991Z" fill="#083344" fill-opacity="0.8"/>
<path d="M36.2481 16.6348C36.1312 16.9856 36.2286 17.3754 36.4917 17.6386L39.6784 20.7473L38.9281 25.1326C38.8696 25.5029 39.0158 25.8635 39.3179 26.0876C39.62 26.302 40.0195 26.3313 40.3411 26.1656L44.2782 24.0996L48.2152 26.1656C48.3614 26.2436 48.5173 26.2728 48.6733 26.2728C48.8779 26.2728 49.0728 26.2143 49.2482 26.0876C49.5503 25.8732 49.6965 25.5029 49.638 25.1326L48.8877 20.7473L52.0744 17.6386C52.3375 17.3755 52.4349 16.9954 52.318 16.6348C52.2011 16.284 51.899 16.0208 51.5287 15.9721L47.1238 15.329L45.1553 11.3432C44.824 10.6805 43.7325 10.6805 43.4109 11.3432L41.4424 15.329L37.0376 15.9721C36.6672 16.0209 36.365 16.284 36.2481 16.6348ZM42.2219 17.1903C42.5435 17.1416 42.8164 16.9467 42.9528 16.6543L44.2782 13.9743L45.6035 16.6543C45.7497 16.9466 46.0226 17.1415 46.3344 17.1903L49.2872 17.6191L47.153 19.7046C46.9191 19.9287 46.8217 20.2503 46.8704 20.5719L47.3772 23.515L44.7362 22.1214C44.59 22.0434 44.4341 22.0142 44.2782 22.0142C44.1222 22.0142 43.9663 22.0532 43.8201 22.1214L41.1792 23.515L41.6859 20.5719C41.7444 20.26 41.6372 19.9287 41.4033 19.7046L39.2691 17.6191L42.2219 17.1903Z" fill="#083344" fill-opacity="0.8"/>
<path d="M8.11063 12.4736L9.84464 16.9476L14.6355 17.2142L10.9163 20.2459L12.1432 24.8846L8.11063 22.2843L4.07805 24.8846L5.30495 20.2459L1.58578 17.2142L6.37662 16.9476L8.11063 12.4736Z" fill="#6FBE01"/>
<path d="M44.2825 12.4736L46.0165 16.9476L50.8074 17.2142L47.0882 20.2459L48.3151 24.8846L44.2825 22.2843L40.2499 24.8846L41.4768 20.2459L37.7577 17.2142L42.5485 16.9476L44.2825 12.4736Z" fill="#6FBE01"/>
<path d="M26.1933 2.49463L28.6678 7.50859L34.2011 8.31261L30.1972 12.2154L31.1424 17.7263L26.1933 15.1244L21.2442 17.7263L22.1894 12.2154L18.1855 8.31261L23.7188 7.50859L26.1933 2.49463Z" fill="#6FBE01"/>
</svg>
