<svg width="46" height="45" viewBox="0 0 46 45" fill="none" xmlns="http://www.w3.org/2000/svg">
<path d="M22.744 1.07031L8.02734 17.1249H14.0872L22.744 8.25262L30.7713 17.3925L37.4607 17.1249L22.744 1.07031Z" fill="#7DBC44"/>
<path fill-rule="evenodd" clip-rule="evenodd" d="M33.6644 43.6435C33.6644 43.6862 33.6298 43.7237 33.5894 43.7237H26.0506C26.0045 43.7237 25.9698 43.6862 25.9698 43.6435V41.6688C25.9698 39.5468 27.6958 37.8209 29.82 37.8209C31.9385 37.8209 33.6644 39.5468 33.6644 41.6688V43.6435ZM29.82 36.5447C26.9916 36.5447 24.6941 38.8432 24.6941 41.6688V43.6435C24.6941 44.391 25.3002 45 26.0506 45H33.5894C34.334 45 34.9401 44.391 34.9401 43.6435V41.6688C34.9401 38.8432 32.6427 36.5447 29.82 36.5447ZM19.0661 43.6435C19.0661 43.6862 19.0257 43.7237 18.9853 43.7237H11.4466C11.4004 43.7237 11.3658 43.6862 11.3658 43.6435V41.6688C11.3658 39.5468 13.0917 37.8209 15.2159 37.8209C17.3344 37.8209 19.0661 39.5468 19.0661 41.6688V43.6435ZM15.2159 36.5447C12.3875 36.5447 10.0901 38.8432 10.0901 41.6688V43.6435C10.0901 44.391 10.6962 45 11.4466 45H18.9853C19.7299 45 20.3418 44.391 20.3418 43.6435V41.6688C20.3418 38.8432 18.0386 36.5447 15.2159 36.5447ZM43.7545 33.3248C43.7545 33.3687 43.7198 33.4051 43.6737 33.4051H36.135C36.0945 33.4051 36.0599 33.3687 36.0599 33.3248V31.3518C36.0599 29.2293 37.7858 27.5028 39.9043 27.5028C42.0285 27.5028 43.7545 29.2293 43.7545 31.3518V33.3248ZM22.9855 8.41652C22.7282 8.1347 22.2939 8.14313 22.0446 8.41652L14.1769 17.0624H8.42765L22.518 1.5861L36.6025 17.0624H30.859L22.9855 8.41652ZM29.82 32.2621C30.5877 32.2621 31.2112 32.8867 31.2112 33.6539C31.2112 34.4216 30.5877 35.0461 29.82 35.0461C29.0523 35.0461 28.4289 34.4216 28.4289 33.6539C28.4289 32.8867 29.0523 32.2621 29.82 32.2621ZM15.2159 35.0461C14.4482 35.0461 13.8248 34.4216 13.8248 33.6539C13.8248 32.8867 14.4482 32.2621 15.2159 32.2621C15.9837 32.2621 16.6071 32.8867 16.6071 33.6539C16.6071 34.4216 15.9837 35.0461 15.2159 35.0461ZM8.97603 33.3248C8.97603 33.3687 8.93562 33.4051 8.8952 33.4051H1.35649C1.31611 33.4051 1.2757 33.3687 1.2757 33.3248V31.3518C1.2757 29.2293 3.00163 27.5028 5.12586 27.5028C7.25009 27.5028 8.97603 29.2293 8.97603 31.3518V33.3248ZM39.9043 26.2272C38.796 26.2272 37.7628 26.5833 36.9258 27.1877L29.0984 21.85V17.0231L30.1028 18.1303C30.2241 18.263 30.3972 18.3386 30.5762 18.3386H38.0456C38.5974 18.3386 38.888 17.6795 38.5189 17.2713L22.9855 0.208235C22.7288 -0.0734259 22.294 -0.0653681 22.0446 0.208235L6.51701 17.2713C6.14216 17.679 6.43151 18.3386 6.99034 18.3386H14.4597C14.6387 18.3386 14.8061 18.263 14.9273 18.1303L15.9375 17.0231V21.85L8.11015 27.1877C7.2674 26.5833 6.23991 26.2272 5.12586 26.2272C2.30316 26.2272 0 28.5257 0 31.3518V33.3248C0 34.0735 0.61186 34.6813 1.35649 34.6813H8.8952C9.6456 34.6813 10.2517 34.0735 10.2517 33.3248V31.3518C10.2517 30.1085 9.80724 28.9667 9.06837 28.0783L16.9361 22.7141C17.1093 22.5952 17.2132 22.3978 17.2132 22.1871V15.6216L19.9608 12.6026V26.641L16.3242 31.2283C14.5487 30.4218 12.5491 31.7212 12.5491 33.6539C12.5491 35.1252 13.744 36.3224 15.2159 36.3224C17.4434 36.3224 18.6698 33.7472 17.3229 32.0226L21.098 27.2598C21.1903 27.1467 21.2365 27.007 21.2365 26.8633V11.1994L22.518 9.79438L23.7937 11.2005V26.8633C23.7937 27.007 23.8456 27.1467 23.9322 27.2598L27.7073 32.0226C26.3669 33.7675 27.6032 36.3224 29.82 36.3224C31.2862 36.3224 32.4868 35.1252 32.4868 33.6539C32.4868 31.7026 30.4519 30.4242 28.7117 31.2283L25.0694 26.641V12.6026L27.817 15.6216V22.1871C27.817 22.3978 27.9267 22.5952 28.0998 22.7141L35.9676 28.0783C35.2287 28.9667 34.7842 30.1085 34.7842 31.3518V33.3248C34.7842 34.0735 35.3903 34.6813 36.135 34.6813H43.6737C44.4241 34.6813 45.0302 34.0735 45.0302 33.3248V31.3518C45.0302 28.5257 42.7328 26.2272 39.9043 26.2272ZM5.12586 21.9446C5.89357 21.9446 6.51701 22.5692 6.51701 23.3363C6.51701 24.1041 5.89357 24.7275 5.12586 24.7275C4.35812 24.7275 3.73472 24.1041 3.73472 23.3363C3.73472 22.5692 4.35812 21.9446 5.12586 21.9446ZM5.12586 26.0038C3.6539 26.0038 2.45903 24.8066 2.45903 23.3363C2.45903 21.8655 3.6539 20.6684 5.12586 20.6684C6.5978 20.6684 7.79268 21.8655 7.79268 23.3363C7.79268 24.8066 6.5978 26.0038 5.12586 26.0038ZM39.9043 21.9446C40.672 21.9446 41.2955 22.5692 41.2955 23.3363C41.2955 24.1041 40.672 24.7275 39.9043 24.7275C39.1366 24.7275 38.5132 24.1041 38.5132 23.3363C38.5132 22.5692 39.1366 21.9446 39.9043 21.9446ZM37.2375 23.3363C37.2375 21.8655 38.4324 20.6684 39.9043 20.6684C41.3763 20.6684 42.5769 21.8655 42.5769 23.3363C42.5769 24.8066 41.3763 26.0038 39.9043 26.0038C38.4324 26.0038 37.2375 24.8066 37.2375 23.3363Z" fill="#022C22"/>
</svg>
