<svg width="47" height="48" viewBox="0 0 47 48" fill="none" xmlns="http://www.w3.org/2000/svg">
<circle cx="32.3388" cy="7.07368" r="2.52632" fill="#7DBC44"/>
<circle cx="37.8935" cy="11.1157" r="2.52632" fill="#7DBC44"/>
<circle cx="37.8935" cy="35.3686" r="2.52632" fill="#7DBC44"/>
<circle cx="32.3388" cy="39.916" r="2.52632" fill="#7DBC44"/>
<circle cx="41.4314" cy="23.7478" r="3.53684" fill="#7DBC44"/>
<mask id="path-6-inside-1_1545_372" fill="white">
<path fill-rule="evenodd" clip-rule="evenodd" d="M37.6613 9.27863C38.0823 9.27873 38.4938 9.40366 38.8438 9.63762C39.1938 9.87158 39.4665 10.2041 39.6276 10.593C39.7886 10.982 39.8307 11.41 39.7485 11.8229C39.6663 12.2358 39.4635 12.615 39.1658 12.9127C38.8681 13.2103 38.4888 13.413 38.0759 13.4951C37.663 13.5772 37.235 13.535 36.846 13.3739C36.4571 13.2128 36.1247 12.9399 35.8908 12.5899C35.6569 12.2398 35.5321 11.8283 35.5321 11.4073C35.5326 10.8428 35.7571 10.3016 36.1563 9.90251C36.5555 9.50341 37.0968 9.27903 37.6613 9.27863ZM41.381 20.1751C42.0376 20.1751 42.6793 20.3698 43.2252 20.7345C43.7711 21.0993 44.1966 21.6177 44.4479 22.2242C44.6991 22.8308 44.7649 23.4982 44.6369 24.1421C44.5088 24.7861 44.1927 25.3776 43.7285 25.8418C43.2643 26.3061 42.6729 26.6223 42.029 26.7504C41.3851 26.8786 40.7176 26.8129 40.111 26.5617C39.5044 26.3106 38.986 25.8852 38.6211 25.3393C38.2563 24.7935 38.0616 24.1517 38.0614 23.4952C38.0624 22.615 38.4124 21.7712 39.0347 21.1488C39.6571 20.5264 40.5009 20.1762 41.381 20.1751ZM39.7905 35.5821C39.7906 36.0033 39.6658 36.415 39.4319 36.7652C39.198 37.1154 38.8655 37.3884 38.4764 37.5496C38.0874 37.7108 37.6593 37.7531 37.2462 37.671C36.8332 37.5889 36.4537 37.3861 36.1559 37.0884C35.8581 36.7906 35.6552 36.4112 35.573 35.9982C35.4909 35.5852 35.533 35.157 35.6941 34.7679C35.8553 34.3789 36.1282 34.0463 36.4783 33.8123C36.8285 33.5783 37.2401 33.4534 37.6613 33.4534C38.2257 33.454 38.7669 33.6784 39.1661 34.0775C39.5652 34.4766 39.7898 35.0177 39.7905 35.5821ZM23.4265 30.8892C21.558 30.7536 19.81 29.9156 18.5341 28.5438C17.2582 27.1719 16.549 25.3679 16.549 23.4945C16.549 21.621 17.2582 19.817 18.5341 18.4451C19.81 17.0733 21.558 16.2353 23.4265 16.0997V30.8892ZM34.4665 11.4073C34.4665 11.8734 34.5687 12.3337 34.7658 12.7561C34.9629 13.1784 35.2502 13.5524 35.6074 13.8518L33.3337 17.7928H24.4926V15.5479C24.4925 15.4066 24.4363 15.2712 24.3363 15.1713C24.2363 15.0715 24.1008 15.0154 23.9596 15.0154C21.7107 15.0154 19.5539 15.9087 17.9638 17.4989C16.3736 19.0891 15.4802 21.2459 15.4802 23.4947C15.4802 25.7436 16.3736 27.9003 17.9638 29.4905C19.5539 31.0807 21.7107 31.974 23.9596 31.974C24.1008 31.974 24.2363 31.9179 24.3363 31.8181C24.4363 31.7182 24.4925 31.5828 24.4926 31.4415V29.1966H33.3322L35.6059 33.1377C34.996 33.6522 34.6016 34.377 34.5008 35.1686C34.4 35.9601 34.6002 36.7607 35.0617 37.4116C35.5232 38.0626 36.2123 38.5165 36.9926 38.6834C37.7729 38.8503 38.5874 38.7181 39.2748 38.3129C39.9622 37.9077 40.4724 37.2591 40.7043 36.4956C40.9361 35.7321 40.8728 34.9093 40.5268 34.1903C40.1808 33.4713 39.5773 32.9085 38.836 32.6133C38.0946 32.3181 37.2695 32.3121 36.5239 32.5965L34.0987 28.3973C34.0519 28.3162 33.9847 28.2489 33.9037 28.2021C33.8228 28.1553 33.7309 28.1306 33.6374 28.1305H24.4921V24.0278H37.0297C37.1654 25.1364 37.719 26.1516 38.5775 26.866C39.4361 27.5805 40.5349 27.9405 41.6498 27.8725C42.7647 27.8045 43.8116 27.3137 44.577 26.5003C45.3424 25.6868 45.7686 24.6119 45.7686 23.495C45.7686 22.378 45.3424 21.3031 44.577 20.4897C43.8116 19.6762 42.7647 19.1854 41.6498 19.1174C40.5349 19.0494 39.4361 19.4094 38.5775 20.1239C37.719 20.8384 37.1654 21.8535 37.0297 22.9622H24.4926V18.8589H33.6379C33.7314 18.8588 33.8233 18.8341 33.9042 18.7873C33.9852 18.7405 34.0524 18.6732 34.0992 18.5921L36.5244 14.3929C37.1613 14.6349 37.8588 14.667 38.5151 14.4845C39.1715 14.3019 39.7523 13.9143 40.1727 13.3783C40.5932 12.8422 40.8312 12.1857 40.852 11.5048C40.8729 10.8238 40.6755 10.1541 40.2887 9.59326C39.9018 9.03247 39.3458 8.61004 38.7019 8.38768C38.0579 8.16531 37.3597 8.15465 36.7093 8.35726C36.0588 8.55987 35.4902 8.96513 35.0864 9.51386C34.6827 10.0626 34.4649 10.726 34.465 11.4073H34.4665ZM2.28831 20.3788V26.6107C2.28688 26.7878 2.34756 26.9599 2.4598 27.097C2.57204 27.234 2.72875 27.3274 2.90271 27.361L6.60023 28.1062C6.69503 28.1259 6.78271 28.1709 6.85391 28.2365C6.92511 28.302 6.97714 28.3857 7.00444 28.4786C7.35923 29.6861 7.84268 30.8521 8.44646 31.9564C8.49303 32.0416 8.51548 32.1379 8.51138 32.235C8.50729 32.332 8.47681 32.4261 8.42322 32.5071L6.33446 35.6503C6.23514 35.797 6.19036 35.9739 6.20789 36.1502C6.22543 36.3265 6.30418 36.4911 6.43046 36.6154L10.8369 41.0218C10.9611 41.1481 11.1257 41.2268 11.302 41.2444C11.4783 41.2619 11.6552 41.2171 11.8019 41.1178L14.9457 39.0285C15.0332 38.9706 15.1358 38.9397 15.2407 38.9396C15.3301 38.9395 15.4181 38.9621 15.4964 39.0053C16.6005 39.6088 17.766 40.0922 18.9731 40.4473C19.0661 40.4745 19.1499 40.5264 19.2155 40.5977C19.2811 40.6689 19.326 40.7566 19.3455 40.8515L20.0913 44.55C20.1249 44.724 20.2185 44.8807 20.3556 44.9928C20.4928 45.105 20.6649 45.1655 20.8421 45.1639H23.4245V34.804C20.5175 34.6666 17.7751 33.4151 15.7665 31.3092C13.7578 29.2034 12.6372 26.4049 12.6372 23.4947C12.6372 20.5845 13.7578 17.7861 15.7665 15.6802C17.7751 13.5744 20.5175 12.3228 23.4245 12.1854V1.82397H20.8441C20.6669 1.82242 20.4947 1.88305 20.3575 1.9953C20.2203 2.10755 20.1268 2.26433 20.0933 2.43837L19.3475 6.1364C19.328 6.23124 19.283 6.31898 19.2174 6.39019C19.1518 6.46141 19.0681 6.5134 18.9751 6.54061C17.7679 6.89544 16.6023 7.37906 15.4984 7.98313C15.4132 8.02974 15.3168 8.05216 15.2197 8.04798C15.1227 8.04379 15.0286 8.01316 14.9477 7.95938L11.8039 5.87063C11.6571 5.77124 11.4801 5.72646 11.3037 5.74409C11.1273 5.76173 10.9626 5.84065 10.8384 5.96713L6.43248 10.373C6.30608 10.4973 6.22725 10.662 6.20971 10.8384C6.19217 11.0148 6.23703 11.1918 6.33648 11.3386L8.42524 14.4818C8.47883 14.5628 8.50931 14.6569 8.5134 14.754C8.5175 14.851 8.49505 14.9473 8.44848 15.0326C7.84472 16.1367 7.36127 17.3024 7.00646 18.5098C6.97928 18.6027 6.92728 18.6864 6.85605 18.7519C6.78483 18.8174 6.69708 18.8623 6.60225 18.8817L2.90271 19.6289C2.72884 19.6625 2.57219 19.7558 2.45996 19.8928C2.34773 20.0297 2.287 20.2017 2.28831 20.3788ZM32.2504 4.96115C32.6715 4.96115 33.0832 5.08603 33.4333 5.31998C33.7835 5.55394 34.0564 5.88647 34.2175 6.27553C34.3787 6.66459 34.4208 7.09269 34.3387 7.50571C34.2565 7.91873 34.0537 8.29812 33.756 8.59589C33.4582 8.89366 33.0788 9.09645 32.6658 9.1786C32.2528 9.26075 31.8247 9.21859 31.4356 9.05744C31.0466 8.89628 30.714 8.62338 30.4801 8.27324C30.2461 7.9231 30.1212 7.51144 30.1212 7.09033C30.1219 6.52584 30.3464 5.98467 30.7456 5.58551C31.1448 5.18636 31.6859 4.96182 32.2504 4.96115ZM32.2504 37.7699C32.6715 37.7699 33.0832 37.8948 33.4333 38.1287C33.7835 38.3627 34.0564 38.6952 34.2175 39.0843C34.3787 39.4733 34.4208 39.9015 34.3387 40.3145C34.2565 40.7275 34.0537 41.1069 33.756 41.4046C33.4582 41.7024 33.0788 41.9052 32.6658 41.9874C32.2528 42.0695 31.8247 42.0273 31.4356 41.8662C31.0466 41.705 30.714 41.4321 30.4801 41.082C30.2461 40.7319 30.1212 40.3202 30.1212 39.8991C30.122 39.3346 30.3466 38.7935 30.7457 38.3944C31.1449 37.9953 31.686 37.7707 32.2504 37.7699ZM2.69202 28.4054L6.07728 29.088C6.41156 30.1557 6.84108 31.1913 7.36065 32.1822L5.44873 35.0622C5.2115 35.4133 5.10467 35.8364 5.14675 36.2581C5.18883 36.6798 5.37719 37.0734 5.67913 37.3708L10.085 41.7766C10.3824 42.0786 10.776 42.2669 11.1977 42.309C11.6193 42.3511 12.0424 42.2443 12.3936 42.007L15.2736 40.0941C16.264 40.6139 17.2993 41.0434 18.3668 41.3775L19.0494 44.7628C19.1301 45.1786 19.3537 45.5531 19.6815 45.8213C20.0092 46.0896 20.4206 46.2347 20.8441 46.2316H23.9596C24.0296 46.2316 24.0989 46.2178 24.1635 46.191C24.2282 46.1642 24.287 46.1249 24.3365 46.0754C24.386 46.0259 24.4252 45.9672 24.452 45.9025C24.4788 45.8378 24.4926 45.7685 24.4926 45.6985V40.4321H29.1031C29.2367 41.2221 29.6622 41.933 30.2952 42.4241C30.9283 42.9151 31.7227 43.1505 32.521 43.0834C33.3194 43.0164 34.0634 42.6519 34.6057 42.0622C35.148 41.4724 35.449 40.7005 35.449 39.8993C35.449 39.0982 35.148 38.3263 34.6057 37.7365C34.0634 37.1468 33.3194 36.7823 32.521 36.7153C31.7227 36.6482 30.9283 36.8836 30.2952 37.3746C29.6622 37.8657 29.2367 38.5766 29.1031 39.3665H24.4926V34.2831C24.4923 34.1419 24.436 34.0067 24.3361 33.907C24.2361 33.8073 24.1007 33.7514 23.9596 33.7516C22.6126 33.7516 21.2788 33.4863 20.0344 32.9708C18.79 32.4553 17.6593 31.6998 16.7069 30.7474C15.7544 29.795 14.9989 28.6643 14.4835 27.4198C13.968 26.1754 13.7027 24.8417 13.7027 23.4947C13.7027 22.1478 13.968 20.814 14.4835 19.5696C14.9989 18.3252 15.7544 17.1945 16.7069 16.242C17.6593 15.2896 18.79 14.5341 20.0344 14.0186C21.2788 13.5032 22.6126 13.2379 23.9596 13.2379C24.0295 13.2379 24.0988 13.2242 24.1635 13.1975C24.2282 13.1707 24.2869 13.1315 24.3364 13.0821C24.386 13.0326 24.4252 12.9739 24.452 12.9092C24.4788 12.8446 24.4926 12.7753 24.4926 12.7053V7.62338H29.1031C29.2368 8.41316 29.6622 9.12392 30.2952 9.61483C30.9281 10.1057 31.7224 10.341 32.5206 10.2739C33.3188 10.2068 34.0627 9.84238 34.6048 9.25275C35.147 8.66312 35.4479 7.89134 35.4479 7.09033C35.4479 6.28932 35.147 5.51754 34.6048 4.92791C34.0627 4.33828 33.3188 3.97383 32.5206 3.90677C31.7224 3.83971 30.9281 4.07494 30.2952 4.56584C29.6622 5.05674 29.2368 5.7675 29.1031 6.55728H24.4926V1.29092C24.4926 1.14955 24.4364 1.01396 24.3365 0.913997C24.2365 0.81403 24.1009 0.757869 23.9596 0.757869H20.8441C20.4202 0.754524 20.0086 0.89969 19.6806 1.16817C19.3525 1.43666 19.1289 1.81151 19.0484 2.22768L18.3658 5.61294C17.2983 5.94764 16.2629 6.37731 15.2721 6.89682L12.3921 4.9844C12.0409 4.7472 11.6179 4.64033 11.1963 4.68232C10.7746 4.72431 10.381 4.91251 10.0835 5.21429L5.67762 9.62069C5.37549 9.91792 5.18702 10.3116 5.14493 10.7333C5.10284 11.155 5.2098 11.5782 5.44722 11.9292L7.35913 14.8092C6.83958 15.8001 6.41006 16.8357 6.07576 17.9035L2.6905 18.5861C2.27517 18.6668 1.90113 18.8902 1.63309 19.2175C1.36506 19.5449 1.21989 19.9557 1.22271 20.3788V26.6107C1.21939 27.0343 1.36452 27.4458 1.63291 27.7736C1.90131 28.1015 2.27602 28.325 2.69202 28.4054Z"/>
</mask>
<path fill-rule="evenodd" clip-rule="evenodd" d="M37.6613 9.27863C38.0823 9.27873 38.4938 9.40366 38.8438 9.63762C39.1938 9.87158 39.4665 10.2041 39.6276 10.593C39.7886 10.982 39.8307 11.41 39.7485 11.8229C39.6663 12.2358 39.4635 12.615 39.1658 12.9127C38.8681 13.2103 38.4888 13.413 38.0759 13.4951C37.663 13.5772 37.235 13.535 36.846 13.3739C36.4571 13.2128 36.1247 12.9399 35.8908 12.5899C35.6569 12.2398 35.5321 11.8283 35.5321 11.4073C35.5326 10.8428 35.7571 10.3016 36.1563 9.90251C36.5555 9.50341 37.0968 9.27903 37.6613 9.27863ZM41.381 20.1751C42.0376 20.1751 42.6793 20.3698 43.2252 20.7345C43.7711 21.0993 44.1966 21.6177 44.4479 22.2242C44.6991 22.8308 44.7649 23.4982 44.6369 24.1421C44.5088 24.7861 44.1927 25.3776 43.7285 25.8418C43.2643 26.3061 42.6729 26.6223 42.029 26.7504C41.3851 26.8786 40.7176 26.8129 40.111 26.5617C39.5044 26.3106 38.986 25.8852 38.6211 25.3393C38.2563 24.7935 38.0616 24.1517 38.0614 23.4952C38.0624 22.615 38.4124 21.7712 39.0347 21.1488C39.6571 20.5264 40.5009 20.1762 41.381 20.1751ZM39.7905 35.5821C39.7906 36.0033 39.6658 36.415 39.4319 36.7652C39.198 37.1154 38.8655 37.3884 38.4764 37.5496C38.0874 37.7108 37.6593 37.7531 37.2462 37.671C36.8332 37.5889 36.4537 37.3861 36.1559 37.0884C35.8581 36.7906 35.6552 36.4112 35.573 35.9982C35.4909 35.5852 35.533 35.157 35.6941 34.7679C35.8553 34.3789 36.1282 34.0463 36.4783 33.8123C36.8285 33.5783 37.2401 33.4534 37.6613 33.4534C38.2257 33.454 38.7669 33.6784 39.1661 34.0775C39.5652 34.4766 39.7898 35.0177 39.7905 35.5821ZM23.4265 30.8892C21.558 30.7536 19.81 29.9156 18.5341 28.5438C17.2582 27.1719 16.549 25.3679 16.549 23.4945C16.549 21.621 17.2582 19.817 18.5341 18.4451C19.81 17.0733 21.558 16.2353 23.4265 16.0997V30.8892ZM34.4665 11.4073C34.4665 11.8734 34.5687 12.3337 34.7658 12.7561C34.9629 13.1784 35.2502 13.5524 35.6074 13.8518L33.3337 17.7928H24.4926V15.5479C24.4925 15.4066 24.4363 15.2712 24.3363 15.1713C24.2363 15.0715 24.1008 15.0154 23.9596 15.0154C21.7107 15.0154 19.5539 15.9087 17.9638 17.4989C16.3736 19.0891 15.4802 21.2459 15.4802 23.4947C15.4802 25.7436 16.3736 27.9003 17.9638 29.4905C19.5539 31.0807 21.7107 31.974 23.9596 31.974C24.1008 31.974 24.2363 31.9179 24.3363 31.8181C24.4363 31.7182 24.4925 31.5828 24.4926 31.4415V29.1966H33.3322L35.6059 33.1377C34.996 33.6522 34.6016 34.377 34.5008 35.1686C34.4 35.9601 34.6002 36.7607 35.0617 37.4116C35.5232 38.0626 36.2123 38.5165 36.9926 38.6834C37.7729 38.8503 38.5874 38.7181 39.2748 38.3129C39.9622 37.9077 40.4724 37.2591 40.7043 36.4956C40.9361 35.7321 40.8728 34.9093 40.5268 34.1903C40.1808 33.4713 39.5773 32.9085 38.836 32.6133C38.0946 32.3181 37.2695 32.3121 36.5239 32.5965L34.0987 28.3973C34.0519 28.3162 33.9847 28.2489 33.9037 28.2021C33.8228 28.1553 33.7309 28.1306 33.6374 28.1305H24.4921V24.0278H37.0297C37.1654 25.1364 37.719 26.1516 38.5775 26.866C39.4361 27.5805 40.5349 27.9405 41.6498 27.8725C42.7647 27.8045 43.8116 27.3137 44.577 26.5003C45.3424 25.6868 45.7686 24.6119 45.7686 23.495C45.7686 22.378 45.3424 21.3031 44.577 20.4897C43.8116 19.6762 42.7647 19.1854 41.6498 19.1174C40.5349 19.0494 39.4361 19.4094 38.5775 20.1239C37.719 20.8384 37.1654 21.8535 37.0297 22.9622H24.4926V18.8589H33.6379C33.7314 18.8588 33.8233 18.8341 33.9042 18.7873C33.9852 18.7405 34.0524 18.6732 34.0992 18.5921L36.5244 14.3929C37.1613 14.6349 37.8588 14.667 38.5151 14.4845C39.1715 14.3019 39.7523 13.9143 40.1727 13.3783C40.5932 12.8422 40.8312 12.1857 40.852 11.5048C40.8729 10.8238 40.6755 10.1541 40.2887 9.59326C39.9018 9.03247 39.3458 8.61004 38.7019 8.38768C38.0579 8.16531 37.3597 8.15465 36.7093 8.35726C36.0588 8.55987 35.4902 8.96513 35.0864 9.51386C34.6827 10.0626 34.4649 10.726 34.465 11.4073H34.4665ZM2.28831 20.3788V26.6107C2.28688 26.7878 2.34756 26.9599 2.4598 27.097C2.57204 27.234 2.72875 27.3274 2.90271 27.361L6.60023 28.1062C6.69503 28.1259 6.78271 28.1709 6.85391 28.2365C6.92511 28.302 6.97714 28.3857 7.00444 28.4786C7.35923 29.6861 7.84268 30.8521 8.44646 31.9564C8.49303 32.0416 8.51548 32.1379 8.51138 32.235C8.50729 32.332 8.47681 32.4261 8.42322 32.5071L6.33446 35.6503C6.23514 35.797 6.19036 35.9739 6.20789 36.1502C6.22543 36.3265 6.30418 36.4911 6.43046 36.6154L10.8369 41.0218C10.9611 41.1481 11.1257 41.2268 11.302 41.2444C11.4783 41.2619 11.6552 41.2171 11.8019 41.1178L14.9457 39.0285C15.0332 38.9706 15.1358 38.9397 15.2407 38.9396C15.3301 38.9395 15.4181 38.9621 15.4964 39.0053C16.6005 39.6088 17.766 40.0922 18.9731 40.4473C19.0661 40.4745 19.1499 40.5264 19.2155 40.5977C19.2811 40.6689 19.326 40.7566 19.3455 40.8515L20.0913 44.55C20.1249 44.724 20.2185 44.8807 20.3556 44.9928C20.4928 45.105 20.6649 45.1655 20.8421 45.1639H23.4245V34.804C20.5175 34.6666 17.7751 33.4151 15.7665 31.3092C13.7578 29.2034 12.6372 26.4049 12.6372 23.4947C12.6372 20.5845 13.7578 17.7861 15.7665 15.6802C17.7751 13.5744 20.5175 12.3228 23.4245 12.1854V1.82397H20.8441C20.6669 1.82242 20.4947 1.88305 20.3575 1.9953C20.2203 2.10755 20.1268 2.26433 20.0933 2.43837L19.3475 6.1364C19.328 6.23124 19.283 6.31898 19.2174 6.39019C19.1518 6.46141 19.0681 6.5134 18.9751 6.54061C17.7679 6.89544 16.6023 7.37906 15.4984 7.98313C15.4132 8.02974 15.3168 8.05216 15.2197 8.04798C15.1227 8.04379 15.0286 8.01316 14.9477 7.95938L11.8039 5.87063C11.6571 5.77124 11.4801 5.72646 11.3037 5.74409C11.1273 5.76173 10.9626 5.84065 10.8384 5.96713L6.43248 10.373C6.30608 10.4973 6.22725 10.662 6.20971 10.8384C6.19217 11.0148 6.23703 11.1918 6.33648 11.3386L8.42524 14.4818C8.47883 14.5628 8.50931 14.6569 8.5134 14.754C8.5175 14.851 8.49505 14.9473 8.44848 15.0326C7.84472 16.1367 7.36127 17.3024 7.00646 18.5098C6.97928 18.6027 6.92728 18.6864 6.85605 18.7519C6.78483 18.8174 6.69708 18.8623 6.60225 18.8817L2.90271 19.6289C2.72884 19.6625 2.57219 19.7558 2.45996 19.8928C2.34773 20.0297 2.287 20.2017 2.28831 20.3788ZM32.2504 4.96115C32.6715 4.96115 33.0832 5.08603 33.4333 5.31998C33.7835 5.55394 34.0564 5.88647 34.2175 6.27553C34.3787 6.66459 34.4208 7.09269 34.3387 7.50571C34.2565 7.91873 34.0537 8.29812 33.756 8.59589C33.4582 8.89366 33.0788 9.09645 32.6658 9.1786C32.2528 9.26075 31.8247 9.21859 31.4356 9.05744C31.0466 8.89628 30.714 8.62338 30.4801 8.27324C30.2461 7.9231 30.1212 7.51144 30.1212 7.09033C30.1219 6.52584 30.3464 5.98467 30.7456 5.58551C31.1448 5.18636 31.6859 4.96182 32.2504 4.96115ZM32.2504 37.7699C32.6715 37.7699 33.0832 37.8948 33.4333 38.1287C33.7835 38.3627 34.0564 38.6952 34.2175 39.0843C34.3787 39.4733 34.4208 39.9015 34.3387 40.3145C34.2565 40.7275 34.0537 41.1069 33.756 41.4046C33.4582 41.7024 33.0788 41.9052 32.6658 41.9874C32.2528 42.0695 31.8247 42.0273 31.4356 41.8662C31.0466 41.705 30.714 41.4321 30.4801 41.082C30.2461 40.7319 30.1212 40.3202 30.1212 39.8991C30.122 39.3346 30.3466 38.7935 30.7457 38.3944C31.1449 37.9953 31.686 37.7707 32.2504 37.7699ZM2.69202 28.4054L6.07728 29.088C6.41156 30.1557 6.84108 31.1913 7.36065 32.1822L5.44873 35.0622C5.2115 35.4133 5.10467 35.8364 5.14675 36.2581C5.18883 36.6798 5.37719 37.0734 5.67913 37.3708L10.085 41.7766C10.3824 42.0786 10.776 42.2669 11.1977 42.309C11.6193 42.3511 12.0424 42.2443 12.3936 42.007L15.2736 40.0941C16.264 40.6139 17.2993 41.0434 18.3668 41.3775L19.0494 44.7628C19.1301 45.1786 19.3537 45.5531 19.6815 45.8213C20.0092 46.0896 20.4206 46.2347 20.8441 46.2316H23.9596C24.0296 46.2316 24.0989 46.2178 24.1635 46.191C24.2282 46.1642 24.287 46.1249 24.3365 46.0754C24.386 46.0259 24.4252 45.9672 24.452 45.9025C24.4788 45.8378 24.4926 45.7685 24.4926 45.6985V40.4321H29.1031C29.2367 41.2221 29.6622 41.933 30.2952 42.4241C30.9283 42.9151 31.7227 43.1505 32.521 43.0834C33.3194 43.0164 34.0634 42.6519 34.6057 42.0622C35.148 41.4724 35.449 40.7005 35.449 39.8993C35.449 39.0982 35.148 38.3263 34.6057 37.7365C34.0634 37.1468 33.3194 36.7823 32.521 36.7153C31.7227 36.6482 30.9283 36.8836 30.2952 37.3746C29.6622 37.8657 29.2367 38.5766 29.1031 39.3665H24.4926V34.2831C24.4923 34.1419 24.436 34.0067 24.3361 33.907C24.2361 33.8073 24.1007 33.7514 23.9596 33.7516C22.6126 33.7516 21.2788 33.4863 20.0344 32.9708C18.79 32.4553 17.6593 31.6998 16.7069 30.7474C15.7544 29.795 14.9989 28.6643 14.4835 27.4198C13.968 26.1754 13.7027 24.8417 13.7027 23.4947C13.7027 22.1478 13.968 20.814 14.4835 19.5696C14.9989 18.3252 15.7544 17.1945 16.7069 16.242C17.6593 15.2896 18.79 14.5341 20.0344 14.0186C21.2788 13.5032 22.6126 13.2379 23.9596 13.2379C24.0295 13.2379 24.0988 13.2242 24.1635 13.1975C24.2282 13.1707 24.2869 13.1315 24.3364 13.0821C24.386 13.0326 24.4252 12.9739 24.452 12.9092C24.4788 12.8446 24.4926 12.7753 24.4926 12.7053V7.62338H29.1031C29.2368 8.41316 29.6622 9.12392 30.2952 9.61483C30.9281 10.1057 31.7224 10.341 32.5206 10.2739C33.3188 10.2068 34.0627 9.84238 34.6048 9.25275C35.147 8.66312 35.4479 7.89134 35.4479 7.09033C35.4479 6.28932 35.147 5.51754 34.6048 4.92791C34.0627 4.33828 33.3188 3.97383 32.5206 3.90677C31.7224 3.83971 30.9281 4.07494 30.2952 4.56584C29.6622 5.05674 29.2368 5.7675 29.1031 6.55728H24.4926V1.29092C24.4926 1.14955 24.4364 1.01396 24.3365 0.913997C24.2365 0.81403 24.1009 0.757869 23.9596 0.757869H20.8441C20.4202 0.754524 20.0086 0.89969 19.6806 1.16817C19.3525 1.43666 19.1289 1.81151 19.0484 2.22768L18.3658 5.61294C17.2983 5.94764 16.2629 6.37731 15.2721 6.89682L12.3921 4.9844C12.0409 4.7472 11.6179 4.64033 11.1963 4.68232C10.7746 4.72431 10.381 4.91251 10.0835 5.21429L5.67762 9.62069C5.37549 9.91792 5.18702 10.3116 5.14493 10.7333C5.10284 11.155 5.2098 11.5782 5.44722 11.9292L7.35913 14.8092C6.83958 15.8001 6.41006 16.8357 6.07576 17.9035L2.6905 18.5861C2.27517 18.6668 1.90113 18.8902 1.63309 19.2175C1.36506 19.5449 1.21989 19.9557 1.22271 20.3788V26.6107C1.21939 27.0343 1.36452 27.4458 1.63291 27.7736C1.90131 28.1015 2.27602 28.325 2.69202 28.4054Z" fill="white" stroke="#3B0764" stroke-width="2" mask="url(#path-6-inside-1_1545_372)"/>
</svg>
