<svg width="62" height="55" viewBox="0 0 62 55" fill="none" xmlns="http://www.w3.org/2000/svg">
<g clip-path="url(#clip0_1545_426)">
<circle cx="35.1852" cy="22.7841" r="6.70082" fill="#7DBC44"/>
<path d="M49.6075 15.5284C49.3261 13.8859 47.9083 12.684 46.2419 12.6775H45.8754C45.8471 12.6775 45.8209 12.6753 45.7925 12.671C45.6289 12.6491 45.4806 12.5641 45.3803 12.4332C45.2821 12.3023 45.2385 12.1365 45.2603 11.973C45.2799 11.8246 45.2952 11.6676 45.3061 11.5062C45.317 11.3622 45.3236 11.203 45.3236 11.035H45.3214C45.3214 7.62351 42.8413 4.72004 39.471 4.18565C36.1032 3.65343 32.8445 5.6471 31.7907 8.89064C31.7798 8.91899 31.7689 8.94735 31.7537 8.9757C31.601 9.28108 31.2302 9.40759 30.9226 9.2549C30.6543 9.11966 30.3707 9.01715 30.0785 8.94953C28.8657 8.66378 27.5918 8.97352 26.6452 9.78277C25.9385 10.387 25.4716 11.2267 25.3364 12.1494C25.2906 12.4461 25.0376 12.6686 24.7366 12.6773C23.1115 12.7253 21.7439 13.9097 21.4647 15.5108C21.4647 15.5195 21.4647 15.5282 21.4603 15.5347V15.5369C21.4298 15.718 21.4167 15.9034 21.4167 16.0888C21.4232 17.969 22.9458 19.4916 24.826 19.4959H26.1936C26.2634 19.2909 26.3376 19.0924 26.4183 18.8961C26.5274 18.6343 26.6539 18.366 26.7935 18.0999C26.8262 18.0388 26.8458 17.9734 26.848 17.9036C26.8458 17.8338 26.8262 17.7662 26.7935 17.7051L26.5165 17.1576V17.1598C26.1871 16.5142 26.3114 15.7311 26.824 15.2206L28.0761 13.9599C28.5865 13.4429 29.3761 13.3186 30.0196 13.6523L30.5649 13.9293H30.5671C30.6282 13.9621 30.6958 13.9795 30.7634 13.9817C30.8332 13.9795 30.9008 13.9621 30.9619 13.9293C31.228 13.7876 31.4941 13.6632 31.7581 13.5542C32.022 13.4451 32.3034 13.3426 32.587 13.2532H32.5891C32.6546 13.2335 32.7135 13.1986 32.7636 13.1528C32.8116 13.1026 32.8487 13.0416 32.8683 12.9761L33.0581 12.3937C33.2762 11.7022 33.9197 11.2355 34.6439 11.2398H36.4238C37.1501 11.2333 37.7958 11.7023 38.0161 12.3937L38.2037 12.9761C38.2255 13.0416 38.2604 13.1026 38.3084 13.1528V13.155C38.3586 13.203 38.4196 13.2357 38.4851 13.2531C38.7686 13.3426 39.0413 13.4429 39.314 13.5542C39.5735 13.6632 39.844 13.7897 40.1101 13.9293C40.1712 13.9621 40.2388 13.9795 40.3064 13.9817C40.3762 13.9795 40.4439 13.9621 40.5049 13.9293L41.0503 13.6523C41.6959 13.3186 42.4833 13.4429 42.9938 13.9599L44.2502 15.2163C44.7649 15.7267 44.8914 16.5119 44.5599 17.1576L44.2807 17.7051C44.248 17.7662 44.2284 17.8338 44.2284 17.9036C44.2305 17.9712 44.248 18.0389 44.2829 18.0977C44.4225 18.366 44.5468 18.6322 44.6559 18.8939C44.7366 19.0924 44.8129 19.2909 44.8806 19.4938H46.2482V19.4959C47.2494 19.4959 48.2004 19.0553 48.8482 18.2919C49.4983 17.5263 49.7753 16.5164 49.6117 15.5283L49.6075 15.5284ZM38.8192 25.0084C38.5749 25.2505 38.1801 25.2505 37.938 25.0084C37.6937 24.7641 37.6937 24.3693 37.938 24.125L39.3907 22.6723L37.938 21.2174C37.6937 20.9752 37.6937 20.5804 37.938 20.3361C38.1801 20.0918 38.5749 20.0918 38.8192 20.3361L40.7147 22.2338C40.8325 22.3494 40.8979 22.5087 40.8979 22.6744C40.8979 22.8402 40.8325 22.9973 40.7147 23.115L38.8192 25.0084ZM35.916 18.8375V18.8353C36.0054 18.5038 36.3479 18.3053 36.6794 18.3947C37.0131 18.4841 37.2095 18.8266 37.12 19.1582L35.1504 26.5112C35.0609 26.8427 34.7185 27.0391 34.3869 26.9496C34.0554 26.8602 33.8591 26.5177 33.9485 26.1862L35.916 18.8375ZM33.1305 24.1271V24.1249C33.2526 24.2405 33.3224 24.4019 33.3246 24.5699C33.3268 24.7378 33.2614 24.8992 33.1414 25.0192C33.0236 25.137 32.8622 25.2024 32.6921 25.2003C32.5241 25.1981 32.3649 25.1283 32.2493 25.0083L30.3538 23.115V23.1128C30.1117 22.8685 30.1117 22.4759 30.3538 22.2316L32.2493 20.3361V20.3383C32.4936 20.1049 32.8796 20.1093 33.1196 20.3492C33.3595 20.5869 33.3639 20.973 33.1305 21.2195L31.6756 22.6744L33.1305 24.1271ZM35.5321 15.2122C39.6263 15.2471 42.9264 18.5757 42.9264 22.6697C42.9264 26.7639 39.6262 30.0925 35.5321 30.1293V30.125C33.5449 30.1424 31.6298 29.3659 30.2185 27.9655C28.8051 26.5652 28.0111 24.6587 28.0111 22.6694C28.0111 20.6801 28.8051 18.7737 30.2185 17.3733C31.6298 15.9751 33.5449 15.1964 35.5321 15.2139V15.2122ZM39.9273 18.2812V18.279C38.7625 17.1121 37.1811 16.4555 35.5321 16.4577C32.101 16.4577 29.3176 19.241 29.3176 22.6722C29.3176 26.1054 32.1009 28.8888 35.5321 28.8888V28.8867C38.0449 28.8845 40.309 27.3729 41.2708 25.052C42.2325 22.7311 41.7028 20.059 39.9273 18.2812ZM27.1801 20.3861C27.1714 20.4079 27.1605 20.4297 27.1496 20.4494C27.0776 20.5672 26.9947 20.6784 26.8987 20.7766C26.7111 20.9663 26.4777 21.1081 26.2225 21.1866L25.6401 21.3764C25.4591 21.4288 25.3369 21.5967 25.3457 21.7843V23.562C25.3369 23.7496 25.4591 23.9198 25.6401 23.9699L26.2225 24.1597C26.4778 24.2404 26.7112 24.38 26.8987 24.572C27.0863 24.7617 27.2237 24.9929 27.3044 25.2481C27.3808 25.4946 27.468 25.7345 27.564 25.9701C27.6665 26.2166 27.7756 26.45 27.8912 26.6681V26.6703C28.0155 26.9037 28.0831 27.1676 28.0831 27.4338C28.0853 27.6999 28.0221 27.9638 27.9021 28.2016L27.6207 28.7447V28.7469C27.5793 28.8276 27.564 28.9192 27.5749 29.0086C27.5902 29.0981 27.636 29.181 27.7014 29.2442L28.96 30.505C29.0211 30.5704 29.104 30.614 29.1934 30.6293C29.285 30.6424 29.3766 30.6271 29.4573 30.5835L30.0048 30.3043C30.4869 30.0578 31.0584 30.0622 31.5361 30.3152C31.7542 30.4286 31.9876 30.5377 32.2341 30.6424C32.4697 30.7406 32.7096 30.8278 32.9561 30.9041L32.9583 30.902C33.2135 30.9827 33.4469 31.1201 33.6366 31.3077C33.8264 31.4953 33.9682 31.7287 34.0489 31.9838L34.2365 32.5663V32.5641C34.291 32.7429 34.4568 32.8629 34.6444 32.8585H36.4243C36.6119 32.8651 36.7776 32.7451 36.8322 32.5641L37.0219 31.9817V31.9838C37.1026 31.7286 37.2422 31.4952 37.4342 31.3077C37.6261 31.1201 37.8595 30.9805 38.1148 30.902C38.3591 30.8256 38.6012 30.7384 38.8346 30.6402C39.0811 30.5377 39.3145 30.4286 39.5326 30.313L39.5348 30.3152C40.0147 30.06 40.5861 30.0578 41.0704 30.3065L41.6179 30.5835H41.6157C41.7815 30.6751 41.9843 30.6424 42.113 30.505L43.3694 29.2464C43.5069 29.1199 43.5396 28.9127 43.448 28.7491L43.1709 28.2059C42.9201 27.7239 42.9245 27.1502 43.1818 26.6703C43.2953 26.4522 43.4043 26.2188 43.5047 25.9723C43.6028 25.7367 43.6901 25.4968 43.7686 25.2503C43.9235 24.729 44.327 24.3189 44.8461 24.1597L45.4286 23.9699C45.5158 23.9416 45.5922 23.8892 45.6467 23.8172C45.699 23.7431 45.7252 23.6536 45.7252 23.562V21.7843C45.7252 21.6927 45.699 21.6033 45.6467 21.5291C45.5922 21.4571 45.5158 21.4026 45.4286 21.3764L44.8461 21.1866C44.5909 21.1059 44.3597 20.9642 44.17 20.7744C44.0762 20.6762 43.9933 20.5693 43.9235 20.4516C43.9104 20.4297 43.8973 20.4079 43.8886 20.3839C43.8384 20.2923 43.7992 20.1942 43.7708 20.0938C43.6923 19.8495 43.605 19.6074 43.5069 19.374C43.4065 19.1275 43.2975 18.8919 43.184 18.676V18.6738C43.0597 18.4382 42.9921 18.1765 42.9877 17.9104C42.9856 17.6421 43.051 17.3781 43.171 17.1404L43.448 16.5951H43.4502C43.4938 16.5166 43.5091 16.4249 43.496 16.3333C43.4807 16.2439 43.4349 16.1632 43.3716 16.0999L42.1152 14.8435C42.052 14.7781 41.9691 14.7345 41.8797 14.7192C41.7902 14.7039 41.6986 14.7214 41.6201 14.765L41.0726 15.042C40.8348 15.1664 40.5709 15.2296 40.3026 15.2252C40.0365 15.2231 39.7747 15.1576 39.5392 15.0311C39.321 14.9199 39.0898 14.8108 38.8412 14.7083C38.6056 14.6101 38.3656 14.5229 38.1213 14.4443C37.8661 14.3658 37.6327 14.2262 37.4407 14.0386C37.2532 13.8489 37.1114 13.6177 37.0307 13.3625L36.8409 12.7801H36.8387C36.8125 12.695 36.7602 12.6186 36.6882 12.5641C36.6119 12.5118 36.5224 12.4834 36.433 12.4834H34.6444C34.4568 12.4812 34.291 12.599 34.2365 12.7779L34.0489 13.3603C33.8875 13.8794 33.4774 14.2851 32.9561 14.44C32.7096 14.5185 32.4697 14.6058 32.2341 14.7039C31.9876 14.8043 31.752 14.9133 31.5361 15.0268L31.5339 15.0289C31.0562 15.2842 30.4804 15.2885 29.9983 15.0399L29.4552 14.7628V14.7607C29.2916 14.6712 29.0865 14.7039 28.9578 14.8392L27.6993 16.0956C27.636 16.161 27.5924 16.2417 27.5749 16.3312C27.5618 16.4206 27.5793 16.5122 27.6207 16.5929L27.9021 17.1382C28.0221 17.376 28.0853 17.6399 28.0832 17.9082C28.081 18.1743 28.0156 18.4361 27.889 18.6717C27.7756 18.8898 27.6665 19.1232 27.5618 19.3697C27.4637 19.6052 27.3764 19.8452 27.3023 20.0895C27.2717 20.192 27.2303 20.2902 27.1801 20.384L27.1801 20.3861ZM24.471 20.7286V20.7308C22.0476 20.5388 20.1739 18.519 20.1674 16.0869V16.0411H17.4255V27.9881H22.4227H22.4206C22.7368 27.9902 23.0401 28.1168 23.2625 28.3414C23.28 28.3567 23.2931 28.3741 23.3061 28.3938C23.5025 28.6075 23.6115 28.8889 23.6115 29.1812V30.7561H25.7361V30.7539C26.0502 30.7539 26.3512 30.8804 26.5737 31.1029C26.7983 31.3232 26.9249 31.6264 26.927 31.9427V39.7715H53.6454V16.0394H50.9014V16.0874C50.8949 18.5195 49.0233 20.5372 46.6 20.7313C46.6196 20.7531 46.6349 20.7771 46.6545 20.8011C46.8617 21.0868 46.973 21.4315 46.973 21.7848V23.5626C46.973 24.2889 46.504 24.9302 45.8147 25.1505L45.2323 25.3403C45.1669 25.3599 45.1058 25.3948 45.0556 25.4428C45.0098 25.4952 44.9749 25.5541 44.9553 25.6195C44.868 25.8987 44.7677 26.1757 44.6543 26.4462C44.5409 26.7145 44.4187 26.9763 44.2813 27.2424C44.2486 27.3035 44.2289 27.3711 44.2268 27.4409C44.2289 27.5107 44.2464 27.5783 44.2791 27.6394L44.5583 28.1847V28.1869C44.8899 28.8325 44.7655 29.6178 44.2486 30.1282L42.9922 31.3846H42.9943C42.4818 31.8994 41.6965 32.0215 41.0508 31.6922L40.5055 31.4152C40.4444 31.3803 40.3746 31.3628 40.3048 31.3628C40.2372 31.3628 40.1696 31.3824 40.1107 31.4152C39.8424 31.5569 39.5763 31.6813 39.3145 31.7903C39.0419 31.9016 38.767 32.0019 38.4856 32.0914C38.418 32.1088 38.3591 32.1437 38.309 32.1917C38.261 32.2419 38.2239 32.3029 38.2021 32.3684L38.0145 32.9508V32.9486C37.7942 33.6423 37.1507 34.1112 36.4221 34.1068H34.6444C33.9202 34.109 33.2768 33.6401 33.0564 32.9486L32.8667 32.3662V32.3684C32.847 32.3029 32.8121 32.2419 32.7642 32.1917C32.714 32.1437 32.6529 32.111 32.5875 32.0914C32.3039 32.0019 32.0269 31.9016 31.7586 31.7903C31.4903 31.6791 31.2285 31.5548 30.9624 31.4152C30.9013 31.3824 30.8337 31.3628 30.7639 31.3628C30.6941 31.3628 30.6265 31.3803 30.5654 31.4152L30.0201 31.6922C29.3745 32.0237 28.5892 31.8994 28.0766 31.3868L26.8202 30.1304H26.8224C26.3076 29.6178 26.1833 28.8326 26.5148 28.1869L26.7918 27.6416C26.8245 27.5805 26.8442 27.5129 26.8464 27.4431C26.842 27.3733 26.8245 27.3057 26.7918 27.2446C26.65 26.9785 26.5257 26.7124 26.4166 26.4506C26.3054 26.1801 26.2051 25.9009 26.1178 25.6217C26.0982 25.5563 26.0633 25.4952 26.0153 25.445C25.9651 25.397 25.9041 25.3621 25.8386 25.3425L25.2562 25.1527C24.9181 25.0458 24.6236 24.8343 24.4164 24.5464C24.2092 24.2606 24.098 23.916 24.098 23.5626V21.7849C24.0958 21.4315 24.2092 21.0869 24.4164 20.8012C24.4339 20.7772 24.4513 20.7532 24.471 20.7314L24.471 20.7286ZM50.7158 14.7911H54.2648V14.7933C54.6094 14.7933 54.8886 15.0725 54.8886 15.4149V40.3967C54.8886 40.7392 54.6094 41.0184 54.2648 41.0184H41.1094V44.2663H49.4659C49.6316 44.2663 49.7909 44.3317 49.9065 44.4473C50.0243 44.5651 50.0897 44.7243 50.0897 44.8879V48.0595C50.0897 48.2253 50.0243 48.3845 49.9065 48.5023C49.7909 48.6179 49.6316 48.6855 49.4659 48.6855H26.9249V50.4654C26.9249 50.7795 26.7962 51.0827 26.5737 51.3052C26.3512 51.5255 26.0502 51.652 25.7361 51.652H11.0607C10.7466 51.652 10.4456 51.5255 10.2231 51.3052L10.2187 51.2986H10.2166C9.99626 51.0762 9.87193 50.7752 9.87193 50.461V48.8927H7.74738C7.43327 48.8927 7.13006 48.7684 6.90759 48.5459V48.5415C6.68511 48.3191 6.56078 48.018 6.55859 47.7018V31.7063C6.55859 31.5035 6.65675 31.3137 6.82253 31.1981L10.7335 28.1247C10.8426 28.0375 10.9778 27.9917 11.1174 27.9917V27.9895H16.1801V15.4165C16.1801 15.0741 16.4571 14.7948 16.7996 14.7927H20.3507C20.8677 13.0236 22.3771 11.7236 24.2028 11.4728C24.8877 8.75277 27.6295 7.08845 30.358 7.73631C30.5216 7.77339 30.6831 7.8192 30.8423 7.87372C31.4247 6.49079 32.3735 5.29329 33.5863 4.41208C35.2223 3.22548 37.2399 2.68673 39.2491 2.89831C41.258 3.10989 43.1186 4.05872 44.4689 5.56161C45.8212 7.06449 46.5672 9.01454 46.5672 11.0344C46.5672 11.1631 46.5672 11.2983 46.5563 11.4401C48.5064 11.5775 50.1663 12.9146 50.716 14.7927L50.7158 14.7911ZM23.4826 47.4381C23.825 47.4381 24.1043 47.7173 24.1043 48.0619C24.1043 48.4044 23.8251 48.6836 23.4826 48.6836H13.3135C12.9689 48.6836 12.6919 48.4044 12.6919 48.0619C12.6919 47.7173 12.9689 47.4381 13.3135 47.4381H23.4826ZM23.4826 43.7801V43.7823C23.825 43.7823 24.1043 44.0593 24.1043 44.4039C24.1043 44.7486 23.8251 45.0256 23.4826 45.0256H13.3135C12.9689 45.0256 12.6919 44.7486 12.6919 44.4039C12.6919 44.0593 12.9689 43.7823 13.3135 43.7823L23.4826 43.7801ZM23.4826 36.4639C23.8272 36.4639 24.1064 36.7431 24.1064 37.0877C24.1064 37.4324 23.8272 37.7116 23.4826 37.7116H13.3135C12.9689 37.7116 12.6897 37.4324 12.6897 37.0877C12.6897 36.7431 12.9689 36.4639 13.3135 36.4639H23.4826ZM23.4826 40.1219V40.1241C23.8272 40.1241 24.1064 40.4033 24.1064 40.7457C24.1064 41.0904 23.8272 41.3696 23.4826 41.3696H13.3135C12.9689 41.3696 12.6897 41.0904 12.6897 40.7457C12.6897 40.4033 12.9689 40.1241 13.3135 40.1241L23.4826 40.1219ZM8.96638 31.0914H10.4911V29.8939L8.96638 31.0914ZM11.7366 29.2352V31.7174C11.7366 32.0599 11.4574 32.3391 11.1149 32.3391H7.80373V47.6449H9.87155V34.4677C9.87155 34.2649 9.9697 34.0751 10.1355 33.9595L12.8075 31.8589L14.0203 30.9058L14.0182 30.9036C14.1338 30.8054 14.2799 30.7509 14.4304 30.7531H22.3659V29.2371L11.7366 29.2352ZM12.2797 33.855H13.8044V32.6576L12.2797 33.855ZM15.052 31.9966V34.4789C15.052 34.6425 14.9866 34.8017 14.8688 34.9173C14.7532 35.0351 14.594 35.1005 14.4304 35.1005H11.117V50.4086H25.6791V31.9964L15.052 31.9966ZM26.9248 47.4353H48.8443V45.5093H26.9248V47.4353ZM26.9248 44.2616H29.9589V41.0159H26.9248V44.2616ZM39.8641 41.0137H31.2021V44.2616H39.8641V41.0137Z" fill="#431407"/>
</g>
<defs>
<clipPath id="clip0_1545_426">
<rect width="61.25" height="55" fill="white"/>
</clipPath>
</defs>
</svg>
