<svg width="62" height="68" viewBox="0 0 62 68" fill="none" xmlns="http://www.w3.org/2000/svg">
<g clip-path="url(#clip0_1545_437)">
<path fill-rule="evenodd" clip-rule="evenodd" d="M46.2477 13.3757H27.2969V28.4249H38.2421L38.9982 33.7174L42.7786 28.4249H46.2477V13.3757Z" fill="#7DBC44"/>
<rect x="15.0547" y="33.4429" width="19.5082" height="13.9344" fill="#7DBC44"/>
<path d="M21.0295 44.174C21.1666 44.2633 21.3256 44.309 21.4845 44.309C21.5999 44.309 21.7153 44.285 21.8242 44.2371L29.3488 40.8929C29.6514 40.7601 29.8452 40.4596 29.8452 40.1287C29.8452 39.7977 29.6514 39.4973 29.3488 39.3644L21.8242 36.0202C21.5651 35.907 21.2668 35.9309 21.0295 36.0833C20.79 36.2379 20.6484 36.5013 20.6484 36.7844V43.4729C20.6484 43.7559 20.7921 44.0194 21.0295 44.174ZM22.3206 38.0713L26.9516 40.1288L22.3206 42.1863V38.0713Z" fill="#083344"/>
<path d="M30.6798 23.4107H37.3683C37.8299 23.4107 38.2044 23.0362 38.2044 22.5746C38.2044 22.113 37.8299 21.7385 37.3683 21.7385H30.6798C30.2182 21.7385 29.8438 22.113 29.8438 22.5746C29.8438 23.0362 30.2182 23.4107 30.6798 23.4107Z" fill="#083344"/>
<path d="M30.6798 20.0601H42.3847C42.8463 20.0601 43.2208 19.6856 43.2208 19.224C43.2208 18.7624 42.8463 18.3879 42.3847 18.3879H30.6798C30.2182 18.3879 29.8438 18.7624 29.8438 19.224C29.8438 19.6856 30.2182 20.0601 30.6798 20.0601Z" fill="#083344"/>
<path d="M49.9142 21.7395C50.3758 21.7395 50.7503 22.1162 50.7503 22.5756V49.3297C50.7503 49.7913 51.1247 50.1657 51.5863 50.1657C52.0479 50.1657 52.4224 49.7913 52.4224 49.3297V22.5756C52.4224 21.193 51.2968 20.0674 49.9142 20.0674C49.4526 20.0674 49.0781 20.4419 49.0781 20.9034C49.0781 21.365 49.4526 21.7395 49.9142 21.7395Z" fill="#083344"/>
<path d="M9.76966 50.1657C10.2312 50.1657 10.6057 49.7913 10.6057 49.3297V22.5756C10.6057 22.1162 10.9802 21.7395 11.4418 21.7395H23.1467C23.6083 21.7395 23.9828 21.365 23.9828 20.9034C23.9828 20.4419 23.6083 20.0674 23.1467 20.0674H11.4418C10.0592 20.0674 8.93359 21.193 8.93359 22.5756V49.3297C8.93359 49.7913 9.30808 50.1657 9.76966 50.1657Z" fill="#083344"/>
<path d="M14.7853 31.772C14.3237 31.772 13.9492 32.1465 13.9492 32.608V47.6572C13.9492 48.1188 14.3237 48.4933 14.7853 48.4933H34.8509C35.3124 48.4933 35.6869 48.1188 35.6869 47.6572V32.608C35.6869 32.1465 35.3124 31.772 34.8509 31.772H14.7853ZM34.0148 46.8212H15.6213V33.4441H34.0148V46.8212Z" fill="#083344"/>
<path d="M28.1684 30.0981H37.3651V35.9505C37.3651 36.3228 37.6133 36.6516 37.9704 36.7539C38.0466 36.7757 38.1249 36.7866 38.2011 36.7866C38.4842 36.7866 38.7542 36.6429 38.9087 36.3925L42.8452 30.098H44.8897C46.2722 30.098 47.3979 28.9724 47.3979 27.5898V14.2128C47.3979 12.8302 46.2722 11.7046 44.8897 11.7046H28.1684C26.7858 11.7046 25.6602 12.8302 25.6602 14.2128V27.5898C25.6602 28.9724 26.7858 30.0981 28.1684 30.0981ZM27.3323 14.2128C27.3323 13.7534 27.7068 13.3767 28.1684 13.3767H44.8897C45.3513 13.3767 45.7258 13.7534 45.7258 14.2128V27.5899C45.7258 28.0493 45.3513 28.4259 44.8897 28.4259H42.3815C42.0941 28.4259 41.8263 28.574 41.6739 28.82L39.0372 33.0352V29.262C39.0372 28.8004 38.6627 28.4259 38.2012 28.4259H28.1684C27.7068 28.4259 27.3323 28.0493 27.3323 27.5899V14.2128Z" fill="#083344"/>
<path d="M54.9218 51.8354H36.5284C36.0668 51.8354 35.6923 52.2099 35.6923 52.6715C35.6923 53.1331 36.0668 53.5076 36.5284 53.5076H53.942C53.5958 54.4808 52.6661 55.1797 51.5775 55.1797H9.77419C8.6834 55.1797 7.7537 54.4808 7.40968 53.5076H24.8233C25.2848 53.5076 25.6593 53.1331 25.6593 52.6715C25.6593 52.2099 25.2848 51.8354 24.8233 51.8354H6.42982C5.96824 51.8354 5.59375 52.2099 5.59375 52.6715C5.59375 54.9772 7.46838 56.8518 9.77408 56.8518H51.5774C53.8831 56.8518 55.7577 54.9772 55.7577 52.6715C55.7577 52.2099 55.3834 51.8354 54.9218 51.8354Z" fill="#083344"/>
<path d="M22.3206 17.5534C22.3206 18.6681 20.6484 18.6681 20.6484 17.5534C20.6484 16.4386 22.3206 16.4386 22.3206 17.5534Z" fill="#083344"/>
<path d="M18.9612 17.5534C18.9612 18.6681 17.2891 18.6681 17.2891 17.5534C17.2891 16.4386 18.9612 16.4386 18.9612 17.5534Z" fill="#083344"/>
<path d="M15.6214 17.5534C15.6214 18.6681 13.9492 18.6681 13.9492 17.5534C13.9492 16.4386 15.6214 16.4386 15.6214 17.5534Z" fill="#083344"/>
<path d="M47.3987 47.6586C47.3987 48.7733 45.7266 48.7733 45.7266 47.6586C45.7266 46.5438 47.3987 46.5438 47.3987 47.6586Z" fill="#083344"/>
<path d="M44.051 47.6586C44.051 48.7733 42.3789 48.7733 42.3789 47.6586C42.3789 46.5438 44.051 46.5438 44.051 47.6586Z" fill="#083344"/>
<path d="M40.7112 47.6586C40.7112 48.7733 39.0391 48.7733 39.0391 47.6586C39.0391 46.5438 40.7112 46.5438 40.7112 47.6586Z" fill="#083344"/>
</g>
<defs>
<clipPath id="clip0_1545_437">
<rect width="61.3115" height="68" fill="white"/>
</clipPath>
</defs>
</svg>
