<svg width="52" height="53" viewBox="0 0 52 53" fill="none" xmlns="http://www.w3.org/2000/svg">
<rect x="12.5117" y="12.6433" width="28.6758" height="29.4111" fill="#7DBC44"/>
<path d="M16.9852 16.4824C17.068 16.4815 17.15 16.4665 17.2279 16.4383C17.4094 16.3718 17.5574 16.2366 17.64 16.0619C17.7225 15.8871 17.733 15.6869 17.669 15.5045C17.6055 15.3203 17.4715 15.1688 17.2964 15.0833C17.1214 14.9978 16.9195 14.9854 16.7352 15.0486C16.5524 15.1136 16.4026 15.2482 16.3186 15.4231C16.2346 15.598 16.2231 15.7991 16.2867 15.9824C16.336 16.1284 16.43 16.2553 16.5553 16.345C16.6807 16.4347 16.8311 16.4828 16.9852 16.4824Z" fill="#3B0764"/>
<path d="M35.2006 14.8491H24.2743C24.0793 14.8491 23.8923 14.9266 23.7544 15.0645C23.6165 15.2024 23.5391 15.3894 23.5391 15.5844C23.5391 15.7794 23.6165 15.9664 23.7544 16.1043C23.8923 16.2422 24.0793 16.3197 24.2743 16.3197H35.2006C35.8559 16.3216 36.4839 16.5823 36.948 17.045C37.412 17.5077 37.6746 18.1349 37.6784 18.7902V35.9222C37.6784 36.1172 37.7559 36.3042 37.8938 36.4421C38.0317 36.58 38.2187 36.6574 38.4137 36.6574C38.6087 36.6574 38.7958 36.58 38.9336 36.4421C39.0715 36.3042 39.149 36.1172 39.149 35.9222V18.7755C39.1413 17.7327 38.7221 16.7352 37.9826 15.9999C37.2432 15.2646 36.2434 14.851 35.2006 14.8491Z" fill="#3B0764"/>
<path d="M35.2065 38.4399H18.0305C17.3739 38.438 16.7448 38.1763 16.2805 37.712C15.8162 37.2477 15.5545 36.6186 15.5526 35.962V25.102C15.5526 24.907 15.4751 24.72 15.3372 24.5821C15.1993 24.4442 15.0123 24.3667 14.8173 24.3667C14.6223 24.3667 14.4353 24.4442 14.2974 24.5821C14.1595 24.72 14.082 24.907 14.082 25.102V35.962C14.084 37.0086 14.5006 38.0118 15.2407 38.7518C15.9807 39.4919 16.9839 39.9085 18.0305 39.9105H35.2065C35.4016 39.9105 35.5886 39.833 35.7265 39.6951C35.8644 39.5572 35.9418 39.3702 35.9418 39.1752C35.9418 38.9802 35.8644 38.7932 35.7265 38.6553C35.5886 38.5174 35.4016 38.4399 35.2065 38.4399Z" fill="#3B0764"/>
<path d="M34.7999 23.6724C34.7999 22.7999 34.5412 21.9469 34.0564 21.2214C33.5716 20.4959 32.8826 19.9305 32.0765 19.5966C31.2704 19.2627 30.3833 19.1753 29.5276 19.3455C28.6718 19.5157 27.8857 19.9359 27.2687 20.5529C26.6517 21.1699 26.2316 21.956 26.0613 22.8117C25.8911 23.6675 25.9785 24.5546 26.3124 25.3607C26.6463 26.1668 27.2117 26.8558 27.9372 27.3406C28.6627 27.8253 29.5157 28.0841 30.3882 28.0841C31.5583 28.0841 32.6804 27.6193 33.5077 26.7919C34.3351 25.9646 34.7999 24.8425 34.7999 23.6724ZM27.4986 23.6724C27.4986 23.0907 27.6711 22.5221 27.9943 22.0384C28.3174 21.5548 28.7768 21.1778 29.3142 20.9552C29.8516 20.7326 30.443 20.6743 31.0135 20.7878C31.584 20.9013 32.1081 21.1814 32.5194 21.5927C32.9307 22.0041 33.2108 22.5281 33.3243 23.0986C33.4378 23.6691 33.3795 24.2605 33.1569 24.7979C32.9343 25.3353 32.5574 25.7947 32.0737 26.1179C31.59 26.441 31.0214 26.6135 30.4397 26.6135C29.6597 26.6135 28.9116 26.3037 28.36 25.7521C27.8085 25.2005 27.4986 24.4524 27.4986 23.6724Z" fill="#3B0764"/>
<path d="M3.3161 6.6322C3.97196 6.6322 4.6131 6.43772 5.15843 6.07334C5.70376 5.70896 6.12879 5.19106 6.37978 4.58512C6.63077 3.97918 6.69644 3.31242 6.56848 2.66916C6.44053 2.0259 6.1247 1.43503 5.66094 0.971265C5.19717 0.5075 4.6063 0.191672 3.96304 0.0637194C3.31978 -0.0642331 2.65302 0.00143699 2.04708 0.252425C1.44115 0.503413 0.923241 0.928445 0.558864 1.47378C0.194486 2.01911 0 2.66024 0 3.3161C0 4.19559 0.349374 5.03905 0.971264 5.66094C1.59315 6.28283 2.43662 6.6322 3.3161 6.6322ZM3.3161 1.48526C3.68112 1.48526 4.03793 1.5935 4.34143 1.79629C4.64493 1.99908 4.88148 2.28732 5.02116 2.62455C5.16085 2.96178 5.1974 3.33286 5.12619 3.69086C5.05498 4.04886 4.8792 4.3777 4.6211 4.63581C4.363 4.89391 4.03415 5.06968 3.67615 5.14089C3.31815 5.2121 2.94707 5.17556 2.60984 5.03587C2.27261 4.89619 1.98438 4.65964 1.78159 4.35614C1.57879 4.05264 1.47055 3.69582 1.47055 3.33081C1.46861 3.08721 1.51492 2.84564 1.6068 2.62003C1.69867 2.39442 1.83431 2.18923 2.00588 2.01629C2.17744 1.84336 2.38155 1.7061 2.60643 1.61243C2.8313 1.51877 3.0725 1.47055 3.3161 1.47056V1.48526Z" fill="#3B0764"/>
<path d="M3.65112 45.6431C2.99349 45.6416 2.35022 45.8353 1.80271 46.1996C1.2552 46.5639 0.828084 47.0824 0.575412 47.6896C0.32274 48.2967 0.255875 48.9652 0.383279 49.6104C0.510684 50.2556 0.826631 50.8484 1.29113 51.314C1.75563 51.7795 2.3478 52.0967 2.99269 52.2256C3.63757 52.3544 4.30618 52.289 4.91389 52.0377C5.5216 51.7864 6.04109 51.3604 6.4066 50.8137C6.77212 50.267 6.96722 49.6242 6.96722 48.9665C6.96722 48.0864 6.61808 47.2421 5.9964 46.6191C5.37472 45.996 4.53128 45.645 3.65112 45.6431ZM3.65112 50.79C3.28403 50.7915 2.92478 50.6839 2.61895 50.4808C2.31312 50.2778 2.07449 49.9885 1.93333 49.6496C1.79218 49.3107 1.75487 48.9376 1.82613 48.5774C1.89739 48.2173 2.07401 47.8865 2.33359 47.6269C2.59316 47.3674 2.92399 47.1907 3.2841 47.1195C3.64421 47.0482 4.01737 47.0855 4.35624 47.2267C4.69512 47.3678 4.98442 47.6065 5.18746 47.9123C5.3905 48.2181 5.49812 48.5774 5.49667 48.9445C5.49473 49.4333 5.29967 49.9016 4.95398 50.2473C4.60829 50.593 4.13999 50.7881 3.65112 50.79Z" fill="#3B0764"/>
<path d="M46.4675 45.5776C45.8096 45.5762 45.166 45.7701 44.6183 46.1347C44.0707 46.4993 43.6436 47.0183 43.3911 47.6259C43.1387 48.2334 43.0722 48.9023 43.2002 49.5477C43.3282 50.193 43.6449 50.7859 44.1101 51.2511C44.5754 51.7164 45.1682 52.033 45.8136 52.161C46.459 52.289 47.1278 52.2226 47.7354 51.9702C48.343 51.7177 48.862 51.2906 49.2266 50.7429C49.5912 50.1953 49.7851 49.5517 49.7836 48.8937C49.7817 48.0149 49.4317 47.1725 48.8102 46.551C48.1887 45.9296 47.3464 45.5796 46.4675 45.5776ZM46.4675 50.7246C46.1007 50.726 45.7418 50.6186 45.4361 50.4159C45.1304 50.2132 44.8918 49.9243 44.7504 49.5859C44.6091 49.2474 44.5713 48.8746 44.642 48.5147C44.7126 48.1548 44.8885 47.824 45.1474 47.5641C45.4062 47.3042 45.7363 47.127 46.096 47.0549C46.4556 46.9829 46.8285 47.0191 47.1675 47.1591C47.5065 47.2992 47.7964 47.5366 48.0003 47.8415C48.2042 48.1464 48.3131 48.5049 48.3131 48.8717C48.316 49.1162 48.2704 49.359 48.1791 49.5858C48.0877 49.8127 47.9524 50.0193 47.7808 50.1936C47.6092 50.3679 47.4049 50.5065 47.1795 50.6014C46.9541 50.6963 46.7121 50.7457 46.4675 50.7466V50.7246Z" fill="#3B0764"/>
<path d="M46.158 7.32352e-05C45.4998 -0.0042957 44.8551 0.186902 44.3056 0.549421C43.7562 0.911941 43.3268 1.42945 43.0719 2.03634C42.8169 2.64322 42.748 3.31214 42.8737 3.95827C42.9994 4.60441 43.3142 5.19865 43.7781 5.66565C44.242 6.13266 44.8341 6.45138 45.4794 6.58141C46.1247 6.71145 46.7941 6.64693 47.4026 6.39605C48.0112 6.14517 48.5316 5.71922 48.8977 5.17221C49.2639 4.6252 49.4594 3.98178 49.4594 3.32353C49.4594 2.4459 49.1123 1.60389 48.4938 0.981255C47.8753 0.358617 47.0356 0.00589819 46.158 7.32352e-05ZM46.158 5.14701C45.7894 5.15136 45.4279 5.04564 45.1196 4.8434C44.8114 4.64115 44.5706 4.35156 44.4278 4.01167C44.2851 3.67178 44.247 3.29704 44.3184 2.93537C44.3898 2.57371 44.5674 2.24156 44.8286 1.98141C45.0898 1.72127 45.4227 1.54495 45.7846 1.475C46.1466 1.40506 46.5212 1.44467 46.8605 1.58877C47.1998 1.73288 47.4884 1.97492 47.6894 2.28394C47.8904 2.59297 47.9947 2.95493 47.9889 3.32353C47.987 3.80987 47.7939 4.27598 47.4514 4.62125C47.1089 4.96653 46.6443 5.16329 46.158 5.16907V5.14701Z" fill="#3B0764"/>
<path d="M19.4853 31.7601H32.7203C32.9153 31.7601 33.1023 31.6826 33.2402 31.5447C33.3781 31.4069 33.4555 31.2198 33.4555 31.0248C33.4555 30.8298 33.3781 30.6428 33.2402 30.5049C33.1023 30.367 32.9153 30.2896 32.7203 30.2896H19.4853C19.2903 30.2896 19.1032 30.367 18.9654 30.5049C18.8275 30.6428 18.75 30.8298 18.75 31.0248C18.75 31.2198 18.8275 31.4069 18.9654 31.5447C19.1032 31.6826 19.2903 31.7601 19.4853 31.7601Z" fill="#3B0764"/>
<path d="M19.8095 35.3609H33.0445C33.2395 35.3609 33.4265 35.2835 33.5644 35.1456C33.7023 35.0077 33.7798 34.8207 33.7798 34.6257C33.7798 34.4307 33.7023 34.2436 33.5644 34.1057C33.4265 33.9678 33.2395 33.8904 33.0445 33.8904H19.8095C19.6145 33.8904 19.4275 33.9678 19.2896 34.1057C19.1517 34.2436 19.0742 34.4307 19.0742 34.6257C19.0742 34.8207 19.1517 35.0077 19.2896 35.1456C19.4275 35.2835 19.6145 35.3609 19.8095 35.3609Z" fill="#3B0764"/>
<path d="M50.3796 33.6865C50.5746 33.6865 50.7617 33.609 50.8996 33.4711C51.0375 33.3332 51.1149 33.1462 51.1149 32.9512C51.1149 32.7562 51.0375 32.5692 50.8996 32.4313C50.7617 32.2934 50.5746 32.2159 50.3796 32.2159H45.6003V29.7601H50.3796C50.5746 29.7601 50.7617 29.6826 50.8996 29.5447C51.0375 29.4068 51.1149 29.2198 51.1149 29.0248C51.1149 28.8298 51.0375 28.6428 50.8996 28.5049C50.7617 28.367 50.5746 28.2895 50.3796 28.2895H45.6003V25.8337H50.3796C50.5746 25.8337 50.7617 25.7562 50.8996 25.6183C51.0375 25.4804 51.1149 25.2934 51.1149 25.0984C51.1149 24.9034 51.0375 24.7164 50.8996 24.5785C50.7617 24.4406 50.5746 24.3631 50.3796 24.3631H45.6003V21.9073H50.3796C50.5746 21.9073 50.7617 21.8298 50.8996 21.692C51.0375 21.5541 51.1149 21.367 51.1149 21.172C51.1149 20.977 51.0375 20.79 50.8996 20.6521C50.7617 20.5142 50.5746 20.4368 50.3796 20.4368H45.5048C45.3994 20.0585 45.1739 19.7248 44.8622 19.486C44.5504 19.2473 44.1695 19.1164 43.7768 19.1133H42.6078C42.5038 19.1146 42.4003 19.1269 42.2989 19.15V15.1428C42.2951 14.2281 41.9295 13.3521 41.282 12.706C40.6346 12.0599 39.7578 11.6962 38.8431 11.6943H34.4315C34.455 11.5831 34.4673 11.4698 34.4682 11.3561V10.187C34.4679 9.78629 34.3328 9.39734 34.0848 9.08263C33.8368 8.76793 33.4901 8.54573 33.1006 8.45174V3.63567C33.1006 3.44066 33.0232 3.25364 32.8853 3.11575C32.7474 2.97786 32.5604 2.90039 32.3653 2.90039C32.1703 2.90039 31.9833 2.97786 31.8454 3.11575C31.7075 3.25364 31.6301 3.44066 31.6301 3.63567V8.38556H29.2037V3.63567C29.2037 3.44066 29.1262 3.25364 28.9883 3.11575C28.8504 2.97786 28.6634 2.90039 28.4684 2.90039C28.2734 2.90039 28.0863 2.97786 27.9485 3.11575C27.8106 3.25364 27.7331 3.44066 27.7331 3.63567V8.38556H25.2773V3.63567C25.2773 3.44066 25.1998 3.25364 25.0619 3.11575C24.924 2.97786 24.737 2.90039 24.542 2.90039C24.347 2.90039 24.16 2.97786 24.0221 3.11575C23.8842 3.25364 23.8067 3.44066 23.8067 3.63567V8.38556H21.3362V3.63567C21.3362 3.44066 21.2587 3.25364 21.1208 3.11575C20.9829 2.97786 20.7959 2.90039 20.6009 2.90039C20.4059 2.90039 20.2189 2.97786 20.081 3.11575C19.9431 3.25364 19.8656 3.44066 19.8656 3.63567V8.46644C19.4954 8.57803 19.1707 8.80532 18.9391 9.11497C18.7076 9.42462 18.5813 9.80033 18.5789 10.187V11.3561C18.5676 11.4685 18.5676 11.5818 18.5789 11.6943H14.3878C13.4731 11.6962 12.5964 12.0599 11.9489 12.706C11.3015 13.3521 10.9359 14.2281 10.932 15.1428V20.0029C10.822 19.9921 10.7112 19.9921 10.6011 20.0029H9.43205C9.01058 20.0024 8.60215 20.149 8.27728 20.4175C7.9524 20.686 7.73148 21.0595 7.65267 21.4735H2.77043C2.57543 21.4735 2.38841 21.551 2.25051 21.6889C2.11262 21.8267 2.03516 22.0138 2.03516 22.2088C2.03516 22.4038 2.11262 22.5908 2.25051 22.7287C2.38841 22.8666 2.57543 22.9441 2.77043 22.9441H7.62326V25.3999H2.77043C2.57543 25.3999 2.38841 25.4773 2.25051 25.6152C2.11262 25.7531 2.03516 25.9402 2.03516 26.1352C2.03516 26.3302 2.11262 26.5172 2.25051 26.6551C2.38841 26.793 2.57543 26.8704 2.77043 26.8704H7.62326V29.3263H2.77043C2.57543 29.3263 2.38841 29.4037 2.25051 29.5416C2.11262 29.6795 2.03516 29.8665 2.03516 30.0615C2.03516 30.2565 2.11262 30.4436 2.25051 30.5815C2.38841 30.7194 2.57543 30.7968 2.77043 30.7968H7.62326V33.2379H2.77043C2.57543 33.2379 2.38841 33.3154 2.25051 33.4533C2.11262 33.5912 2.03516 33.7782 2.03516 33.9732C2.03516 34.1682 2.11262 34.3552 2.25051 34.4931C2.38841 34.631 2.57543 34.7085 2.77043 34.7085H7.74826C7.87887 35.0495 8.10961 35.3429 8.41015 35.5503C8.71068 35.7576 9.06693 35.8692 9.43205 35.8702H10.6011C10.7112 35.8811 10.822 35.8811 10.932 35.8702V39.6496C10.934 40.5648 11.2989 41.4419 11.9468 42.0884C12.5947 42.7349 13.4726 43.098 14.3878 43.098H18.6965C18.6853 43.2105 18.6853 43.3238 18.6965 43.4362V44.5612C18.6931 44.9302 18.8035 45.2912 19.0127 45.5952C19.2219 45.8991 19.5198 46.1312 19.8656 46.2597V51.2228C19.8656 51.4178 19.9431 51.6049 20.081 51.7427C20.2189 51.8806 20.4059 51.9581 20.6009 51.9581C20.7959 51.9581 20.9829 51.8806 21.1208 51.7427C21.2587 51.6049 21.3362 51.4178 21.3362 51.2228V46.37H23.792V51.2228C23.792 51.4178 23.8695 51.6049 24.0074 51.7427C24.1453 51.8806 24.3323 51.9581 24.5273 51.9581C24.7223 51.9581 24.9093 51.8806 25.0472 51.7427C25.1851 51.6049 25.2626 51.4178 25.2626 51.2228V46.37H27.7331V51.2228C27.7331 51.4178 27.8106 51.6049 27.9485 51.7427C28.0863 51.8806 28.2734 51.9581 28.4684 51.9581C28.6634 51.9581 28.8504 51.8806 28.9883 51.7427C29.1262 51.6049 29.2037 51.4178 29.2037 51.2228V46.37H31.6301V51.2228C31.6301 51.4178 31.7075 51.6049 31.8454 51.7427C31.9833 51.8806 32.1703 51.9581 32.3653 51.9581C32.5604 51.9581 32.7474 51.8806 32.8853 51.7427C33.0232 51.6049 33.1006 51.4178 33.1006 51.2228V46.3259C33.5116 46.2463 33.8824 46.0271 34.1503 45.7056C34.4183 45.384 34.567 44.9798 34.5712 44.5612V43.3921C34.5824 43.2797 34.5824 43.1664 34.5712 43.0539H38.902C39.8172 43.0539 40.6951 42.6908 41.343 42.0443C41.9909 41.3978 42.3558 40.5207 42.3578 39.6054V34.9732C42.4606 34.9804 42.5638 34.9804 42.6666 34.9732H43.8357C44.2277 34.9717 44.6085 34.8424 44.9203 34.6048C45.2321 34.3673 45.458 34.0346 45.5636 33.657L50.3796 33.6865ZM20.0642 11.3561V10.187C20.0661 10.0986 20.1026 10.0144 20.1658 9.95257C20.229 9.89072 20.3139 9.8561 20.4024 9.85612H32.6742C32.7626 9.8561 32.8475 9.89072 32.9108 9.95257C32.974 10.0144 33.0105 10.0986 33.0124 10.187V11.3561C33.0105 11.4452 32.9743 11.5301 32.9112 11.5932C32.8482 11.6562 32.7633 11.6924 32.6742 11.6943H20.4024C20.3133 11.6924 20.2283 11.6562 20.1653 11.5932C20.1023 11.5301 20.066 11.4452 20.0642 11.3561ZM10.6011 34.3923H9.43205C9.38763 34.3923 9.34365 34.3836 9.30261 34.3666C9.26158 34.3496 9.22429 34.3247 9.19288 34.2933C9.16148 34.2619 9.13656 34.2246 9.11957 34.1835C9.10257 34.1425 9.09382 34.0985 9.09382 34.0541V21.7823C9.09281 21.7376 9.10088 21.6932 9.11752 21.6517C9.13416 21.6102 9.15904 21.5725 9.19065 21.5409C9.22226 21.5093 9.25994 21.4844 9.30143 21.4678C9.34292 21.4511 9.38735 21.4431 9.43205 21.4441H10.6011C10.6452 21.4441 10.6888 21.4529 10.7295 21.47C10.7701 21.487 10.8069 21.5121 10.8377 21.5436C10.8686 21.5751 10.8928 21.6124 10.909 21.6534C10.9252 21.6944 10.933 21.7382 10.932 21.7823V34.0541C10.932 34.1425 10.8974 34.2275 10.8356 34.2907C10.7737 34.3539 10.6896 34.3904 10.6011 34.3923ZM33.1006 43.3921V44.5612C33.1006 44.6509 33.065 44.7369 33.0016 44.8004C32.9381 44.8638 32.8521 44.8994 32.7624 44.8994H20.4686C20.3801 44.8975 20.296 44.861 20.2341 44.7978C20.1723 44.7346 20.1377 44.6497 20.1377 44.5612V43.3921C20.1377 43.3037 20.1723 43.2187 20.2341 43.1555C20.296 43.0923 20.3801 43.0558 20.4686 43.0539H32.7403C32.7866 43.0509 32.8329 43.0574 32.8766 43.073C32.9202 43.0887 32.9601 43.1131 32.9939 43.1448C33.0277 43.1765 33.0546 43.2148 33.0729 43.2574C33.0913 43.2999 33.1007 43.3458 33.1006 43.3921ZM38.8652 41.5833H14.3878C14.1275 41.5843 13.8695 41.5339 13.6286 41.4349C13.3878 41.3359 13.1689 41.1904 12.9845 41.0066C12.8 40.8229 12.6537 40.6045 12.5538 40.3641C12.454 40.1236 12.4026 39.8658 12.4026 39.6054V15.1428C12.4045 14.6175 12.6145 14.1144 12.9866 13.7437C13.3587 13.373 13.8626 13.1649 14.3878 13.1649H38.8431C39.3684 13.1649 39.8722 13.373 40.2443 13.7437C40.6164 14.1144 40.8264 14.6175 40.8284 15.1428V20.6868C40.8211 20.765 40.8211 20.8438 40.8284 20.922V33.1938C40.8208 33.2721 40.8208 33.3509 40.8284 33.4291V39.6054C40.8284 39.8658 40.777 40.1236 40.6771 40.3641C40.5773 40.6045 40.4309 40.8229 40.2465 41.0066C40.062 41.1904 39.8431 41.3359 39.6023 41.4349C39.3615 41.5339 39.1035 41.5843 38.8431 41.5833H38.8652ZM44.1298 33.1938C44.1298 33.2835 44.0942 33.3696 44.0307 33.433C43.9673 33.4964 43.8813 33.5321 43.7916 33.5321H42.6078C42.5396 33.5325 42.4731 33.5114 42.4176 33.4718C42.3622 33.4322 42.3206 33.3761 42.2989 33.3115V20.8117C42.3225 20.7483 42.3644 20.6934 42.4195 20.6541C42.4745 20.6147 42.5401 20.5928 42.6078 20.5912H43.7768C43.866 20.593 43.9509 20.6293 44.0139 20.6923C44.077 20.7553 44.1132 20.8403 44.1151 20.9294L44.1298 33.1938Z" fill="#3B0764"/>
</svg>
