<svg width="36" height="50" viewBox="0 0 36 50" fill="none" xmlns="http://www.w3.org/2000/svg">
<path d="M29.3211 31.0297C30.6708 30.2715 31.5849 28.8251 31.5849 27.169V24.6579C31.5849 23.9051 31.8753 23.1953 32.413 22.663L34.1874 20.8832C35.0262 20.0444 35.4833 18.9313 35.4833 17.7484C35.4833 16.5654 35.0208 15.4523 34.1874 14.6135L32.413 12.8337C31.8806 12.3014 31.5849 11.5916 31.5849 10.8388V8.32773C31.5849 5.88654 29.5954 3.89703 27.1542 3.89703H24.6431C23.8903 3.89703 23.1805 3.60667 22.6482 3.07434L20.8738 1.29453C19.1477 -0.43151 16.3355 -0.43151 14.6095 1.29453L12.8351 3.07434C12.3027 3.60667 11.593 3.89703 10.8402 3.89703H8.32908C5.88789 3.89703 3.89837 5.88654 3.89837 8.32773V10.8388C3.89837 11.5916 3.60801 12.3014 3.0703 12.8337L1.29587 14.6081C0.457051 15.447 0 16.56 0 17.743C0 18.9259 0.462428 20.039 1.29587 20.8778L3.0703 22.6576C3.60263 23.1899 3.89837 23.8943 3.89837 24.6525V27.1636C3.89837 28.8197 4.81247 30.2608 6.16212 31.0243L0.876461 44.6982C0.763543 44.9939 0.833445 45.3273 1.0539 45.5532C1.27974 45.779 1.61312 45.8543 1.90886 45.7414L8.54416 43.2733L11.7973 49.5645C11.9371 49.8333 12.2113 50 12.5124 50C12.5286 50 12.5393 50 12.5555 50C12.8727 49.9839 13.1523 49.7795 13.2652 49.4838L17.7443 37.8962L22.2234 49.4838C22.3363 49.7795 22.6159 49.9785 22.9332 50C22.9493 50 22.9601 50 22.9762 50C23.2773 50 23.5516 49.8333 23.6914 49.5645L26.9445 43.2733L33.5798 45.7414C33.8755 45.8489 34.2089 45.779 34.4347 45.5532C34.6606 45.3273 34.7251 44.9939 34.6122 44.6982L29.3265 31.0243L29.3211 31.0297ZM26.8316 41.5257C26.4498 41.3859 26.0196 41.5473 25.8368 41.9129L23.0784 47.2469L18.6047 35.6755L18.7122 35.3905C19.5026 35.2131 20.2554 34.8205 20.8684 34.2076L22.6428 32.4277C23.1752 31.8954 23.8849 31.6051 24.6377 31.6051H27.1488C27.3639 31.6051 27.579 31.5835 27.7887 31.5513L32.456 43.6174L26.8262 41.5257H26.8316ZM16.8732 35.6701L12.3995 47.2416L9.64108 41.9075C9.50128 41.6333 9.21629 41.472 8.92593 41.472C8.83452 41.472 8.73773 41.4881 8.64632 41.5204L3.01653 43.612L7.68383 31.5459C7.89353 31.5782 8.10324 31.5997 8.3237 31.5997H10.8348C11.5876 31.5997 12.2974 31.89 12.8297 32.4224L14.6041 34.2022C15.2171 34.8152 15.9699 35.2077 16.7603 35.3851C16.8302 35.4013 16.8947 35.4174 16.9646 35.4281L16.8732 35.6701ZM4.20487 21.5231L2.43043 19.7432C1.8981 19.2109 1.60237 18.5011 1.60237 17.7484C1.60237 16.9956 1.89273 16.2858 2.43043 15.7535L4.20487 13.979C5.04369 13.1402 5.50074 12.0272 5.50074 10.8442V8.33311C5.50074 6.77914 6.76435 5.51553 8.31832 5.51553H10.8294C12.0124 5.51553 13.1254 5.0531 13.9642 4.21965L15.7387 2.43984C16.8356 1.34292 18.6262 1.34292 19.7231 2.43984L21.4975 4.21965C22.3363 5.05848 23.444 5.51553 24.6323 5.51553H27.1434C28.6974 5.51553 29.961 6.77914 29.961 8.33311V10.8442C29.961 12.0272 30.4234 13.1402 31.2569 13.979L33.0313 15.7535C33.5637 16.2858 33.8594 16.9956 33.8594 17.7484C33.8594 18.5011 33.569 19.2109 33.0313 19.7432L31.2569 21.5177C30.4181 22.3565 29.961 23.4642 29.961 24.6525V27.1636C29.961 28.1315 29.4663 28.9918 28.7189 29.4972C28.4985 29.6478 28.2457 29.7553 27.9876 29.836C27.7295 29.9167 27.4607 29.9704 27.1757 29.9758C27.1649 29.9758 27.1542 29.9758 27.1434 29.9758H24.6323C24.4764 29.9758 24.3205 29.9866 24.1699 30.0027C23.3902 30.0833 22.659 30.3683 22.0298 30.8308C21.847 30.9652 21.6696 31.1104 21.5029 31.2771L19.7285 33.0569C19.6747 33.1106 19.6102 33.1483 19.5564 33.1967C19.2338 33.4709 18.8627 33.6645 18.4702 33.772C18.2874 33.8204 18.0992 33.8527 17.9056 33.8634C17.7927 33.8688 17.6798 33.8688 17.5669 33.8634C17.3787 33.8527 17.1905 33.8204 17.0023 33.772C16.6098 33.6645 16.2387 33.4763 15.9161 33.1967C15.857 33.1483 15.7978 33.1106 15.7441 33.0569L13.9696 31.2771C13.8029 31.1104 13.6255 30.9652 13.4427 30.8308C12.8135 30.3683 12.0823 30.0833 11.3026 30.0027C11.1467 29.9866 10.9961 29.9758 10.8402 29.9758H8.32908C8.32908 29.9758 8.30757 29.9758 8.29681 29.9758C8.01183 29.9758 7.74298 29.9167 7.48488 29.836C7.2214 29.7553 6.97406 29.6478 6.7536 29.4972C6.00618 28.9918 5.51149 28.1315 5.51149 27.1636V24.6525C5.51149 23.4696 5.04907 22.3565 4.21562 21.5177L4.20487 21.5231ZM17.7389 27.7766C23.2666 27.7766 27.7618 23.2814 27.7618 17.7537C27.7618 12.2261 23.2666 7.73088 17.7389 7.73088C12.2113 7.73088 7.71609 12.2261 7.71609 17.7537C7.71609 23.2814 12.2113 27.7766 17.7389 27.7766ZM17.7389 9.344C22.374 9.344 26.1487 13.1187 26.1487 17.7537C26.1487 22.3888 22.374 26.1635 17.7389 26.1635C13.1039 26.1635 9.32921 22.3888 9.32921 17.7537C9.32921 13.1187 13.1039 9.344 17.7389 9.344ZM13.3351 20.2111C13.0448 19.8723 13.0824 19.3615 13.4212 19.0711C13.7599 18.7807 14.2707 18.8184 14.5611 19.1571L15.373 20.0981L20.9275 13.6457C21.2179 13.3069 21.7287 13.2693 22.0675 13.5596C22.4062 13.85 22.4439 14.3608 22.1535 14.6996L15.9914 21.8618C15.8355 22.0393 15.615 22.1414 15.3784 22.1414C15.1418 22.1414 14.9214 22.0393 14.7654 21.8618L13.3459 20.2111H13.3351Z" fill="#422006" fill-opacity="0.8"/>
<circle cx="18.7043" cy="18.0627" r="5.73554" fill="#643D06"/>
<path d="M17.7478 26.3475C12.9962 26.3475 9.14453 22.4958 9.14453 17.7442C9.14453 12.9926 12.9962 9.14087 17.7478 9.14087C22.4994 9.14087 26.3511 12.9926 26.3511 17.7442C26.3511 22.4958 22.4994 26.3475 17.7478 26.3475ZM16.8901 21.1855L22.9726 15.1021L21.757 13.8856L16.8901 18.7525L14.4562 16.3186L13.2397 17.5351L16.8901 21.1855Z" fill="#6FBE01"/>
</svg>
