<svg width="33" height="33" viewBox="0 0 33 33" fill="none" xmlns="http://www.w3.org/2000/svg">
<path fill-rule="evenodd" clip-rule="evenodd" d="M11 9.625C11 8.16631 11.5795 6.76736 12.6109 5.73591C13.6424 4.70446 15.0413 4.125 16.5 4.125C17.9587 4.125 19.3576 4.70446 20.3891 5.73591C21.4205 6.76736 22 8.16631 22 9.625C22 11.0837 21.4205 12.4826 20.3891 13.5141C19.3576 14.5455 17.9587 15.125 16.5 15.125C15.0413 15.125 13.6424 14.5455 12.6109 13.5141C11.5795 12.4826 11 11.0837 11 9.625ZM11 17.875C9.17664 17.875 7.42795 18.5993 6.13864 19.8886C4.84933 21.178 4.125 22.9266 4.125 24.75C4.125 25.844 4.5596 26.8932 5.33318 27.6668C6.10677 28.4404 7.15598 28.875 8.25 28.875H24.75C25.844 28.875 26.8932 28.4404 27.6668 27.6668C28.4404 26.8932 28.875 25.844 28.875 24.75C28.875 22.9266 28.1507 21.178 26.8614 19.8886C25.572 18.5993 23.8234 17.875 22 17.875H11Z" fill="white"/>
</svg>
