<svg width="55" height="55" viewBox="0 0 55 55" fill="none" xmlns="http://www.w3.org/2000/svg">
<ellipse cx="27.5082" cy="27.8022" rx="9.77772" ry="9.47217" fill="#7DBC44"/>
<path fill-rule="evenodd" clip-rule="evenodd" d="M24.6451 9.02123C24.934 8.73238 25.3326 8.55097 25.7719 8.55097L29.1593 8.5438C29.5961 8.5438 29.9948 8.72045 30.2836 9.0093C30.5724 9.29814 30.7538 9.69441 30.7538 10.1361L30.7586 12.0697L30.8875 12.0983C31.7803 12.2941 32.6564 12.5686 33.5086 12.9195C34.3609 13.2705 35.1772 13.6929 35.9483 14.1823L36.0605 14.2539L37.4259 12.8837C37.7339 12.5734 38.1445 12.4182 38.5527 12.4182C38.9609 12.4182 39.3691 12.571 39.6795 12.8789L42.0785 15.2685C42.3889 15.5764 42.544 15.987 42.544 16.3952C42.544 16.8035 42.3913 17.2116 42.0833 17.522L40.7155 18.8946L40.7871 19.0068C41.2836 19.7802 41.7109 20.5967 42.0618 21.4393C42.4103 22.2796 42.6896 23.1557 42.8902 24.0556L42.9188 24.1845L44.8572 24.1797C45.294 24.1797 45.6927 24.3564 45.9815 24.6452C46.2703 24.9341 46.4517 25.3327 46.4517 25.772L46.4589 29.1593C46.4589 29.5962 46.2823 29.9948 45.9934 30.2837C45.7046 30.5725 45.3083 30.7539 44.8667 30.7539L42.9331 30.7587L42.9044 30.8876C42.7087 31.7804 42.4341 32.6565 42.0832 33.5087C41.7323 34.361 41.3098 35.1773 40.8204 35.9484L40.7488 36.0606L42.119 37.426C42.4293 37.734 42.5845 38.1446 42.5845 38.5528C42.5845 38.961 42.4317 39.3692 42.1238 39.6795L39.7342 42.0786C39.4263 42.389 39.0157 42.5441 38.6075 42.5441C38.1993 42.5441 37.7911 42.3913 37.4807 42.0834L36.1081 40.7156L35.9959 40.7872C35.2225 41.2837 34.4061 41.711 33.561 42.0619C32.7207 42.4104 31.8447 42.6897 30.9447 42.8902L30.8158 42.9189L30.8206 44.8573C30.8206 45.2941 30.644 45.6928 30.3551 45.9816C30.0663 46.2704 29.6676 46.4518 29.2284 46.4518L25.841 46.459C25.4041 46.4614 25.0055 46.2824 24.7167 45.9935C24.4278 45.7047 24.2464 45.3084 24.2464 44.8667L24.2416 42.9331L24.1127 42.9045C23.22 42.7088 22.3439 42.4342 21.494 42.0833C20.6418 41.7324 19.8254 41.3099 19.0543 40.8205L18.9422 40.7489L17.5767 42.1191C17.2688 42.4294 16.8582 42.5846 16.4499 42.5846C16.0417 42.5846 15.6336 42.4318 15.3232 42.1239L12.9241 39.7343C12.6138 39.4264 12.4586 39.0158 12.4586 38.6076C12.4586 38.1993 12.6114 37.7912 12.9193 37.4808L14.2872 36.1082L14.2155 35.996C13.719 35.2226 13.2917 34.4061 12.9408 33.5635C12.5899 32.7232 12.313 31.8471 12.1125 30.9448L12.0838 30.8159L10.1455 30.8206C9.70861 30.8206 9.30995 30.644 9.02114 30.3551C8.7323 30.0663 8.55088 29.6677 8.55088 29.2284L8.54372 25.841C8.54133 25.4042 8.72036 25.0055 9.00921 24.7167C9.29805 24.4279 9.6967 24.2464 10.136 24.2464L12.0696 24.2417L12.0982 24.1128C12.294 23.22 12.5685 22.3439 12.9194 21.494C13.2703 20.6418 13.6928 19.8254 14.1822 19.0544L14.2538 18.9422L12.8836 17.5767C12.5733 17.2688 12.4181 16.8582 12.4181 16.45C12.4181 16.0417 12.5709 15.6336 12.8788 15.3232L15.2684 12.9241C15.5763 12.6138 15.9869 12.4586 16.3951 12.4586C16.8034 12.4586 17.2115 12.6114 17.5219 12.9193L18.8945 14.2872L19.0067 14.2156C19.7801 13.719 20.5966 13.2918 21.4392 12.9409C22.2795 12.5923 23.1556 12.3131 24.0555 12.1125L24.1844 12.0839L24.1796 10.1455C24.1796 9.70864 24.3563 9.31004 24.6451 9.02123ZM25.7719 9.80663C25.6812 9.80663 25.5976 9.84482 25.5356 9.90689C25.4735 9.96895 25.4353 10.0549 25.4353 10.1456L25.4401 12.5853C25.4401 12.8884 25.2252 13.1415 24.9388 13.2011L24.3277 13.3372C23.5089 13.521 22.7044 13.7764 21.9214 14.1035C21.1432 14.4281 20.396 14.8196 19.6847 15.2756L19.1475 15.6193C18.8873 15.7864 18.5484 15.7363 18.3455 15.5167L16.6339 13.8146C16.5694 13.7502 16.4811 13.7167 16.3928 13.7167C16.3068 13.7167 16.2209 13.7502 16.1564 13.8146L13.7669 16.2137C13.7024 16.2782 13.669 16.3665 13.669 16.4548C13.669 16.5407 13.7024 16.6267 13.7669 16.6911L15.4976 18.4146C15.71 18.6271 15.7387 18.9541 15.5859 19.1952H15.5883L15.2469 19.7347C14.791 20.4532 14.3995 21.2028 14.082 21.9786C13.7645 22.752 13.5115 23.5589 13.33 24.3872L13.194 25.0103C13.1271 25.3206 12.8407 25.5283 12.5304 25.5044L10.1361 25.5092C10.0453 25.5092 9.96179 25.5474 9.89973 25.6094C9.83766 25.6715 9.79947 25.7574 9.79947 25.8481L9.80663 29.2355C9.80663 29.3262 9.84482 29.4098 9.90689 29.4718C9.96895 29.5339 10.0549 29.5721 10.1456 29.5721L12.5853 29.5673C12.8884 29.5673 13.1415 29.7822 13.2011 30.0686L13.3372 30.6797C13.521 31.4985 13.7764 32.303 14.1035 33.086C14.4281 33.8642 14.8196 34.6114 15.2756 35.3227L15.6193 35.8599C15.7864 36.1201 15.7363 36.459 15.5167 36.6619L13.8146 38.3735C13.7502 38.438 13.7167 38.5263 13.7167 38.6146C13.7167 38.7006 13.7502 38.7865 13.8146 38.8509L16.2137 41.2405C16.2782 41.305 16.3665 41.3384 16.4548 41.3384C16.5407 41.3384 16.6267 41.305 16.6911 41.2405L18.4146 39.5098C18.6271 39.2974 18.9541 39.2687 19.1952 39.4215V39.4191L19.7347 39.7605C20.4532 40.2164 21.2051 40.6079 21.9786 40.9254C22.752 41.2429 23.5589 41.4959 24.3872 41.6774L25.0103 41.8134C25.3206 41.8803 25.5283 42.1667 25.5044 42.477L25.5092 44.8713C25.5092 44.9621 25.5474 45.0456 25.6094 45.1077C25.6715 45.1697 25.7574 45.2079 25.8481 45.2079L29.2355 45.2008C29.3262 45.2008 29.4098 45.1626 29.4718 45.1005C29.5339 45.0384 29.5721 44.9525 29.5721 44.8618L29.5673 42.4198C29.5673 42.1166 29.7822 41.8635 30.0686 41.8039L30.6797 41.6678C31.4985 41.484 32.303 41.2286 33.086 40.9039C33.8642 40.5793 34.6114 40.1878 35.3227 39.7318L35.8599 39.3881C36.1201 39.221 36.459 39.2711 36.6619 39.4907L38.3735 41.1928C38.438 41.2572 38.5263 41.2907 38.6146 41.2907C38.7006 41.2907 38.7865 41.2572 38.851 41.1928L41.2405 38.7937C41.305 38.7292 41.3384 38.6409 41.3384 38.5526C41.3384 38.4667 41.305 38.3807 41.2405 38.3163L39.5098 36.5928C39.2974 36.3803 39.2687 36.0533 39.4215 35.8122H39.4191L39.7605 35.2727C40.2164 34.5542 40.6055 33.8046 40.9254 33.0312C41.2429 32.2577 41.4959 31.4509 41.6774 30.6225L41.8134 29.9995C41.8803 29.6892 42.1667 29.4815 42.477 29.5054L44.8713 29.5006C44.9621 29.5006 45.0456 29.4624 45.1077 29.4003C45.1697 29.3383 45.2079 29.2523 45.2079 29.1616L45.2008 25.7743C45.2008 25.6836 45.1626 25.6 45.1005 25.5379C45.0385 25.4759 44.9525 25.4377 44.8618 25.4377L42.4221 25.4425C42.119 25.4425 41.8659 25.2276 41.8063 24.9412L41.6702 24.33C41.4864 23.5113 41.231 22.7068 40.9039 21.9238C40.5793 21.1456 40.1878 20.3984 39.7318 19.687L39.3881 19.1499C39.221 18.8897 39.2711 18.5508 39.4907 18.3478L41.1928 16.6363C41.2572 16.5718 41.2907 16.4835 41.2907 16.3952C41.2907 16.3092 41.2572 16.2233 41.1928 16.1588L38.7937 13.7693C38.7292 13.7048 38.6409 13.6714 38.5526 13.6714C38.4667 13.6714 38.3807 13.7048 38.3163 13.7693L36.5928 15.4999C36.3803 15.7124 36.0533 15.741 35.8122 15.5883V15.5906L35.2727 15.2493C34.5542 14.7933 33.8046 14.4042 33.0312 14.0844C32.2577 13.7669 31.4509 13.5139 30.6225 13.3324L29.9995 13.1964C29.6892 13.1295 29.4815 12.8431 29.5054 12.5328L29.5006 10.1384C29.5006 10.0477 29.4624 9.96417 29.4003 9.90211C29.3383 9.84004 29.2523 9.80185 29.1616 9.80185L25.7743 9.80901L25.7719 9.80663ZM28.3715 1.62084C28.1495 1.39884 27.8415 1.26038 27.5025 1.26038C27.1636 1.26038 26.8556 1.39884 26.6336 1.62084C26.4116 1.84284 26.2731 2.15079 26.2731 2.48977C26.2731 2.82875 26.4116 3.13669 26.6336 3.35871C26.8556 3.58071 27.1636 3.71916 27.5025 3.71916C27.8415 3.71916 28.1495 3.58071 28.3715 3.35871C28.5935 3.13671 28.7319 2.82876 28.7319 2.48977C28.7319 2.1508 28.5935 1.84286 28.3715 1.62084ZM28.1328 4.89601V6.60522C28.1328 6.95374 27.8511 7.23539 27.5026 7.23539C27.1541 7.23539 26.8724 6.95371 26.8724 6.60522V4.89601C26.438 4.78382 26.0512 4.55465 25.7433 4.24671C25.2921 3.79554 25.0152 3.17489 25.0152 2.48739C25.0152 1.7999 25.2945 1.17925 25.7433 0.728074C26.1944 0.276905 26.8151 0 27.5026 0C28.1901 0 28.8107 0.279295 29.2619 0.728074C29.7131 1.17924 29.99 1.7999 29.99 2.48739C29.99 3.17489 29.7107 3.79553 29.2619 4.24671C28.954 4.55465 28.5673 4.78143 28.1328 4.89601ZM9.81604 8.58655C9.50094 8.58655 9.18825 8.70591 8.9471 8.94701C8.70839 9.18572 8.58665 9.50082 8.58665 9.81594C8.58665 10.1311 8.706 10.4437 8.9471 10.6849C9.18581 10.9236 9.50092 11.0453 9.81604 11.0453C10.1312 11.0453 10.4438 10.926 10.685 10.6849C10.9237 10.4462 11.0454 10.1311 11.0454 9.81594C11.0454 9.50082 10.9261 9.18815 10.685 8.94701C10.4463 8.70829 10.1312 8.58655 9.81604 8.58655ZM11.9644 11.0716C12.1912 10.6848 12.3058 10.2504 12.3058 9.81353C12.3058 9.17615 12.0623 8.54121 11.5777 8.05421C11.0908 7.56723 10.4558 7.32614 9.81841 7.32614C9.18341 7.32614 8.54609 7.56963 8.0591 8.05421C7.57212 8.54119 7.33102 9.17615 7.33102 9.81353C7.33102 10.4485 7.57451 11.0859 8.0591 11.5729C8.54607 12.0598 9.18103 12.3009 9.81841 12.3009C10.2529 12.3009 10.6897 12.1863 11.0764 11.9596L12.2844 13.1675C12.5302 13.4134 12.9289 13.4134 13.1747 13.1675C13.4206 12.9216 13.4206 12.5229 13.1747 12.2771L11.9668 11.0692L11.9644 11.0716ZM1.62084 26.631C1.39884 26.853 1.26038 27.1609 1.26038 27.4999C1.26038 27.8389 1.39884 28.1468 1.62084 28.3688C1.84284 28.5908 2.15079 28.7293 2.48977 28.7293C2.82875 28.7293 3.13669 28.5908 3.35871 28.3688C3.58071 28.1468 3.71916 27.8389 3.71916 27.4999C3.71916 27.1609 3.58071 26.853 3.35871 26.631C3.1367 26.409 2.82876 26.2705 2.48977 26.2705C2.1508 26.2705 1.84286 26.409 1.62084 26.631ZM4.89601 26.8697H6.60522C6.95374 26.8697 7.23539 27.1514 7.23539 27.4999C7.23539 27.8483 6.95371 28.13 6.60522 28.13H4.89601C4.78382 28.5645 4.55465 28.9512 4.24671 29.2592C3.79554 29.7103 3.17489 29.9872 2.48739 29.9872C1.79989 29.9872 1.17925 29.7079 0.728074 29.2592C0.276905 28.808 0 28.1873 0 27.4999C0 26.8124 0.279295 26.1917 0.728074 25.7405C1.17924 25.2894 1.79989 25.0125 2.48739 25.0125C3.17489 25.0125 3.79553 25.2918 4.24671 25.7405C4.55465 26.0485 4.78143 26.4352 4.89601 26.8697ZM8.58655 45.1864C8.58655 45.5015 8.7059 45.8142 8.94701 46.0553C9.18572 46.294 9.50082 46.4158 9.81594 46.4158C10.1311 46.4158 10.4437 46.2964 10.6849 46.0553C10.9236 45.8142 11.0453 45.5015 11.0453 45.1864C11.0453 44.8713 10.926 44.5586 10.6849 44.3175C10.4462 44.0788 10.1311 43.957 9.81594 43.957C9.50082 43.957 9.18815 44.0764 8.94701 44.3175C8.70829 44.5562 8.58655 44.8713 8.58655 45.1864ZM11.0716 43.038C10.6848 42.8112 10.2504 42.6966 9.81353 42.6966C9.17615 42.6966 8.5412 42.9401 8.05421 43.4247C7.56723 43.9117 7.32614 44.5466 7.32614 45.184C7.32614 45.819 7.56963 46.4564 8.05421 46.9433C8.54119 47.4303 9.17615 47.6714 9.81353 47.6714C10.4485 47.6714 11.0859 47.4279 11.5728 46.9433C12.0598 46.4588 12.3009 45.8214 12.3009 45.184C12.3009 44.7496 12.1863 44.3127 11.9596 43.926L13.1675 42.7181C13.4134 42.4722 13.4134 42.0736 13.1675 41.8277C12.9216 41.5818 12.5229 41.5818 12.2771 41.8277L11.0692 43.0356L11.0716 43.038ZM26.6334 53.3792C26.8554 53.6012 27.1634 53.7396 27.5023 53.7396C27.8413 53.7396 28.1493 53.6012 28.3713 53.3792C28.5933 53.1572 28.7317 52.8492 28.7317 52.5102C28.7317 52.1713 28.5933 51.8633 28.3713 51.6413C28.1493 51.4193 27.8413 51.2808 27.5023 51.2808C27.1634 51.2808 26.8554 51.4193 26.6334 51.6413C26.4114 51.8633 26.273 52.1712 26.273 52.5102C26.273 52.8492 26.4114 53.1571 26.6334 53.3792ZM26.8721 50.104V48.3948C26.8721 48.0463 27.1538 47.7646 27.5023 47.7646C27.8508 47.7646 28.1325 48.0463 28.1325 48.3948V50.104C28.5669 50.2162 28.9537 50.4454 29.2616 50.7533C29.7128 51.2045 29.9897 51.8251 29.9897 52.5126C29.9897 53.2001 29.7104 53.8207 29.2616 54.2719C28.8128 54.7207 28.1898 55 27.5023 55C26.8148 55 26.1942 54.7207 25.743 54.2719C25.2918 53.8208 25.0149 53.2001 25.0149 52.5126C25.0149 51.8251 25.2942 51.2045 25.743 50.7533C26.0509 50.4454 26.4376 50.2186 26.8721 50.104ZM45.1889 46.4135C45.5039 46.4135 45.8166 46.2941 46.0578 46.053C46.2965 45.8143 46.4182 45.4992 46.4182 45.1841C46.4182 44.8689 46.2989 44.5563 46.0578 44.3151C45.8191 44.0764 45.504 43.9547 45.1889 43.9547C44.8737 43.9547 44.5611 44.074 44.3199 44.3151C44.0812 44.5538 43.9595 44.8689 43.9595 45.1841C43.9595 45.4992 44.0788 45.8119 44.3199 46.053C44.5586 46.2917 44.8737 46.4135 45.1889 46.4135ZM43.0404 43.9284C42.8137 44.3152 42.6991 44.7496 42.6991 45.1865C42.6991 45.8239 42.9426 46.4588 43.4272 46.9458C43.9141 47.4328 44.5491 47.6739 45.1865 47.6739C45.8215 47.6739 46.4588 47.4304 46.9458 46.9458C47.4328 46.4588 47.6739 45.8239 47.6739 45.1865C47.6739 44.5515 47.4304 43.9141 46.9458 43.4272C46.4588 42.9402 45.8239 42.6991 45.1865 42.6991C44.752 42.6991 44.3152 42.8137 43.9284 43.0404L42.7205 41.8325C42.4747 41.5866 42.076 41.5866 41.8301 41.8325C41.5843 42.0784 41.5843 42.4771 41.8301 42.7229L43.0381 43.9308L43.0404 43.9284ZM53.3816 28.3666C53.6036 28.1446 53.7421 27.8366 53.7421 27.4977C53.7421 27.1587 53.6036 26.8507 53.3816 26.6287C53.1596 26.4067 52.8517 26.2683 52.5127 26.2683C52.1737 26.2683 51.8657 26.4067 51.6437 26.6287C51.4217 26.8507 51.2833 27.1587 51.2833 27.4977C51.2833 27.8366 51.4217 28.1446 51.6437 28.3666C51.8657 28.5886 52.1737 28.727 52.5127 28.727C52.8516 28.727 53.1596 28.5886 53.3816 28.3666ZM50.1064 28.1279H48.3972C48.0487 28.1279 47.7671 27.8462 47.7671 27.4977C47.7671 27.1492 48.0487 26.8675 48.3972 26.8675H50.1064C50.2186 26.4331 50.4478 26.0463 50.7557 25.7384C51.2069 25.2872 51.8276 25.0103 52.5151 25.0103C53.2025 25.0103 53.8232 25.2896 54.2744 25.7384C54.7255 26.1896 55.0024 26.8102 55.0024 27.4977C55.0024 28.1852 54.7231 28.8058 54.2744 29.257C53.8256 29.7058 53.2025 29.9851 52.5151 29.9851C51.8276 29.9851 51.2069 29.7058 50.7557 29.257C50.4478 28.9491 50.221 28.5624 50.1064 28.1279ZM46.4159 9.81115C46.4159 9.49604 46.2965 9.18336 46.0554 8.94221C45.8143 8.7035 45.5016 8.58176 45.1865 8.58176C44.8714 8.58176 44.5587 8.70111 44.3176 8.94221C44.0789 9.18093 43.9571 9.49603 43.9571 9.81115C43.9571 10.1262 44.0765 10.4389 44.3176 10.6801C44.5563 10.9188 44.8714 11.0405 45.1865 11.0405C45.5016 11.0405 45.8143 10.9212 46.0554 10.6801C46.2941 10.439 46.4159 10.1263 46.4159 9.81115ZM43.9309 11.9596C44.3176 12.1863 44.7521 12.3009 45.1889 12.3009C45.8263 12.3009 46.4612 12.0574 46.9482 11.5728C47.4352 11.0883 47.6763 10.4509 47.6763 9.81353C47.6763 9.17852 47.4328 8.5412 46.9482 8.05421C46.4613 7.56723 45.8263 7.32613 45.1889 7.32613C44.5539 7.32613 43.9166 7.56962 43.4296 8.05421C42.9426 8.54118 42.7015 9.17614 42.7015 9.81353C42.7015 10.248 42.8161 10.6848 43.0429 11.0716L41.835 12.2795C41.5891 12.5253 41.5891 12.924 41.835 13.1699C42.0808 13.4157 42.4795 13.4157 42.7253 13.1699L43.9333 11.9619L43.9309 11.9596ZM27.5 17.2423C24.6689 17.2423 22.1051 18.3905 20.248 20.2453C18.3932 22.1002 17.245 24.6639 17.245 27.4973C17.245 30.3285 18.3932 32.8923 20.248 34.7493C22.1029 36.6042 24.6666 37.7524 27.5 37.7524C30.3312 37.7524 32.895 36.6042 34.752 34.7493C36.6069 32.8945 37.7551 30.3307 37.7551 27.4973C37.7551 24.6662 36.6069 22.1024 34.752 20.2453C32.8972 18.3905 30.3334 17.2423 27.5 17.2423ZM22.7186 32.9447C22.0717 33.1476 21.4773 33.3911 20.9521 33.6656C21.0142 33.7301 21.0763 33.7969 21.1407 33.859C22.012 34.7303 23.0576 35.4226 24.2249 35.8785C23.9313 35.4989 23.6592 35.0669 23.4133 34.5918C23.1531 34.0905 22.9216 33.5391 22.721 32.9447L22.7186 32.9447ZM26.8746 32.2691C25.8362 32.3049 24.8479 32.429 23.9361 32.6248C24.1103 33.1261 24.3085 33.5939 24.5281 34.0165C25.1702 35.2554 25.9842 36.1124 26.8651 36.394L26.8722 32.2714L26.8746 32.2691ZM31.0641 32.6248C30.1522 32.429 29.1663 32.3049 28.1279 32.2691L28.1207 36.3965C29.0087 36.1196 29.8275 35.2602 30.4721 34.0165C30.6917 33.594 30.8898 33.1261 31.0641 32.6248ZM34.048 33.6656C33.5228 33.391 32.9308 33.1476 32.2815 32.9446C32.081 33.539 31.8471 34.0905 31.5893 34.5918C31.3434 35.0668 31.0712 35.4965 30.7776 35.8784C31.9425 35.4225 32.9905 34.7302 33.8618 33.8589C33.9263 33.7945 33.9884 33.73 34.0504 33.6656L34.048 33.6656ZM32.63 31.7392C33.4512 31.9946 34.2008 32.3121 34.8548 32.6773C35.7715 31.3787 36.3516 29.8247 36.4709 28.1441L33.1098 28.137C33.0668 29.4165 32.8998 30.6315 32.63 31.7392ZM28.1303 31.0111C29.288 31.0493 30.3933 31.1901 31.4174 31.4169C31.6608 30.4119 31.8136 29.3043 31.8542 28.1346L28.1374 28.1274L28.1327 31.0111L28.1303 31.0111ZM23.5828 31.4169C24.6069 31.1901 25.7145 31.0493 26.8746 31.0111L26.8794 28.125L23.1435 28.1179C23.1841 29.2947 23.3369 30.4071 23.5804 31.4169L23.5828 31.4169ZM20.1429 32.6773C20.797 32.3121 21.5466 31.997 22.3677 31.7391C22.0956 30.6244 21.9261 29.4022 21.8855 28.1155L18.522 28.1083C18.6342 29.8031 19.2167 31.3691 20.1405 32.6773L20.1429 32.6773ZM32.2813 22.052C32.9283 21.8491 33.5226 21.6056 34.0478 21.3311C33.9857 21.2666 33.9237 21.1998 33.8592 21.1377C32.9879 20.2664 31.9424 19.5741 30.775 19.1182C31.0686 19.4977 31.3408 19.9298 31.5866 20.4049C31.8468 20.9062 32.0784 21.4576 32.2789 22.052L32.2813 22.052ZM28.1468 22.7276C29.1781 22.6918 30.1568 22.5676 31.0639 22.3743C30.8896 21.873 30.6915 21.4051 30.4719 20.9826C29.8345 19.7532 29.03 18.9011 28.1539 18.6122L28.1468 22.7276ZM23.9359 22.3743C24.8526 22.5724 25.848 22.6965 26.8936 22.73L26.9007 18.5955C26.0031 18.8652 25.1796 19.727 24.5279 20.9826C24.3083 21.4051 24.1102 21.873 23.9359 22.3743ZM20.952 21.3335C21.4772 21.608 22.0692 21.8515 22.7185 22.0544C22.919 21.46 23.1529 20.9086 23.4107 20.4073C23.6566 19.9323 23.9288 19.5026 24.2224 19.1206C23.0575 19.5766 22.0095 20.2688 21.1382 21.1401C21.0737 21.2046 21.0116 21.2691 20.9496 21.3335L20.952 21.3335ZM22.37 23.2599C21.5488 23.0045 20.7992 22.687 20.1452 22.3217C19.2285 23.6203 18.6484 25.1744 18.5291 26.8549L21.8902 26.8621C21.9332 25.5825 22.1002 24.3675 22.37 23.2599ZM26.8912 23.988C25.7263 23.9522 24.6138 23.8089 23.585 23.5822C23.3415 24.5871 23.1887 25.6948 23.1481 26.8645L26.884 26.8716L26.8888 23.9879L26.8912 23.988ZM31.4172 23.5822C30.4002 23.8089 29.2974 23.9498 28.1444 23.988L28.1396 26.874L31.854 26.8812C31.8134 25.7043 31.6607 24.5919 31.4172 23.5822ZM34.857 22.3218C34.203 22.687 33.4534 23.0021 32.6322 23.2599C32.9044 24.3747 33.0739 25.5969 33.1144 26.8836L36.4779 26.8908C36.3657 25.1959 35.7833 23.63 34.8595 22.3218L34.857 22.3218Z" fill="#422006"/>
</svg>
