<svg width="305" height="44" viewBox="0 0 305 44" fill="none" xmlns="http://www.w3.org/2000/svg">
<path d="M296.755 37.4349C289.92 41.3801 282.157 43.4582 274.253 43.4582C266.349 43.4582 258.585 41.3801 251.751 37.4349C249.172 35.6985 247.061 33.3609 245.601 30.6264C244.142 27.892 243.379 24.844 243.379 21.7488C243.379 18.6536 244.142 15.6056 245.601 12.8711C247.061 10.1367 249.172 7.79907 251.751 6.06268C258.531 2.09336 266.257 0 274.126 0C281.996 0 289.722 2.09336 296.502 6.06268C299.095 7.77848 301.225 10.0993 302.707 12.8221C304.188 15.545 304.976 18.587 305.001 21.6822C305.026 24.7775 304.287 27.8316 302.85 30.5777C301.412 33.3237 299.319 35.6781 296.755 37.4349ZM288.124 12.3371C283.819 10.0233 279 8.81172 274.105 8.81172C269.21 8.81172 264.392 10.0233 260.086 12.3371C258.463 13.2921 257.119 14.6506 256.184 16.2788C255.25 17.9071 254.759 19.7491 254.759 21.6233C254.759 23.4976 255.25 25.3395 256.184 26.9678C257.119 28.596 258.463 29.9545 260.086 30.9095C264.411 33.1876 269.232 34.3786 274.126 34.3786C279.021 34.3786 283.842 33.1876 288.166 30.9095C289.833 29.9891 291.221 28.6428 292.187 27.0101C293.154 25.3773 293.664 23.5175 293.664 21.6233C293.664 19.7291 293.154 17.8693 292.187 16.2365C291.221 14.6038 289.833 13.2575 288.166 12.3371H288.124Z" fill="white"/>
<path d="M40.7516 5.93815C39.2498 4.17202 37.3505 2.7821 35.2075 1.88097C33.0646 0.97985 30.7382 0.59284 28.4167 0.75127H0V42.5809H10.6931V9.78647H25.6802C31.0267 9.78647 32.9212 12.3799 32.9212 15.0152C32.9212 17.6504 31.0267 20.3694 25.6802 20.3694H15.366L10.6931 29.4046H28.4167C30.736 29.5432 33.0561 29.1472 35.1959 28.2474C37.3357 27.3477 39.2371 25.9685 40.7516 24.2177C42.84 21.5923 44.0079 18.3609 44.0774 15.0152C44.0115 11.7069 42.8417 8.51416 40.7516 5.93815Z" fill="white"/>
<path d="M89.2076 27.8961C91.9509 26.9854 94.3484 25.2633 96.079 22.9606C97.8096 20.658 98.7905 17.8847 98.8903 15.0126C98.8717 13.0478 98.4496 11.1075 97.6498 9.31058C96.8499 7.51363 95.6892 5.89791 94.2387 4.56243C92.7882 3.22694 91.0785 2.19983 89.2144 1.54405C87.3503 0.888265 85.371 0.617626 83.398 0.748702H53.5078V42.5783H64.2009V9.7839H80.7036C86.0502 9.7839 87.9446 12.3773 87.9446 15.0126C87.9446 17.6479 86.0502 20.3668 80.7036 20.3668H68.6634L63.9904 29.402H77.8409L87.229 42.7038H99.4797L89.2076 27.8961Z" fill="white"/>
<path d="M132.191 0L104.027 42.708H115.815L119.899 36.1826L125.582 27.1474L132.191 16.7737L138.675 27.1474H125.582L130.171 36.1826H144.358L148.442 42.708H160.355L132.191 0Z" fill="white"/>
<path d="M222.953 10.5809V42.7061H233.562V0.750977L222.953 10.5809Z" fill="white"/>
<path d="M167.607 42.4587L171.817 37.1463C175.521 32.9634 179.226 28.4039 182.973 24.0536C183.114 23.9359 183.228 23.7887 183.306 23.6224C183.384 23.4562 183.425 23.275 183.425 23.0916C183.425 22.9081 183.384 22.7269 183.306 22.5607C183.228 22.3944 183.114 22.2473 182.973 22.1295L170.343 7.57277L167.102 3.68262H179.394C179.985 3.71705 180.541 3.97087 180.952 4.39371C183.773 7.53094 186.509 10.7518 189.372 13.9727L195.855 21.502C197.413 23.3425 196.95 23.4262 195.855 24.5974C192.024 29.0314 188.235 33.4653 184.446 37.9411C183.31 39.2796 182.173 40.66 180.994 42.124C180.639 42.4984 180.162 42.7356 179.647 42.7933C175.774 42.7933 171.859 42.7933 167.986 42.7933L167.607 42.4587Z" fill="#7DBC44"/>
<path d="M199.476 20.5282L192.656 12.4551L199.645 4.08919C199.909 3.84201 200.251 3.69408 200.613 3.6709H213.243L213.453 4.04737L201.202 18.4786" fill="white"/>
<path d="M201.486 27.9442L214.116 42.6682H212.642C208.854 42.6682 205.107 42.6682 201.36 42.6682C200.769 42.6338 200.213 42.3799 199.802 41.9571C197.782 39.6983 195.592 37.3559 193.824 35.0552C193.674 34.9296 193.553 34.7727 193.47 34.5957C193.387 34.4186 193.344 34.2257 193.344 34.0304C193.344 33.8351 193.387 33.6421 193.47 33.4651C193.553 33.288 193.674 33.1312 193.824 33.0056C195.803 30.7468 197.74 28.4461 199.718 26.1455" fill="white"/>
</svg>
